UnaScript-Regular.ufo
<glyph name="exclam" format="2">
  <advance width="382"/>
  <unicode hex="0021"/>
  <outline>
    <contour>
      <point x="200" y="164" type="curve" smooth="yes"/>
      <point x="154" y="164"/>
      <point x="114" y="200"/>
      <point x="110" y="248" type="curve" smooth="yes"/>
      <point x="100" y="408"/>
      <point x="70" y="522"/>
      <point x="26" y="626" type="curve" smooth="yes"/>
      <point x="22" y="636"/>
      <point x="20" y="648"/>
      <point x="20" y="658" type="curve" smooth="yes"/>
      <point x="20" y="694"/>
      <point x="40" y="728"/>
      <point x="76" y="742" type="curve" smooth="yes"/>
      <point x="88" y="748"/>
      <point x="100" y="750"/>
      <point x="112" y="750" type="curve" smooth="yes"/>
      <point x="146" y="750"/>
      <point x="180" y="728"/>
      <point x="194" y="694" type="curve" smooth="yes"/>
      <point x="244" y="572"/>
      <point x="278" y="442"/>
      <point x="290" y="260" type="curve" smooth="yes"/>
      <point x="290" y="258"/>
      <point x="290" y="256"/>
      <point x="290" y="254" type="curve" smooth="yes"/>
      <point x="290" y="208"/>
      <point x="254" y="168"/>
      <point x="206" y="164" type="curve" smooth="yes"/>
      <point x="204" y="164"/>
      <point x="202" y="164"/>
    </contour>
    <contour>
      <point x="272" y="-93" type="curve" smooth="yes"/>
      <point x="242" y="-93"/>
      <point x="212" y="-79"/>
      <point x="196" y="-51" type="curve" smooth="yes"/>
      <point x="178" y="-25" type="line" smooth="yes"/>
      <point x="170" y="-9"/>
      <point x="164" y="7"/>
      <point x="164" y="23" type="curve" smooth="yes"/>
      <point x="164" y="53"/>
      <point x="180" y="81"/>
      <point x="208" y="99" type="curve" smooth="yes"/>
      <point x="222" y="109"/>
      <point x="240" y="113"/>
      <point x="256" y="113" type="curve" smooth="yes"/>
      <point x="286" y="113"/>
      <point x="316" y="99"/>
      <point x="332" y="71" type="curve" smooth="yes"/>
      <point x="348" y="43" type="line" smooth="yes"/>
      <point x="358" y="29"/>
      <point x="362" y="11"/>
      <point x="362" y="-5" type="curve" smooth="yes"/>
      <point x="362" y="-35"/>
      <point x="348" y="-65"/>
      <point x="320" y="-81" type="curve" smooth="yes"/>
      <point x="304" y="-89"/>
      <point x="288" y="-93"/>
    </contour>
  </outline>
</glyph>
<glyph name="quotedbl" format="2">
  <advance width="490"/>
  <unicode hex="0022"/>
  <outline>
    <contour>
      <point x="162" y="366" type="curve" smooth="yes"/>
      <point x="116" y="366"/>
      <point x="76" y="402"/>
      <point x="72" y="448" type="curve" smooth="yes"/>
      <point x="70" y="484"/>
      <point x="66" y="525"/>
      <point x="36" y="633" type="curve" smooth="yes"/>
      <point x="34" y="641"/>
      <point x="32" y="649"/>
      <point x="32" y="659" type="curve" smooth="yes"/>
      <point x="32" y="697"/>
      <point x="58" y="733"/>
      <point x="96" y="745" type="curve" smooth="yes"/>
      <point x="104" y="747"/>
      <point x="112" y="749"/>
      <point x="122" y="749" type="curve" smooth="yes"/>
      <point x="160" y="749"/>
      <point x="196" y="723"/>
      <point x="208" y="683" type="curve" smooth="yes"/>
      <point x="238" y="579"/>
      <point x="246" y="520"/>
      <point x="252" y="462" type="curve" smooth="yes"/>
      <point x="252" y="460"/>
      <point x="252" y="458"/>
      <point x="252" y="456" type="curve" smooth="yes"/>
      <point x="252" y="410"/>
      <point x="216" y="370"/>
      <point x="170" y="366" type="curve" smooth="yes"/>
      <point x="166" y="366"/>
      <point x="164" y="366"/>
    </contour>
    <contour>
      <point x="380" y="396" type="curve" smooth="yes"/>
      <point x="340" y="396"/>
      <point x="304" y="422"/>
      <point x="294" y="464" type="curve" smooth="yes"/>
      <point x="290" y="474"/>
      <point x="288" y="486"/>
      <point x="284" y="500" type="curve" smooth="yes"/>
      <point x="274" y="546"/>
      <point x="266" y="587"/>
      <point x="252" y="619" type="curve" smooth="yes"/>
      <point x="246" y="631"/>
      <point x="244" y="643"/>
      <point x="244" y="655" type="curve" smooth="yes"/>
      <point x="244" y="691"/>
      <point x="264" y="723"/>
      <point x="298" y="737" type="curve" smooth="yes"/>
      <point x="310" y="743"/>
      <point x="324" y="745"/>
      <point x="336" y="745" type="curve" smooth="yes"/>
      <point x="370" y="745"/>
      <point x="402" y="727"/>
      <point x="416" y="693" type="curve" smooth="yes"/>
      <point x="436" y="651"/>
      <point x="440" y="618"/>
      <point x="460" y="542" type="curve" smooth="yes"/>
      <point x="462" y="530"/>
      <point x="466" y="518"/>
      <point x="468" y="508" type="curve" smooth="yes"/>
      <point x="470" y="500"/>
      <point x="470" y="494"/>
      <point x="470" y="486" type="curve" smooth="yes"/>
      <point x="470" y="446"/>
      <point x="442" y="408"/>
      <point x="402" y="398" type="curve" smooth="yes"/>
      <point x="396" y="396"/>
      <point x="388" y="396"/>
    </contour>
  </outline>
</glyph>
<glyph name="numbersign" format="2">
  <advance width="836"/>
  <unicode hex="0023"/>
  <outline>
    <contour>
      <point x="740" y="544" type="curve" smooth="yes"/>
      <point x="690" y="540"/>
      <point x="642" y="534"/>
      <point x="594" y="530" type="curve"/>
      <point x="590" y="494"/>
      <point x="584" y="458"/>
      <point x="578" y="422" type="curve"/>
      <point x="610" y="426"/>
      <point x="644" y="430"/>
      <point x="680" y="434" type="curve" smooth="yes"/>
      <point x="684" y="434"/>
      <point x="690" y="436"/>
      <point x="694" y="436" type="curve" smooth="yes"/>
      <point x="750" y="436"/>
      <point x="780" y="390"/>
      <point x="780" y="344" type="curve" smooth="yes"/>
      <point x="780" y="304"/>
      <point x="758" y="266"/>
      <point x="706" y="256" type="curve" smooth="yes"/>
      <point x="648" y="248"/>
      <point x="594" y="242"/>
      <point x="544" y="236" type="curve"/>
      <point x="530" y="180"/>
      <point x="516" y="118"/>
      <point x="500" y="56" type="curve" smooth="yes"/>
      <point x="490" y="10"/>
      <point x="454" y="-10"/>
      <point x="416" y="-10" type="curve" smooth="yes"/>
      <point x="372" y="-10"/>
      <point x="324" y="22"/>
      <point x="324" y="78" type="curve" smooth="yes"/>
      <point x="324" y="86"/>
      <point x="324" y="92"/>
      <point x="326" y="100" type="curve" smooth="yes"/>
      <point x="336" y="144"/>
      <point x="348" y="184"/>
      <point x="356" y="226" type="curve"/>
      <point x="354" y="226"/>
      <point x="352" y="226"/>
      <point x="348" y="226" type="curve" smooth="yes"/>
      <point x="322" y="226"/>
      <point x="294" y="228"/>
      <point x="270" y="230" type="curve"/>
      <point x="246" y="154"/>
      <point x="226" y="114"/>
      <point x="210" y="84" type="curve" smooth="yes"/>
      <point x="194" y="56"/>
      <point x="164" y="40"/>
      <point x="132" y="40" type="curve" smooth="yes"/>
      <point x="116" y="40"/>
      <point x="102" y="44"/>
      <point x="88" y="52" type="curve" smooth="yes"/>
      <point x="58" y="68"/>
      <point x="42" y="98"/>
      <point x="42" y="130" type="curve" smooth="yes"/>
      <point x="42" y="144"/>
      <point x="46" y="160"/>
      <point x="54" y="174" type="curve" smooth="yes"/>
      <point x="64" y="192"/>
      <point x="76" y="218"/>
      <point x="88" y="254" type="curve"/>
      <point x="48" y="268"/>
      <point x="30" y="302"/>
      <point x="30" y="336" type="curve" smooth="yes"/>
      <point x="30" y="382"/>
      <point x="62" y="428"/>
      <point x="118" y="428" type="curve" smooth="yes"/>
      <point x="124" y="428"/>
      <point x="130" y="428"/>
      <point x="136" y="426" type="curve" smooth="yes"/>
      <point x="136" y="426"/>
      <point x="136" y="426"/>
      <point x="138" y="426" type="curve" smooth="yes"/>
      <point x="144" y="450"/>
      <point x="150" y="474"/>
      <point x="156" y="500" type="curve"/>
      <point x="140" y="500"/>
      <point x="125" y="501"/>
      <point x="111" y="501" type="curve" smooth="yes"/>
      <point x="109" y="501"/>
      <point x="107" y="501"/>
      <point x="107" y="501" type="curve" smooth="yes"/>
      <point x="49" y="501"/>
      <point x="20" y="544"/>
      <point x="20" y="588" type="curve" smooth="yes"/>
      <point x="20" y="632"/>
      <point x="48" y="677"/>
      <point x="104" y="679" type="curve" smooth="yes"/>
      <point x="134" y="681"/>
      <point x="164" y="680"/>
      <point x="196" y="682" type="curve"/>
      <point x="200" y="704"/>
      <point x="206" y="728"/>
      <point x="210" y="752" type="curve" smooth="yes"/>
      <point x="220" y="828"/>
      <point x="262" y="854"/>
      <point x="300" y="854" type="curve" smooth="yes"/>
      <point x="344" y="854"/>
      <point x="388" y="828"/>
      <point x="388" y="744" type="curve" smooth="yes"/>
      <point x="388" y="742"/>
      <point x="388" y="738"/>
      <point x="388" y="734" type="curve" smooth="yes"/>
      <point x="388" y="728"/>
      <point x="388" y="722"/>
      <point x="386" y="716" type="curve" smooth="yes"/>
      <point x="384" y="708"/>
      <point x="382" y="700"/>
      <point x="382" y="694" type="curve"/>
      <point x="398" y="694"/>
      <point x="414" y="696"/>
      <point x="430" y="696" type="curve" smooth="yes"/>
      <point x="430" y="702"/>
      <point x="430" y="706"/>
      <point x="430" y="710" type="curve" smooth="yes"/>
      <point x="436" y="798"/>
      <point x="482" y="844"/>
      <point x="526" y="844" type="curve" smooth="yes"/>
      <point x="568" y="844"/>
      <point x="610" y="824"/>
      <point x="610" y="712" type="curve"/>
      <point x="646" y="716"/>
      <point x="682" y="720"/>
      <point x="720" y="724" type="curve" smooth="yes"/>
      <point x="724" y="724"/>
      <point x="728" y="724"/>
      <point x="730" y="724" type="curve" smooth="yes"/>
      <point x="788" y="724"/>
      <point x="816" y="680"/>
      <point x="816" y="634" type="curve" smooth="yes"/>
      <point x="816" y="592"/>
      <point x="792" y="550"/>
    </contour>
    <contour>
      <point x="394" y="408" type="curve"/>
      <point x="400" y="444"/>
      <point x="406" y="480"/>
      <point x="410" y="516" type="curve"/>
      <point x="388" y="514"/>
      <point x="364" y="512"/>
      <point x="342" y="510" type="curve"/>
      <point x="334" y="472"/>
      <point x="326" y="438"/>
      <point x="318" y="408" type="curve"/>
      <point x="330" y="406"/>
      <point x="342" y="406"/>
      <point x="356" y="406" type="curve" smooth="yes"/>
      <point x="368" y="406"/>
      <point x="382" y="406"/>
    </contour>
  </outline>
</glyph>
<glyph name="dollar" format="2">
  <advance width="742"/>
  <unicode hex="0024"/>
  <outline>
    <contour>
      <point x="688" y="111" type="curve" smooth="yes"/>
      <point x="658" y="71"/>
      <point x="608" y="41"/>
      <point x="540" y="21" type="curve"/>
      <point x="544" y="21" type="line"/>
      <point x="544" y="17"/>
      <point x="546" y="7"/>
      <point x="546" y="-9" type="curve" smooth="yes"/>
      <point x="546" y="-39"/>
      <point x="542" y="-93"/>
      <point x="518" y="-149" type="curve" smooth="yes"/>
      <point x="504" y="-183"/>
      <point x="470" y="-205"/>
      <point x="434" y="-205" type="curve" smooth="yes"/>
      <point x="422" y="-205"/>
      <point x="412" y="-201"/>
      <point x="400" y="-197" type="curve" smooth="yes"/>
      <point x="366" y="-183"/>
      <point x="344" y="-149"/>
      <point x="344" y="-115" type="curve" smooth="yes"/>
      <point x="344" y="-103"/>
      <point x="346" y="-91"/>
      <point x="352" y="-79" type="curve" smooth="yes"/>
      <point x="362" y="-55"/>
      <point x="364" y="-33"/>
      <point x="364" y="-23" type="curve" smooth="yes"/>
      <point x="364" y="-19"/>
      <point x="364" y="-11"/>
      <point x="364" y="-7" type="curve"/>
      <point x="362" y="-7"/>
      <point x="360" y="-7"/>
      <point x="358" y="-7" type="curve" smooth="yes"/>
      <point x="334" y="-7"/>
      <point x="310" y="-7"/>
      <point x="290" y="-7" type="curve" smooth="yes"/>
      <point x="210" y="-7"/>
      <point x="156" y="-3"/>
      <point x="146" y="-1" type="curve" smooth="yes"/>
      <point x="100" y="5"/>
      <point x="66" y="43"/>
      <point x="66" y="89" type="curve" smooth="yes"/>
      <point x="66" y="91"/>
      <point x="66" y="95"/>
      <point x="66" y="97" type="curve" smooth="yes"/>
      <point x="72" y="143"/>
      <point x="110" y="177"/>
      <point x="154" y="177" type="curve" smooth="yes"/>
      <point x="156" y="177"/>
      <point x="160" y="177"/>
      <point x="164" y="177" type="curve" smooth="yes"/>
      <point x="166" y="177"/>
      <point x="224" y="171"/>
      <point x="296" y="171" type="curve" smooth="yes"/>
      <point x="316" y="171"/>
      <point x="334" y="173"/>
      <point x="354" y="173" type="curve" smooth="yes"/>
      <point x="500" y="181"/>
      <point x="536" y="211"/>
      <point x="542" y="217" type="curve" smooth="yes"/>
      <point x="542" y="221"/>
      <point x="542" y="225"/>
      <point x="538" y="233" type="curve" smooth="yes"/>
      <point x="506" y="313"/>
      <point x="400" y="329"/>
      <point x="266" y="341" type="curve" smooth="yes"/>
      <point x="216" y="347"/>
      <point x="170" y="351"/>
      <point x="132" y="363" type="curve" smooth="yes"/>
      <point x="30" y="395"/>
      <point x="20" y="467"/>
      <point x="20" y="499" type="curve" smooth="yes"/>
      <point x="20" y="535"/>
      <point x="32" y="587"/>
      <point x="88" y="641" type="curve" smooth="yes"/>
      <point x="116" y="667"/>
      <point x="152" y="693"/>
      <point x="198" y="715" type="curve" smooth="yes"/>
      <point x="214" y="723"/>
      <point x="232" y="731"/>
      <point x="248" y="737" type="curve"/>
      <point x="244" y="743"/>
      <point x="240" y="747"/>
      <point x="236" y="753" type="curve" smooth="yes"/>
      <point x="187" y="824" type="line" smooth="yes"/>
      <point x="181" y="836"/>
      <point x="177" y="850"/>
      <point x="177" y="864" type="curve" smooth="yes"/>
      <point x="177" y="896"/>
      <point x="195" y="928"/>
      <point x="227" y="944" type="curve" smooth="yes"/>
      <point x="241" y="950"/>
      <point x="255" y="954"/>
      <point x="269" y="954" type="curve" smooth="yes"/>
      <point x="301" y="954"/>
      <point x="333" y="936"/>
      <point x="349" y="904" type="curve" smooth="yes"/>
      <point x="401" y="798" type="line" smooth="yes"/>
      <point x="407" y="786"/>
      <point x="411" y="809"/>
      <point x="411" y="795" type="curve" smooth="yes"/>
      <point x="411" y="785"/>
      <point x="406" y="775"/>
      <point x="402" y="765" type="curve"/>
      <point x="426" y="753"/>
      <point x="444" y="733"/>
      <point x="452" y="707" type="curve" smooth="yes"/>
      <point x="454" y="699"/>
      <point x="454" y="691"/>
      <point x="454" y="685" type="curve" smooth="yes"/>
      <point x="454" y="645"/>
      <point x="428" y="607"/>
      <point x="388" y="595" type="curve" smooth="yes"/>
      <point x="388" y="595"/>
      <point x="338" y="583"/>
      <point x="286" y="557" type="curve" smooth="yes"/>
      <point x="262" y="547"/>
      <point x="244" y="535"/>
      <point x="232" y="527" type="curve"/>
      <point x="250" y="525"/>
      <point x="268" y="523"/>
      <point x="284" y="521" type="curve" smooth="yes"/>
      <point x="350" y="515"/>
      <point x="432" y="507"/>
      <point x="506" y="481" type="curve" smooth="yes"/>
      <point x="604" y="445"/>
      <point x="670" y="385"/>
      <point x="704" y="301" type="curve" smooth="yes"/>
      <point x="718" y="269"/>
      <point x="722" y="241"/>
      <point x="722" y="217" type="curve" smooth="yes"/>
      <point x="722" y="167"/>
      <point x="702" y="131"/>
    </contour>
  </outline>
</glyph>
<glyph name="percent" format="2">
  <advance width="1296"/>
  <unicode hex="0025"/>
  <outline>
    <contour>
      <point x="20" y="725" type="curve" smooth="yes"/>
      <point x="41" y="867"/>
      <point x="129" y="957"/>
      <point x="288" y="957" type="curve" smooth="yes"/>
      <point x="314" y="957"/>
      <point x="340" y="955"/>
      <point x="368" y="951" type="curve" smooth="yes"/>
      <point x="374" y="949"/>
      <point x="382" y="947"/>
      <point x="390" y="945" type="curve" smooth="yes"/>
      <point x="462" y="912"/>
      <point x="535" y="907"/>
      <point x="603" y="907" type="curve" smooth="yes"/>
      <point x="630" y="907"/>
      <point x="655" y="908"/>
      <point x="680" y="908" type="curve" smooth="yes"/>
      <point x="740" y="908"/>
      <point x="798" y="918"/>
      <point x="848" y="940" type="curve" smooth="yes"/>
      <point x="860" y="944"/>
      <point x="870" y="946"/>
      <point x="882" y="946" type="curve" smooth="yes"/>
      <point x="912" y="946"/>
      <point x="940" y="932"/>
      <point x="958" y="908" type="curve" smooth="yes"/>
      <point x="968" y="892"/>
      <point x="972" y="876"/>
      <point x="972" y="858" type="curve" smooth="yes"/>
      <point x="972" y="836"/>
      <point x="964" y="812"/>
      <point x="946" y="794" type="curve" smooth="yes"/>
      <point x="844" y="692"/>
      <point x="688" y="402"/>
      <point x="470" y="44" type="curve" smooth="yes"/>
      <point x="454" y="16"/>
      <point x="424" y="2"/>
      <point x="394" y="2" type="curve" smooth="yes"/>
      <point x="340" y="2"/>
      <point x="302" y="48"/>
      <point x="302" y="92" type="curve" smooth="yes"/>
      <point x="302" y="108"/>
      <point x="308" y="124"/>
      <point x="316" y="138" type="curve" smooth="yes"/>
      <point x="454" y="364"/>
      <point x="568" y="602"/>
      <point x="660" y="728" type="curve"/>
      <point x="640" y="728"/>
      <point x="620" y="727"/>
      <point x="599" y="727" type="curve" smooth="yes"/>
      <point x="578" y="727"/>
      <point x="557" y="728"/>
      <point x="536" y="731" type="curve"/>
      <point x="518" y="669"/>
      <point x="488" y="589"/>
      <point x="444" y="543" type="curve" smooth="yes"/>
      <point x="390" y="483"/>
      <point x="324" y="451"/>
      <point x="262" y="451" type="curve" smooth="yes"/>
      <point x="246" y="451" type="line" smooth="yes"/>
      <point x="238" y="451"/>
      <point x="230" y="453"/>
      <point x="224" y="455" type="curve" smooth="yes"/>
      <point x="152" y="479"/>
      <point x="104" y="511"/>
      <point x="72" y="553" type="curve" smooth="yes"/>
      <point x="32" y="603"/>
      <point x="24" y="661"/>
      <point x="20" y="707" type="curve" smooth="yes"/>
      <point x="20" y="713"/>
      <point x="20" y="719"/>
    </contour>
    <contour>
      <point x="200" y="709" type="curve"/>
      <point x="204" y="679"/>
      <point x="210" y="669"/>
      <point x="214" y="663" type="curve" smooth="yes"/>
      <point x="222" y="653"/>
      <point x="240" y="641"/>
      <point x="266" y="631" type="curve"/>
      <point x="276" y="635"/>
      <point x="294" y="645"/>
      <point x="314" y="667" type="curve" smooth="yes"/>
      <point x="328" y="683"/>
      <point x="352" y="713"/>
      <point x="364" y="759" type="curve"/>
      <point x="350" y="765"/>
      <point x="338" y="771"/>
      <point x="328" y="775" type="curve" smooth="yes"/>
      <point x="314" y="777"/>
      <point x="300" y="777"/>
      <point x="288" y="777" type="curve" smooth="yes"/>
      <point x="229" y="777"/>
      <point x="212" y="760"/>
    </contour>
    <contour>
      <point x="918" y="8" type="curve" smooth="yes"/>
      <point x="813" y="29"/>
      <point x="706" y="84"/>
      <point x="706" y="242" type="curve" smooth="yes"/>
      <point x="706" y="246"/>
      <point x="706" y="250"/>
      <point x="706" y="254" type="curve" smooth="yes"/>
      <point x="708" y="306"/>
      <point x="726" y="373"/>
      <point x="760" y="411" type="curve" smooth="yes"/>
      <point x="786" y="439"/>
      <point x="818" y="461"/>
      <point x="860" y="477" type="curve" smooth="yes"/>
      <point x="920" y="503"/>
      <point x="978" y="505"/>
      <point x="984" y="505" type="curve"/>
      <point x="986" y="475" type="line"/>
      <point x="1002" y="483"/>
      <point x="1020" y="485"/>
      <point x="1040" y="485" type="curve" smooth="yes"/>
      <point x="1080" y="485"/>
      <point x="1122" y="471"/>
      <point x="1164" y="443" type="curve" smooth="yes"/>
      <point x="1220" y="405"/>
      <point x="1276" y="320"/>
      <point x="1276" y="244" type="curve" smooth="yes"/>
      <point x="1276" y="234"/>
      <point x="1274" y="222"/>
      <point x="1272" y="212" type="curve" smooth="yes"/>
      <point x="1264" y="172"/>
      <point x="1240" y="116"/>
      <point x="1160" y="66" type="curve" smooth="yes"/>
      <point x="1112" y="38"/>
      <point x="1028" y="2"/>
      <point x="962" y="2" type="curve" smooth="yes"/>
      <point x="946" y="2"/>
      <point x="936" y="4"/>
      <point x="930" y="6" type="curve" smooth="yes"/>
      <point x="928" y="6"/>
      <point x="924" y="8"/>
    </contour>
    <contour>
      <point x="980" y="178" type="line"/>
    </contour>
    <contour>
      <point x="962" y="182" type="line"/>
    </contour>
    <contour>
      <point x="960" y="321" type="curve"/>
      <point x="948" y="319"/>
      <point x="936" y="315"/>
      <point x="924" y="309" type="curve" smooth="yes"/>
      <point x="886" y="293"/>
      <point x="886" y="258"/>
      <point x="884" y="246" type="curve" smooth="yes"/>
      <point x="884" y="208"/>
      <point x="890" y="198"/>
      <point x="954" y="184" type="curve" smooth="yes"/>
      <point x="958" y="184"/>
      <point x="964" y="182"/>
      <point x="968" y="182" type="curve" smooth="yes"/>
      <point x="980" y="184"/>
      <point x="1008" y="192"/>
      <point x="1040" y="206" type="curve" smooth="yes"/>
      <point x="1074" y="222"/>
      <point x="1088" y="236"/>
      <point x="1094" y="244" type="curve"/>
      <point x="1092" y="248"/>
      <point x="1084" y="275"/>
      <point x="1072" y="285" type="curve" smooth="yes"/>
      <point x="1062" y="295"/>
      <point x="1050" y="301"/>
      <point x="1042" y="305" type="curve"/>
      <point x="1034" y="301"/>
      <point x="1024" y="301"/>
      <point x="1014" y="301" type="curve" smooth="yes"/>
      <point x="994" y="301"/>
      <point x="974" y="307"/>
    </contour>
  </outline>
</glyph>
<glyph name="ampersand" format="2">
  <advance width="688"/>
  <unicode hex="0026"/>
  <outline>
    <contour>
      <point x="612" y="87" type="curve" smooth="yes"/>
      <point x="552" y="63"/>
      <point x="500" y="45"/>
      <point x="456" y="33" type="curve"/>
      <point x="464" y="19"/>
      <point x="468" y="1"/>
      <point x="468" y="-19" type="curve" smooth="yes"/>
      <point x="468" y="-31"/>
      <point x="466" y="-45"/>
      <point x="466" y="-61" type="curve" smooth="yes"/>
      <point x="466" y="-97"/>
      <point x="470" y="-139"/>
      <point x="476" y="-159" type="curve" smooth="yes"/>
      <point x="480" y="-169"/>
      <point x="482" y="-179"/>
      <point x="482" y="-189" type="curve" smooth="yes"/>
      <point x="482" y="-225"/>
      <point x="458" y="-261"/>
      <point x="422" y="-273" type="curve" smooth="yes"/>
      <point x="412" y="-277"/>
      <point x="402" y="-279"/>
      <point x="392" y="-279" type="curve" smooth="yes"/>
      <point x="354" y="-279"/>
      <point x="320" y="-255"/>
      <point x="306" y="-219" type="curve" smooth="yes"/>
      <point x="290" y="-173"/>
      <point x="286" y="-109"/>
      <point x="286" y="-63" type="curve" smooth="yes"/>
      <point x="286" y="-37"/>
      <point x="288" y="-15"/>
      <point x="288" y="-7" type="curve" smooth="yes"/>
      <point x="288" y="1"/>
      <point x="290" y="7"/>
      <point x="292" y="15" type="curve"/>
      <point x="262" y="17"/>
      <point x="236" y="23"/>
      <point x="212" y="35" type="curve" smooth="yes"/>
      <point x="156" y="63"/>
      <point x="116" y="113"/>
      <point x="94" y="183" type="curve" smooth="yes"/>
      <point x="94" y="185"/>
      <point x="92" y="189"/>
      <point x="92" y="191" type="curve" smooth="yes"/>
      <point x="88" y="205"/>
      <point x="88" y="221"/>
      <point x="88" y="235" type="curve" smooth="yes"/>
      <point x="88" y="277"/>
      <point x="100" y="319"/>
      <point x="126" y="355" type="curve" smooth="yes"/>
      <point x="138" y="371"/>
      <point x="150" y="385"/>
      <point x="166" y="397" type="curve"/>
      <point x="104" y="425"/>
      <point x="58" y="457"/>
      <point x="36" y="503" type="curve" smooth="yes"/>
      <point x="24" y="525"/>
      <point x="20" y="547"/>
      <point x="20" y="569" type="curve" smooth="yes"/>
      <point x="20" y="587"/>
      <point x="22" y="605"/>
      <point x="30" y="623" type="curve" smooth="yes"/>
      <point x="34" y="631"/>
      <point x="38" y="637"/>
      <point x="42" y="643" type="curve" smooth="yes"/>
      <point x="72" y="685"/>
      <point x="116" y="717"/>
      <point x="170" y="743" type="curve" smooth="yes"/>
      <point x="204" y="759"/>
      <point x="238" y="769"/>
      <point x="274" y="771" type="curve"/>
      <point x="282" y="819"/>
      <point x="282" y="871"/>
      <point x="282" y="871" type="curve" smooth="yes"/>
      <point x="282" y="921"/>
      <point x="322" y="961"/>
      <point x="372" y="961" type="curve" smooth="yes"/>
      <point x="422" y="961"/>
      <point x="462" y="919"/>
      <point x="462" y="871" type="curve" smooth="yes"/>
      <point x="462" y="867"/>
      <point x="462" y="791"/>
      <point x="448" y="723" type="curve"/>
      <point x="468" y="707"/>
      <point x="482" y="685"/>
      <point x="494" y="661" type="curve" smooth="yes"/>
      <point x="500" y="649"/>
      <point x="502" y="635"/>
      <point x="502" y="623" type="curve" smooth="yes"/>
      <point x="502" y="589"/>
      <point x="484" y="557"/>
      <point x="452" y="541" type="curve" smooth="yes"/>
      <point x="440" y="535"/>
      <point x="428" y="533"/>
      <point x="414" y="533" type="curve" smooth="yes"/>
      <point x="380" y="533"/>
      <point x="344" y="549"/>
      <point x="332" y="583" type="curve" smooth="yes"/>
      <point x="330" y="589"/>
      <point x="318" y="591"/>
      <point x="310" y="593" type="curve" smooth="yes"/>
      <point x="308" y="593"/>
      <point x="306" y="593"/>
      <point x="304" y="593" type="curve" smooth="yes"/>
      <point x="278" y="593"/>
      <point x="248" y="583"/>
      <point x="224" y="569" type="curve"/>
      <point x="236" y="563"/>
      <point x="252" y="555"/>
      <point x="276" y="547" type="curve" smooth="yes"/>
      <point x="328" y="529"/>
      <point x="392" y="513"/>
      <point x="454" y="497" type="curve" smooth="yes"/>
      <point x="460" y="495" type="line" smooth="yes"/>
      <point x="500" y="481"/>
      <point x="526" y="449"/>
      <point x="526" y="409" type="curve" smooth="yes"/>
      <point x="526" y="407"/>
      <point x="526" y="403"/>
      <point x="526" y="401" type="curve" smooth="yes"/>
      <point x="524" y="359"/>
      <point x="490" y="323"/>
      <point x="448" y="317" type="curve" smooth="yes"/>
      <point x="318" y="301"/>
      <point x="282" y="263"/>
      <point x="274" y="251" type="curve" smooth="yes"/>
      <point x="268" y="243"/>
      <point x="266" y="237"/>
      <point x="266" y="231" type="curve" smooth="yes"/>
      <point x="266" y="203"/>
      <point x="286" y="201"/>
      <point x="290" y="199" type="curve" smooth="yes"/>
      <point x="296" y="197"/>
      <point x="306" y="193"/>
      <point x="324" y="193" type="curve" smooth="yes"/>
      <point x="334" y="193"/>
      <point x="346" y="195"/>
      <point x="362" y="197" type="curve" smooth="yes"/>
      <point x="408" y="205"/>
      <point x="468" y="223"/>
      <point x="544" y="255" type="curve" smooth="yes"/>
      <point x="554" y="259"/>
      <point x="566" y="261"/>
      <point x="576" y="261" type="curve" smooth="yes"/>
      <point x="612" y="261"/>
      <point x="646" y="239"/>
      <point x="662" y="203" type="curve" smooth="yes"/>
      <point x="666" y="193"/>
      <point x="668" y="181"/>
      <point x="668" y="169" type="curve" smooth="yes"/>
      <point x="668" y="135"/>
      <point x="648" y="101"/>
    </contour>
  </outline>
</glyph>
<glyph name="quotesingle" format="2">
  <advance width="296"/>
  <unicode hex="0027"/>
  <outline>
    <contour>
      <point x="186" y="362" type="curve" smooth="yes"/>
      <point x="154" y="362"/>
      <point x="124" y="378"/>
      <point x="108" y="408" type="curve" smooth="yes"/>
      <point x="96" y="428"/>
      <point x="68" y="502"/>
      <point x="24" y="630" type="curve" smooth="yes"/>
      <point x="20" y="640"/>
      <point x="20" y="648"/>
      <point x="20" y="658" type="curve" smooth="yes"/>
      <point x="20" y="696"/>
      <point x="44" y="732"/>
      <point x="80" y="744" type="curve" smooth="yes"/>
      <point x="90" y="748"/>
      <point x="100" y="748"/>
      <point x="110" y="748" type="curve" smooth="yes"/>
      <point x="148" y="748"/>
      <point x="184" y="724"/>
      <point x="196" y="688" type="curve" smooth="yes"/>
      <point x="222" y="608"/>
      <point x="256" y="512"/>
      <point x="266" y="494" type="curve" smooth="yes"/>
      <point x="272" y="482"/>
      <point x="276" y="468"/>
      <point x="276" y="454" type="curve" smooth="yes"/>
      <point x="276" y="422"/>
      <point x="260" y="390"/>
      <point x="230" y="374" type="curve" smooth="yes"/>
      <point x="216" y="366"/>
      <point x="200" y="362"/>
    </contour>
    <contour>
      <point x="264" y="496" type="curve"/>
      <point x="264" y="496"/>
      <point x="264" y="496"/>
      <point x="264" y="494" type="curve"/>
      <point x="264" y="496"/>
      <point x="264" y="496"/>
    </contour>
  </outline>
</glyph>
<glyph name="parenleft" format="2">
  <advance width="444"/>
  <unicode hex="0028"/>
  <outline>
    <contour>
      <point x="330" y="-186" type="curve" smooth="yes"/>
      <point x="314" y="-186"/>
      <point x="300" y="-182"/>
      <point x="284" y="-172" type="curve" smooth="yes"/>
      <point x="214" y="-132"/>
      <point x="142" y="-84"/>
      <point x="90" y="-8" type="curve" smooth="yes"/>
      <point x="44" y="60"/>
      <point x="20" y="144"/>
      <point x="20" y="246" type="curve" smooth="yes"/>
      <point x="20" y="264"/>
      <point x="20" y="284"/>
      <point x="22" y="302" type="curve" smooth="yes"/>
      <point x="22" y="304"/>
      <point x="22" y="306"/>
      <point x="22" y="308" type="curve" smooth="yes"/>
      <point x="42" y="454"/>
      <point x="94" y="658"/>
      <point x="306" y="732" type="curve" smooth="yes"/>
      <point x="316" y="736"/>
      <point x="326" y="736"/>
      <point x="336" y="736" type="curve" smooth="yes"/>
      <point x="372" y="736"/>
      <point x="408" y="714"/>
      <point x="420" y="676" type="curve" smooth="yes"/>
      <point x="424" y="666"/>
      <point x="424" y="656"/>
      <point x="424" y="646" type="curve" smooth="yes"/>
      <point x="424" y="610"/>
      <point x="402" y="574"/>
      <point x="366" y="562" type="curve" smooth="yes"/>
      <point x="274" y="530"/>
      <point x="224" y="446"/>
      <point x="202" y="286" type="curve"/>
      <point x="202" y="272"/>
      <point x="200" y="258"/>
      <point x="200" y="246" type="curve" smooth="yes"/>
      <point x="200" y="94"/>
      <point x="266" y="46"/>
      <point x="376" y="-18" type="curve" smooth="yes"/>
      <point x="406" y="-36"/>
      <point x="422" y="-64"/>
      <point x="422" y="-96" type="curve" smooth="yes"/>
      <point x="422" y="-110"/>
      <point x="416" y="-128"/>
      <point x="408" y="-142" type="curve" smooth="yes"/>
      <point x="392" y="-170"/>
      <point x="362" y="-186"/>
    </contour>
  </outline>
</glyph>
<glyph name="parenright" format="2">
  <advance width="492"/>
  <unicode hex="0029"/>
  <outline>
    <contour>
      <point x="242" y="-203" type="curve" smooth="yes"/>
      <point x="222" y="-203"/>
      <point x="202" y="-197"/>
      <point x="184" y="-183" type="curve" smooth="yes"/>
      <point x="162" y="-165"/>
      <point x="152" y="-139"/>
      <point x="152" y="-113" type="curve" smooth="yes"/>
      <point x="152" y="-93"/>
      <point x="158" y="-71"/>
      <point x="172" y="-55" type="curve" smooth="yes"/>
      <point x="250" y="39"/>
      <point x="292" y="143"/>
      <point x="292" y="251" type="curve" smooth="yes"/>
      <point x="292" y="269"/>
      <point x="290" y="289"/>
      <point x="288" y="307" type="curve" smooth="yes"/>
      <point x="266" y="437"/>
      <point x="202" y="519"/>
      <point x="78" y="567" type="curve" smooth="yes"/>
      <point x="42" y="581"/>
      <point x="20" y="615"/>
      <point x="20" y="651" type="curve" smooth="yes"/>
      <point x="20" y="661"/>
      <point x="22" y="673"/>
      <point x="26" y="683" type="curve" smooth="yes"/>
      <point x="40" y="719"/>
      <point x="74" y="741"/>
      <point x="110" y="741" type="curve" smooth="yes"/>
      <point x="120" y="741"/>
      <point x="132" y="739"/>
      <point x="142" y="735" type="curve" smooth="yes"/>
      <point x="326" y="663"/>
      <point x="436" y="527"/>
      <point x="466" y="333" type="curve" smooth="yes"/>
      <point x="466" y="333"/>
      <point x="466" y="331"/>
      <point x="466" y="329" type="curve" smooth="yes"/>
      <point x="470" y="301"/>
      <point x="472" y="273"/>
      <point x="472" y="247" type="curve" smooth="yes"/>
      <point x="472" y="173"/>
      <point x="458" y="103"/>
      <point x="432" y="33" type="curve" smooth="yes"/>
      <point x="406" y="-37"/>
      <point x="364" y="-107"/>
      <point x="312" y="-171" type="curve" smooth="yes"/>
      <point x="294" y="-191"/>
      <point x="268" y="-203"/>
    </contour>
  </outline>
</glyph>
<glyph name="asterisk" format="2">
  <advance width="640"/>
  <unicode hex="002A"/>
  <outline>
    <contour>
      <point x="620" y="522" type="curve" smooth="yes"/>
      <point x="618" y="484"/>
      <point x="590" y="452"/>
      <point x="556" y="440" type="curve"/>
      <point x="556" y="440"/>
      <point x="556" y="438"/>
      <point x="558" y="438" type="curve" smooth="yes"/>
      <point x="570" y="422"/>
      <point x="578" y="402"/>
      <point x="578" y="382" type="curve" smooth="yes"/>
      <point x="578" y="356"/>
      <point x="566" y="330"/>
      <point x="544" y="312" type="curve" smooth="yes"/>
      <point x="528" y="298"/>
      <point x="508" y="292"/>
      <point x="488" y="292" type="curve" smooth="yes"/>
      <point x="460" y="292"/>
      <point x="434" y="304"/>
      <point x="418" y="326" type="curve" smooth="yes"/>
      <point x="400" y="348"/>
      <point x="380" y="370"/>
      <point x="358" y="394" type="curve"/>
      <point x="292" y="322" type="line" smooth="yes"/>
      <point x="274" y="302"/>
      <point x="250" y="292"/>
      <point x="226" y="292" type="curve" smooth="yes"/>
      <point x="204" y="292"/>
      <point x="182" y="300"/>
      <point x="166" y="316" type="curve" smooth="yes"/>
      <point x="146" y="334"/>
      <point x="136" y="358"/>
      <point x="136" y="382" type="curve" smooth="yes"/>
      <point x="136" y="388"/>
      <point x="136" y="392"/>
      <point x="138" y="398" type="curve"/>
      <point x="134" y="398"/>
      <point x="132" y="398"/>
      <point x="132" y="398" type="curve" smooth="yes"/>
      <point x="124" y="396"/>
      <point x="118" y="394"/>
      <point x="110" y="394" type="curve" smooth="yes"/>
      <point x="70" y="394"/>
      <point x="32" y="422"/>
      <point x="22" y="464" type="curve" smooth="yes"/>
      <point x="20" y="472"/>
      <point x="20" y="478"/>
      <point x="20" y="486" type="curve" smooth="yes"/>
      <point x="20" y="526"/>
      <point x="48" y="562"/>
      <point x="88" y="572" type="curve" smooth="yes"/>
      <point x="92" y="574"/>
      <point x="120" y="580"/>
      <point x="164" y="588" type="curve"/>
      <point x="148" y="604"/>
      <point x="140" y="628"/>
      <point x="140" y="648" type="curve" smooth="yes"/>
      <point x="140" y="672"/>
      <point x="148" y="692"/>
      <point x="164" y="710" type="curve" smooth="yes"/>
      <point x="182" y="730"/>
      <point x="206" y="740"/>
      <point x="230" y="740" type="curve" smooth="yes"/>
      <point x="252" y="740"/>
      <point x="274" y="732"/>
      <point x="290" y="716" type="curve" smooth="yes"/>
      <point x="294" y="714"/>
      <point x="318" y="690"/>
      <point x="354" y="656" type="curve"/>
      <point x="400" y="706" type="line" smooth="yes"/>
      <point x="416" y="726"/>
      <point x="442" y="736"/>
      <point x="466" y="736" type="curve" smooth="yes"/>
      <point x="488" y="736"/>
      <point x="508" y="728"/>
      <point x="526" y="712" type="curve" smooth="yes"/>
      <point x="546" y="696"/>
      <point x="556" y="670"/>
      <point x="556" y="646" type="curve" smooth="yes"/>
      <point x="556" y="634"/>
      <point x="554" y="624"/>
      <point x="550" y="614" type="curve"/>
      <point x="590" y="604"/>
      <point x="620" y="568"/>
      <point x="620" y="526" type="curve" smooth="yes"/>
      <point x="620" y="524"/>
      <point x="620" y="524"/>
    </contour>
  </outline>
</glyph>
<glyph name="plus" format="2">
  <advance width="732"/>
  <unicode hex="002B"/>
  <outline>
    <contour>
      <point x="712" y="471" type="curve" smooth="yes"/>
      <point x="712" y="421"/>
      <point x="672" y="381"/>
      <point x="622" y="381" type="curve" smooth="yes"/>
      <point x="622" y="381"/>
      <point x="622" y="381"/>
      <point x="620" y="381" type="curve" smooth="yes"/>
      <point x="618" y="381" type="line" smooth="yes"/>
      <point x="586" y="381"/>
      <point x="510" y="371"/>
      <point x="426" y="355" type="curve"/>
      <point x="432" y="193" type="line" smooth="yes"/>
      <point x="432" y="143"/>
      <point x="394" y="101"/>
      <point x="344" y="101" type="curve" smooth="yes"/>
      <point x="344" y="99"/>
      <point x="342" y="99"/>
      <point x="342" y="99" type="curve" smooth="yes"/>
      <point x="292" y="99"/>
      <point x="252" y="139"/>
      <point x="252" y="187" type="curve" smooth="yes"/>
      <point x="246" y="317" type="line"/>
      <point x="204" y="309"/>
      <point x="164" y="299"/>
      <point x="130" y="291" type="curve" smooth="yes"/>
      <point x="124" y="289"/>
      <point x="116" y="289"/>
      <point x="110" y="289" type="curve" smooth="yes"/>
      <point x="70" y="289"/>
      <point x="32" y="317"/>
      <point x="22" y="359" type="curve" smooth="yes"/>
      <point x="20" y="365"/>
      <point x="20" y="371"/>
      <point x="20" y="377" type="curve" smooth="yes"/>
      <point x="20" y="419"/>
      <point x="48" y="457"/>
      <point x="90" y="467" type="curve" smooth="yes"/>
      <point x="106" y="471"/>
      <point x="166" y="485"/>
      <point x="240" y="501" type="curve"/>
      <point x="236" y="651" type="line" smooth="yes"/>
      <point x="236" y="653"/>
      <point x="236" y="653"/>
      <point x="236" y="655" type="curve" smooth="yes"/>
      <point x="236" y="701"/>
      <point x="276" y="741"/>
      <point x="322" y="743" type="curve" smooth="yes"/>
      <point x="324" y="743"/>
      <point x="324" y="743"/>
      <point x="326" y="743" type="curve" smooth="yes"/>
      <point x="374" y="743"/>
      <point x="414" y="703"/>
      <point x="416" y="657" type="curve" smooth="yes"/>
      <point x="420" y="535" type="line"/>
      <point x="500" y="551"/>
      <point x="576" y="561"/>
      <point x="620" y="561" type="curve" smooth="yes"/>
      <point x="622" y="561"/>
      <point x="622" y="561"/>
      <point x="624" y="561" type="curve" smooth="yes"/>
      <point x="672" y="561"/>
      <point x="712" y="521"/>
    </contour>
  </outline>
</glyph>
<glyph name="comma" format="2">
  <advance width="252"/>
  <unicode hex="002C"/>
  <outline>
    <contour>
      <point x="110" y="-217" type="curve" smooth="yes"/>
      <point x="90" y="-217"/>
      <point x="70" y="-211"/>
      <point x="54" y="-197" type="curve" smooth="yes"/>
      <point x="32" y="-179"/>
      <point x="20" y="-153"/>
      <point x="20" y="-127" type="curve" smooth="yes"/>
      <point x="20" y="-107"/>
      <point x="26" y="-87"/>
      <point x="40" y="-71" type="curve" smooth="yes"/>
      <point x="50" y="-59"/>
      <point x="52" y="-39"/>
      <point x="52" y="-21" type="curve" smooth="yes"/>
      <point x="52" y="1"/>
      <point x="50" y="19"/>
      <point x="46" y="29" type="curve" smooth="yes"/>
      <point x="44" y="37"/>
      <point x="42" y="47"/>
      <point x="42" y="55" type="curve" smooth="yes"/>
      <point x="42" y="95"/>
      <point x="66" y="129"/>
      <point x="106" y="143" type="curve" smooth="yes"/>
      <point x="114" y="145"/>
      <point x="122" y="147"/>
      <point x="132" y="147" type="curve" smooth="yes"/>
      <point x="170" y="147"/>
      <point x="206" y="121"/>
      <point x="218" y="83" type="curve" smooth="yes"/>
      <point x="222" y="75"/>
      <point x="232" y="35"/>
      <point x="232" y="-17" type="curve" smooth="yes"/>
      <point x="232" y="-69"/>
      <point x="222" y="-131"/>
      <point x="180" y="-183" type="curve" smooth="yes"/>
      <point x="162" y="-205"/>
      <point x="136" y="-217"/>
    </contour>
  </outline>
</glyph>
<glyph name="hyphen" format="2">
  <advance width="544"/>
  <unicode hex="002D"/>
  <outline>
    <contour>
      <point x="148" y="515" type="line" smooth="yes"/>
      <point x="239" y="515"/>
      <point x="336" y="537"/>
      <point x="426" y="547" type="curve"/>
      <point x="434" y="547" type="line" smooth="yes"/>
      <point x="480" y="547"/>
      <point x="520" y="513"/>
      <point x="524" y="467" type="curve"/>
      <point x="524" y="457" type="line" smooth="yes"/>
      <point x="524" y="411"/>
      <point x="490" y="373"/>
      <point x="446" y="367" type="curve" smooth="yes"/>
      <point x="414" y="363"/>
      <point x="380" y="356"/>
      <point x="350" y="352" type="curve" smooth="yes"/>
      <point x="286" y="342"/>
      <point x="218" y="335"/>
      <point x="146" y="335" type="curve" smooth="yes"/>
      <point x="104" y="335" type="line"/>
      <point x="58" y="339"/>
      <point x="20" y="379"/>
      <point x="20" y="427" type="curve" smooth="yes"/>
      <point x="20" y="431" type="line"/>
      <point x="22" y="479"/>
      <point x="62" y="515"/>
      <point x="108" y="515" type="curve" smooth="yes"/>
    </contour>
  </outline>
</glyph>
<glyph name="period" format="2">
  <advance width="234"/>
  <unicode hex="002E"/>
  <outline>
    <contour>
      <point x="124" y="-114" type="curve" smooth="yes"/>
      <point x="112" y="-114"/>
      <point x="100" y="-110"/>
      <point x="88" y="-106" type="curve" smooth="yes"/>
      <point x="58" y="-94"/>
      <point x="36" y="-70"/>
      <point x="26" y="-42" type="curve" smooth="yes"/>
      <point x="22" y="-28"/>
      <point x="20" y="-16"/>
      <point x="20" y="-4" type="curve" smooth="yes"/>
      <point x="20" y="24"/>
      <point x="30" y="46"/>
      <point x="34" y="54" type="curve" smooth="yes"/>
      <point x="50" y="86"/>
      <point x="82" y="104"/>
      <point x="116" y="104" type="curve" smooth="yes"/>
      <point x="130" y="104"/>
      <point x="144" y="100"/>
      <point x="156" y="94" type="curve" smooth="yes"/>
      <point x="186" y="78"/>
      <point x="202" y="48"/>
      <point x="204" y="16" type="curve"/>
      <point x="210" y="4"/>
      <point x="214" y="-8"/>
      <point x="214" y="-22" type="curve" smooth="yes"/>
      <point x="214" y="-34"/>
      <point x="210" y="-46"/>
      <point x="206" y="-58" type="curve" smooth="yes"/>
      <point x="192" y="-92"/>
      <point x="158" y="-114"/>
    </contour>
  </outline>
</glyph>
<glyph name="slash" format="2">
  <advance width="438"/>
  <unicode hex="002F"/>
  <outline>
    <contour>
      <point x="110" y="-3" type="curve" smooth="yes"/>
      <point x="98" y="-3"/>
      <point x="86" y="-1"/>
      <point x="74" y="5" type="curve" smooth="yes"/>
      <point x="42" y="19"/>
      <point x="20" y="51"/>
      <point x="20" y="87" type="curve" smooth="yes"/>
      <point x="20" y="99"/>
      <point x="22" y="111"/>
      <point x="28" y="123" type="curve" smooth="yes"/>
      <point x="146" y="399"/>
      <point x="222" y="613"/>
      <point x="242" y="683" type="curve" smooth="yes"/>
      <point x="254" y="723"/>
      <point x="288" y="747"/>
      <point x="328" y="747" type="curve" smooth="yes"/>
      <point x="336" y="747"/>
      <point x="346" y="745"/>
      <point x="354" y="743" type="curve" smooth="yes"/>
      <point x="392" y="731"/>
      <point x="418" y="695"/>
      <point x="418" y="657" type="curve" smooth="yes"/>
      <point x="418" y="647"/>
      <point x="416" y="639"/>
      <point x="414" y="631" type="curve" smooth="yes"/>
      <point x="388" y="541"/>
      <point x="300" y="305"/>
      <point x="192" y="53" type="curve" smooth="yes"/>
      <point x="178" y="17"/>
      <point x="144" y="-3"/>
    </contour>
  </outline>
</glyph>
<glyph name="zero" format="2">
  <advance width="746"/>
  <unicode hex="0030"/>
  <outline>
    <contour>
      <point x="70" y="127" type="curve" smooth="yes"/>
      <point x="34" y="189"/>
      <point x="20" y="251"/>
      <point x="20" y="307" type="curve" smooth="yes"/>
      <point x="20" y="411"/>
      <point x="66" y="501"/>
      <point x="114" y="569" type="curve" smooth="yes"/>
      <point x="138" y="601"/>
      <point x="266" y="755"/>
      <point x="366" y="755" type="curve" smooth="yes"/>
      <point x="396" y="755"/>
      <point x="424" y="743"/>
      <point x="444" y="709" type="curve"/>
      <point x="488" y="707"/>
      <point x="530" y="695"/>
      <point x="568" y="673" type="curve" smooth="yes"/>
      <point x="618" y="645"/>
      <point x="658" y="601"/>
      <point x="686" y="547" type="curve" smooth="yes"/>
      <point x="714" y="495"/>
      <point x="726" y="443"/>
      <point x="726" y="395" type="curve" smooth="yes"/>
      <point x="726" y="289"/>
      <point x="668" y="191"/>
      <point x="584" y="111" type="curve" smooth="yes"/>
      <point x="502" y="35"/>
      <point x="400" y="-11"/>
      <point x="304" y="-11" type="curve" smooth="yes"/>
      <point x="212" y="-11"/>
      <point x="126" y="29"/>
    </contour>
    <contour>
      <point x="278" y="487" type="curve"/>
      <point x="272" y="481"/>
      <point x="268" y="473"/>
      <point x="262" y="465" type="curve" smooth="yes"/>
      <point x="218" y="401"/>
      <point x="198" y="343"/>
      <point x="198" y="323" type="curve" smooth="yes"/>
      <point x="198" y="295"/>
      <point x="206" y="251"/>
      <point x="226" y="215" type="curve" smooth="yes"/>
      <point x="250" y="173"/>
      <point x="276" y="167"/>
      <point x="300" y="167" type="curve" smooth="yes"/>
      <point x="350" y="169"/>
      <point x="412" y="197"/>
      <point x="462" y="243" type="curve" smooth="yes"/>
      <point x="510" y="287"/>
      <point x="544" y="349"/>
      <point x="544" y="407" type="curve" smooth="yes"/>
      <point x="544" y="449"/>
      <point x="526" y="489"/>
      <point x="480" y="517" type="curve" smooth="yes"/>
      <point x="466" y="525"/>
      <point x="452" y="529"/>
      <point x="434" y="529" type="curve" smooth="yes"/>
      <point x="408" y="529"/>
      <point x="380" y="519"/>
      <point x="348" y="499" type="curve" smooth="yes"/>
      <point x="332" y="489"/>
      <point x="316" y="485"/>
      <point x="300" y="485" type="curve" smooth="yes"/>
      <point x="292" y="485"/>
      <point x="286" y="485"/>
    </contour>
  </outline>
</glyph>
<glyph name="one" format="2">
  <advance width="452"/>
  <unicode hex="0031"/>
  <outline>
    <contour>
      <point x="330" y="1" type="curve" smooth="yes"/>
      <point x="282" y="1"/>
      <point x="242" y="39"/>
      <point x="240" y="87" type="curve" smooth="yes"/>
      <point x="240" y="111"/>
      <point x="238" y="137"/>
      <point x="238" y="161" type="curve" smooth="yes"/>
      <point x="238" y="239"/>
      <point x="242" y="317"/>
      <point x="246" y="387" type="curve" smooth="yes"/>
      <point x="248" y="417"/>
      <point x="250" y="449"/>
      <point x="250" y="479" type="curve"/>
      <point x="220" y="461"/>
      <point x="186" y="443"/>
      <point x="148" y="425" type="curve" smooth="yes"/>
      <point x="136" y="419"/>
      <point x="124" y="417"/>
      <point x="112" y="417" type="curve" smooth="yes"/>
      <point x="78" y="417"/>
      <point x="44" y="437"/>
      <point x="28" y="469" type="curve" smooth="yes"/>
      <point x="22" y="481"/>
      <point x="20" y="495"/>
      <point x="20" y="507" type="curve" smooth="yes"/>
      <point x="20" y="541"/>
      <point x="38" y="573"/>
      <point x="72" y="589" type="curve" smooth="yes"/>
      <point x="170" y="635"/>
      <point x="238" y="677"/>
      <point x="270" y="715" type="curve" smooth="yes"/>
      <point x="288" y="735"/>
      <point x="314" y="745"/>
      <point x="340" y="745" type="curve" smooth="yes"/>
      <point x="348" y="745"/>
      <point x="358" y="743"/>
      <point x="366" y="741" type="curve" smooth="yes"/>
      <point x="400" y="729"/>
      <point x="424" y="699"/>
      <point x="428" y="663" type="curve" smooth="yes"/>
      <point x="432" y="629"/>
      <point x="432" y="593"/>
      <point x="432" y="555" type="curve" smooth="yes"/>
      <point x="432" y="499"/>
      <point x="430" y="439"/>
      <point x="426" y="377" type="curve" smooth="yes"/>
      <point x="422" y="307"/>
      <point x="418" y="235"/>
      <point x="418" y="161" type="curve" smooth="yes"/>
      <point x="418" y="139"/>
      <point x="420" y="115"/>
      <point x="420" y="93" type="curve" smooth="yes"/>
      <point x="420" y="91"/>
      <point x="420" y="91"/>
      <point x="420" y="89" type="curve" smooth="yes"/>
      <point x="420" y="41"/>
      <point x="380" y="1"/>
      <point x="334" y="1" type="curve" smooth="yes"/>
      <point x="332" y="1"/>
      <point x="332" y="1"/>
    </contour>
  </outline>
</glyph>
<glyph name="two" format="2">
  <advance width="644"/>
  <unicode hex="0032"/>
  <outline>
    <contour>
      <point x="348" y="10" type="curve" smooth="yes"/>
      <point x="278" y="10"/>
      <point x="212" y="17"/>
      <point x="170" y="38" type="curve" smooth="yes"/>
      <point x="126" y="60"/>
      <point x="108" y="90"/>
      <point x="100" y="112" type="curve" smooth="yes"/>
      <point x="92" y="130"/>
      <point x="88" y="148"/>
      <point x="88" y="170" type="curve" smooth="yes"/>
      <point x="88" y="186"/>
      <point x="90" y="202"/>
      <point x="96" y="220" type="curve" smooth="yes"/>
      <point x="104" y="246"/>
      <point x="118" y="274"/>
      <point x="138" y="310" type="curve" smooth="yes"/>
      <point x="172" y="366"/>
      <point x="232" y="474"/>
      <point x="286" y="548" type="curve" smooth="yes"/>
      <point x="288" y="552"/>
      <point x="290" y="554"/>
      <point x="292" y="556" type="curve"/>
      <point x="264" y="558"/>
      <point x="236" y="560"/>
      <point x="210" y="560" type="curve" smooth="yes"/>
      <point x="170" y="560"/>
      <point x="136" y="558"/>
      <point x="116" y="556" type="curve"/>
      <point x="112" y="556" type="line" smooth="yes"/>
      <point x="64" y="556"/>
      <point x="22" y="594"/>
      <point x="20" y="642" type="curve"/>
      <point x="20" y="646" type="line" smooth="yes"/>
      <point x="20" y="692"/>
      <point x="58" y="734"/>
      <point x="104" y="736" type="curve" smooth="yes"/>
      <point x="144" y="738"/>
      <point x="180" y="740"/>
      <point x="214" y="740" type="curve" smooth="yes"/>
      <point x="334" y="740"/>
      <point x="418" y="726"/>
      <point x="480" y="694" type="curve" smooth="yes"/>
      <point x="509" y="682"/>
      <point x="532" y="654"/>
      <point x="532" y="614" type="curve" smooth="yes"/>
      <point x="532" y="596"/>
      <point x="528" y="578"/>
      <point x="516" y="562" type="curve" smooth="yes"/>
      <point x="455" y="475"/>
      <point x="363" y="329"/>
      <point x="312" y="246" type="curve" smooth="yes"/>
      <point x="298" y="224"/>
      <point x="288" y="206"/>
      <point x="280" y="194" type="curve"/>
      <point x="294" y="192"/>
      <point x="316" y="192"/>
      <point x="344" y="192" type="curve" smooth="yes"/>
      <point x="386" y="192"/>
      <point x="444" y="194"/>
      <point x="526" y="202" type="curve"/>
      <point x="534" y="202" type="line" smooth="yes"/>
      <point x="578" y="202"/>
      <point x="618" y="168"/>
      <point x="624" y="120" type="curve"/>
      <point x="624" y="112" type="line" smooth="yes"/>
      <point x="624" y="68"/>
      <point x="590" y="28"/>
      <point x="544" y="22" type="curve" smooth="yes"/>
      <point x="466" y="14"/>
      <point x="402" y="10"/>
    </contour>
  </outline>
</glyph>
<glyph name="three" format="2">
  <advance width="746"/>
  <unicode hex="0033"/>
  <outline>
    <contour>
      <point x="110" y="522" type="curve" smooth="yes"/>
      <point x="66" y="522"/>
      <point x="20" y="559"/>
      <point x="20" y="614" type="curve" smooth="yes"/>
      <point x="20" y="652"/>
      <point x="46" y="688"/>
      <point x="86" y="700" type="curve" smooth="yes"/>
      <point x="160" y="722"/>
      <point x="252" y="740"/>
      <point x="336" y="740" type="curve" smooth="yes"/>
      <point x="404" y="740"/>
      <point x="468" y="728"/>
      <point x="518" y="696" type="curve" smooth="yes"/>
      <point x="550" y="677"/>
      <point x="562" y="642"/>
      <point x="562" y="594" type="curve" smooth="yes"/>
      <point x="562" y="548"/>
      <point x="548" y="504"/>
      <point x="522" y="464" type="curve"/>
      <point x="556" y="450"/>
      <point x="584" y="434"/>
      <point x="610" y="414" type="curve" smooth="yes"/>
      <point x="670" y="368"/>
      <point x="706" y="308"/>
      <point x="720" y="236" type="curve" smooth="yes"/>
      <point x="724" y="220"/>
      <point x="726" y="204"/>
      <point x="726" y="188" type="curve" smooth="yes"/>
      <point x="726" y="158"/>
      <point x="716" y="128"/>
      <point x="698" y="102" type="curve" smooth="yes"/>
      <point x="654" y="46"/>
      <point x="570" y="20"/>
      <point x="420" y="20" type="curve" smooth="yes"/>
      <point x="364" y="20"/>
      <point x="300" y="24"/>
      <point x="226" y="30" type="curve" smooth="yes"/>
      <point x="178" y="34"/>
      <point x="144" y="74"/>
      <point x="144" y="120" type="curve" smooth="yes"/>
      <point x="144" y="128" type="line"/>
      <point x="148" y="176"/>
      <point x="188" y="210"/>
      <point x="234" y="210" type="curve" smooth="yes"/>
      <point x="242" y="210" type="line"/>
      <point x="314" y="202"/>
      <point x="374" y="200"/>
      <point x="424" y="200" type="curve" smooth="yes"/>
      <point x="466" y="200" type="line"/>
      <point x="504" y="202"/>
      <point x="528" y="206"/>
      <point x="542" y="210" type="curve"/>
      <point x="534" y="242"/>
      <point x="502" y="306"/>
      <point x="330" y="326" type="curve" smooth="yes"/>
      <point x="288" y="333"/>
      <point x="250" y="366"/>
      <point x="250" y="416" type="curve" smooth="yes"/>
      <point x="250" y="446"/>
      <point x="266" y="476"/>
      <point x="292" y="492" type="curve" smooth="yes"/>
      <point x="334" y="520"/>
      <point x="358" y="542"/>
      <point x="370" y="558" type="curve"/>
      <point x="360" y="560"/>
      <point x="348" y="560"/>
      <point x="334" y="560" type="curve" smooth="yes"/>
      <point x="286" y="560"/>
      <point x="222" y="550"/>
      <point x="134" y="526" type="curve" smooth="yes"/>
      <point x="126" y="524"/>
      <point x="118" y="522"/>
    </contour>
  </outline>
</glyph>
<glyph name="four" format="2">
  <advance width="612"/>
  <unicode hex="0034"/>
  <outline>
    <contour>
      <point x="226" y="634" type="line"/>
      <point x="222" y="554"/>
      <point x="204" y="474"/>
      <point x="200" y="400" type="curve"/>
      <point x="216" y="396"/>
      <point x="234" y="396"/>
      <point x="252" y="396" type="curve" smooth="yes"/>
      <point x="294" y="396"/>
      <point x="342" y="404"/>
      <point x="402" y="426" type="curve"/>
      <point x="402" y="508"/>
      <point x="404" y="590"/>
      <point x="406" y="668" type="curve" smooth="yes"/>
      <point x="410" y="716"/>
      <point x="450" y="754"/>
      <point x="498" y="754" type="curve" smooth="yes"/>
      <point x="502" y="754" type="line"/>
      <point x="548" y="752"/>
      <point x="586" y="714"/>
      <point x="586" y="666" type="curve" smooth="yes"/>
      <point x="586" y="664"/>
      <point x="586" y="662"/>
      <point x="586" y="660" type="curve" smooth="yes"/>
      <point x="584" y="602"/>
      <point x="582" y="540"/>
      <point x="582" y="478" type="curve" smooth="yes"/>
      <point x="582" y="360"/>
      <point x="586" y="238"/>
      <point x="590" y="118" type="curve"/>
      <point x="592" y="84" type="line"/>
      <point x="592" y="34"/>
      <point x="554" y="-8"/>
      <point x="504" y="-8" type="curve" smooth="yes"/>
      <point x="502" y="-8" type="line" smooth="yes"/>
      <point x="452" y="-8"/>
      <point x="412" y="30"/>
      <point x="412" y="78" type="curve"/>
      <point x="410" y="112" type="line"/>
      <point x="410" y="154"/>
      <point x="408" y="196"/>
      <point x="406" y="238" type="curve"/>
      <point x="352" y="222"/>
      <point x="302" y="216"/>
      <point x="254" y="216" type="curve" smooth="yes"/>
      <point x="194" y="216"/>
      <point x="138" y="226"/>
      <point x="80" y="248" type="curve" smooth="yes"/>
      <point x="48" y="260"/>
      <point x="26" y="290"/>
      <point x="22" y="324" type="curve" smooth="yes"/>
      <point x="20" y="344"/>
      <point x="20" y="364"/>
      <point x="20" y="382" type="curve" smooth="yes"/>
      <point x="20" y="474"/>
      <point x="38" y="563"/>
      <point x="48" y="650" type="curve" smooth="yes"/>
      <point x="52" y="698"/>
      <point x="92" y="732"/>
      <point x="136" y="732" type="curve" smooth="yes"/>
      <point x="144" y="732" type="line"/>
      <point x="190" y="728"/>
      <point x="226" y="690"/>
      <point x="226" y="644" type="curve" smooth="yes"/>
    </contour>
  </outline>
</glyph>
<glyph name="five" format="2">
  <advance width="702"/>
  <unicode hex="0035"/>
  <outline>
    <contour>
      <point x="592" y="794" type="curve" smooth="yes"/>
      <point x="638" y="794"/>
      <point x="682" y="761"/>
      <point x="682" y="706" type="curve" smooth="yes"/>
      <point x="682" y="666"/>
      <point x="656" y="628"/>
      <point x="616" y="618" type="curve" smooth="yes"/>
      <point x="512" y="592"/>
      <point x="410" y="576"/>
      <point x="306" y="564" type="curve"/>
      <point x="288" y="548"/>
      <point x="274" y="534"/>
      <point x="262" y="522" type="curve"/>
      <point x="344" y="508"/>
      <point x="412" y="490"/>
      <point x="470" y="468" type="curve" smooth="yes"/>
      <point x="568" y="434"/>
      <point x="652" y="377"/>
      <point x="674" y="282" type="curve" smooth="yes"/>
      <point x="674" y="278"/>
      <point x="676" y="274"/>
      <point x="676" y="270" type="curve" smooth="yes"/>
      <point x="676" y="262"/>
      <point x="676" y="254"/>
      <point x="676" y="246" type="curve" smooth="yes"/>
      <point x="676" y="154"/>
      <point x="636" y="100"/>
      <point x="602" y="68" type="curve" smooth="yes"/>
      <point x="550" y="24"/>
      <point x="476" y="2"/>
      <point x="380" y="2" type="curve" smooth="yes"/>
      <point x="308" y="2"/>
      <point x="224" y="14"/>
      <point x="128" y="38" type="curve" smooth="yes"/>
      <point x="75" y="50"/>
      <point x="46" y="108"/>
      <point x="46" y="164" type="curve" smooth="yes"/>
      <point x="46" y="202"/>
      <point x="58" y="240"/>
      <point x="86" y="270" type="curve" smooth="yes"/>
      <point x="104" y="290"/>
      <point x="128" y="298"/>
      <point x="154" y="298" type="curve" smooth="yes"/>
      <point x="176" y="298"/>
      <point x="198" y="292"/>
      <point x="214" y="276" type="curve" smooth="yes"/>
      <point x="232" y="258"/>
      <point x="242" y="232"/>
      <point x="242" y="208" type="curve" smooth="yes"/>
      <point x="242" y="204"/>
      <point x="242" y="200"/>
      <point x="242" y="196" type="curve"/>
      <point x="300" y="186"/>
      <point x="346" y="182"/>
      <point x="380" y="182" type="curve" smooth="yes"/>
      <point x="452" y="182"/>
      <point x="478" y="198"/>
      <point x="484" y="204" type="curve" smooth="yes"/>
      <point x="488" y="208"/>
      <point x="496" y="214"/>
      <point x="496" y="238" type="curve" smooth="yes"/>
      <point x="496" y="240"/>
      <point x="496" y="243"/>
      <point x="496" y="246" type="curve" smooth="yes"/>
      <point x="492" y="254"/>
      <point x="470" y="276"/>
      <point x="406" y="300" type="curve" smooth="yes"/>
      <point x="334" y="328"/>
      <point x="230" y="348"/>
      <point x="100" y="362" type="curve" smooth="yes"/>
      <point x="59" y="365"/>
      <point x="20" y="402"/>
      <point x="20" y="450" type="curve" smooth="yes"/>
      <point x="20" y="460"/>
      <point x="22" y="470"/>
      <point x="24" y="478" type="curve" smooth="yes"/>
      <point x="32" y="504"/>
      <point x="46" y="532"/>
      <point x="64" y="560" type="curve"/>
      <point x="42" y="576"/>
      <point x="26" y="600"/>
      <point x="22" y="630" type="curve"/>
      <point x="22" y="638" type="line" smooth="yes"/>
      <point x="22" y="684"/>
      <point x="58" y="722"/>
      <point x="106" y="726" type="curve" smooth="yes"/>
      <point x="266" y="738"/>
      <point x="420" y="754"/>
      <point x="570" y="792" type="curve" smooth="yes"/>
      <point x="578" y="794"/>
      <point x="586" y="794"/>
    </contour>
  </outline>
</glyph>
<glyph name="six" format="2">
  <advance width="682"/>
  <unicode hex="0036"/>
  <outline>
    <contour>
      <point x="206" y="345" type="curve"/>
      <point x="252" y="430"/>
      <point x="355" y="517"/>
      <point x="468" y="517" type="curve" smooth="yes"/>
      <point x="508" y="517"/>
      <point x="546" y="507"/>
      <point x="580" y="481" type="curve" smooth="yes"/>
      <point x="628" y="449"/>
      <point x="662" y="393"/>
      <point x="662" y="313" type="curve" smooth="yes"/>
      <point x="662" y="245"/>
      <point x="634" y="173"/>
      <point x="588" y="117" type="curve" smooth="yes"/>
      <point x="528" y="45"/>
      <point x="442" y="9"/>
      <point x="356" y="9" type="curve" smooth="yes"/>
      <point x="268" y="9"/>
      <point x="180" y="45"/>
      <point x="118" y="117" type="curve" smooth="yes"/>
      <point x="56" y="189"/>
      <point x="20" y="307"/>
      <point x="20" y="425" type="curve" smooth="yes"/>
      <point x="20" y="515"/>
      <point x="40" y="605"/>
      <point x="86" y="675" type="curve" smooth="yes"/>
      <point x="130" y="747"/>
      <point x="196" y="801"/>
      <point x="276" y="835" type="curve" smooth="yes"/>
      <point x="288" y="839"/>
      <point x="300" y="841"/>
      <point x="310" y="841" type="curve" smooth="yes"/>
      <point x="355" y="841"/>
      <point x="400" y="808"/>
      <point x="400" y="753" type="curve" smooth="yes"/>
      <point x="400" y="717"/>
      <point x="380" y="683"/>
      <point x="346" y="669" type="curve" smooth="yes"/>
      <point x="252" y="629"/>
      <point x="198" y="541"/>
      <point x="196" y="429" type="curve" smooth="yes"/>
      <point x="198" y="399"/>
      <point x="200" y="371"/>
    </contour>
    <contour>
      <point x="342" y="187" type="curve"/>
      <point x="350" y="185"/>
      <point x="360" y="185"/>
      <point x="370" y="185" type="curve" smooth="yes"/>
      <point x="408" y="187"/>
      <point x="436" y="215"/>
      <point x="448" y="229" type="curve" smooth="yes"/>
      <point x="462" y="245"/>
      <point x="482" y="289"/>
      <point x="482" y="317" type="curve" smooth="yes"/>
      <point x="482" y="329"/>
      <point x="476" y="337"/>
      <point x="464" y="337" type="curve" smooth="yes"/>
      <point x="458" y="337"/>
      <point x="448" y="335"/>
      <point x="434" y="327" type="curve" smooth="yes"/>
      <point x="394" y="307"/>
      <point x="352" y="261"/>
      <point x="344" y="201" type="curve" smooth="yes"/>
      <point x="344" y="197"/>
      <point x="342" y="191"/>
    </contour>
  </outline>
</glyph>
<glyph name="seven" format="2">
  <advance width="724"/>
  <unicode hex="0037"/>
  <outline>
    <contour>
      <point x="212" y="531" type="curve" smooth="yes"/>
      <point x="212" y="484"/>
      <point x="175" y="441"/>
      <point x="122" y="441" type="curve" smooth="yes"/>
      <point x="88" y="441"/>
      <point x="58" y="459"/>
      <point x="42" y="491" type="curve" smooth="yes"/>
      <point x="26" y="519"/>
      <point x="20" y="547"/>
      <point x="20" y="575" type="curve" smooth="yes"/>
      <point x="20" y="607"/>
      <point x="28" y="639"/>
      <point x="48" y="667" type="curve" smooth="yes"/>
      <point x="60" y="687"/>
      <point x="80" y="701"/>
      <point x="104" y="707" type="curve" smooth="yes"/>
      <point x="210" y="731"/>
      <point x="270" y="743"/>
      <point x="356" y="743" type="curve" smooth="yes"/>
      <point x="434" y="743"/>
      <point x="522" y="733"/>
      <point x="586" y="715" type="curve" smooth="yes"/>
      <point x="624" y="703"/>
      <point x="650" y="667"/>
      <point x="650" y="629" type="curve" smooth="yes"/>
      <point x="650" y="621"/>
      <point x="650" y="615"/>
      <point x="648" y="607" type="curve" smooth="yes"/>
      <point x="632" y="543"/>
      <point x="628" y="521"/>
      <point x="596" y="441" type="curve"/>
      <point x="600" y="441"/>
      <point x="604" y="443"/>
      <point x="606" y="443" type="curve" smooth="yes"/>
      <point x="614" y="443" type="line" smooth="yes"/>
      <point x="660" y="443"/>
      <point x="700" y="407"/>
      <point x="704" y="361" type="curve"/>
      <point x="704" y="353" type="line" smooth="yes"/>
      <point x="704" y="307"/>
      <point x="668" y="267"/>
      <point x="622" y="263" type="curve" smooth="yes"/>
      <point x="586" y="261"/>
      <point x="550" y="255"/>
      <point x="516" y="249" type="curve"/>
      <point x="486" y="187"/>
      <point x="454" y="119"/>
      <point x="418" y="47" type="curve" smooth="yes"/>
      <point x="402" y="15"/>
      <point x="370" y="-3"/>
      <point x="336" y="-3" type="curve" smooth="yes"/>
      <point x="283" y="-3"/>
      <point x="246" y="44"/>
      <point x="246" y="87" type="curve" smooth="yes"/>
      <point x="246" y="101"/>
      <point x="250" y="115"/>
      <point x="256" y="127" type="curve" smooth="yes"/>
      <point x="266" y="147"/>
      <point x="276" y="167"/>
      <point x="286" y="185" type="curve"/>
      <point x="238" y="185"/>
      <point x="196" y="224"/>
      <point x="196" y="277" type="curve" smooth="yes"/>
      <point x="196" y="309"/>
      <point x="214" y="341"/>
      <point x="246" y="357" type="curve" smooth="yes"/>
      <point x="286" y="377"/>
      <point x="336" y="393"/>
      <point x="388" y="407" type="curve"/>
      <point x="420" y="481"/>
      <point x="426" y="499"/>
      <point x="446" y="559" type="curve"/>
      <point x="422" y="561"/>
      <point x="380" y="563"/>
      <point x="354" y="563" type="curve" smooth="yes"/>
      <point x="298" y="563"/>
      <point x="276" y="557"/>
      <point x="210" y="545" type="curve"/>
      <point x="210" y="541"/>
      <point x="212" y="535"/>
    </contour>
  </outline>
</glyph>
<glyph name="eight" format="2">
  <advance width="686"/>
  <unicode hex="0038"/>
  <outline>
    <contour>
      <point x="376" y="-9" type="curve" smooth="yes"/>
      <point x="256" y="-9"/>
      <point x="134" y="40"/>
      <point x="134" y="159" type="curve" smooth="yes"/>
      <point x="134" y="255"/>
      <point x="226" y="353"/>
      <point x="284" y="403" type="curve"/>
      <point x="250" y="425"/>
      <point x="200" y="451"/>
      <point x="158" y="477" type="curve" smooth="yes"/>
      <point x="146" y="483"/>
      <point x="136" y="493"/>
      <point x="130" y="505" type="curve"/>
      <point x="122" y="503"/>
      <point x="116" y="503"/>
      <point x="108" y="503" type="curve" smooth="yes"/>
      <point x="63" y="503"/>
      <point x="20" y="537"/>
      <point x="20" y="591" type="curve" smooth="yes"/>
      <point x="20" y="625"/>
      <point x="40" y="659"/>
      <point x="72" y="673" type="curve" smooth="yes"/>
      <point x="178" y="723"/>
      <point x="264" y="747"/>
      <point x="344" y="751" type="curve" smooth="yes"/>
      <point x="354" y="751"/>
      <point x="364" y="753"/>
      <point x="376" y="753" type="curve" smooth="yes"/>
      <point x="482" y="753"/>
      <point x="652" y="697"/>
      <point x="652" y="567" type="curve" smooth="yes"/>
      <point x="652" y="553"/>
      <point x="650" y="539"/>
      <point x="644" y="523" type="curve" smooth="yes"/>
      <point x="638" y="495"/>
      <point x="622" y="465"/>
      <point x="600" y="437" type="curve" smooth="yes"/>
      <point x="590" y="425"/>
      <point x="580" y="415"/>
      <point x="570" y="403" type="curve"/>
      <point x="632" y="343"/>
      <point x="666" y="277"/>
      <point x="666" y="213" type="curve" smooth="yes"/>
      <point x="666" y="155"/>
      <point x="640" y="99"/>
      <point x="578" y="51" type="curve" smooth="yes"/>
      <point x="526" y="11"/>
      <point x="450" y="-9"/>
    </contour>
    <contour>
      <point x="318" y="177" type="curve"/>
      <point x="332" y="173"/>
      <point x="358" y="169"/>
      <point x="402" y="167" type="curve" smooth="yes"/>
      <point x="446" y="169"/>
      <point x="484" y="199"/>
      <point x="486" y="223" type="curve" smooth="yes"/>
      <point x="486" y="225"/>
      <point x="480" y="241"/>
      <point x="436" y="281" type="curve" smooth="yes"/>
      <point x="432" y="285"/>
      <point x="428" y="289"/>
      <point x="424" y="293" type="curve"/>
      <point x="362" y="249"/>
      <point x="328" y="211"/>
    </contour>
    <contour>
      <point x="344" y="571" type="curve"/>
      <point x="374" y="551"/>
      <point x="402" y="533"/>
      <point x="428" y="517" type="curve"/>
      <point x="442" y="529"/>
      <point x="452" y="541"/>
      <point x="460" y="551" type="curve"/>
      <point x="440" y="563"/>
      <point x="412" y="573"/>
      <point x="374" y="573" type="curve" smooth="yes"/>
      <point x="364" y="573"/>
      <point x="354" y="573"/>
    </contour>
  </outline>
</glyph>
<glyph name="nine" format="2">
  <advance width="584"/>
  <unicode hex="0039"/>
  <outline>
    <contour>
      <point x="460" y="11" type="curve" smooth="yes"/>
      <point x="456" y="11"/>
      <point x="454" y="11"/>
      <point x="452" y="13" type="curve" smooth="yes"/>
      <point x="404" y="17"/>
      <point x="370" y="57"/>
      <point x="370" y="101" type="curve" smooth="yes"/>
      <point x="370" y="109" type="line"/>
      <point x="374" y="173"/>
      <point x="378" y="231"/>
      <point x="382" y="281" type="curve"/>
      <point x="338" y="273"/>
      <point x="300" y="267"/>
      <point x="264" y="267" type="curve" smooth="yes"/>
      <point x="226" y="267"/>
      <point x="190" y="273"/>
      <point x="158" y="283" type="curve"/>
      <point x="154" y="283" type="line"/>
      <point x="84" y="309"/>
      <point x="52" y="355"/>
      <point x="38" y="389" type="curve" smooth="yes"/>
      <point x="22" y="425"/>
      <point x="20" y="463"/>
      <point x="20" y="497" type="curve" smooth="yes"/>
      <point x="20" y="557"/>
      <point x="52" y="619"/>
      <point x="106" y="665" type="curve" smooth="yes"/>
      <point x="162" y="713"/>
      <point x="232" y="739"/>
      <point x="306" y="739" type="curve" smooth="yes"/>
      <point x="308" y="739"/>
      <point x="310" y="739"/>
      <point x="312" y="739" type="curve" smooth="yes"/>
      <point x="388" y="733"/>
      <point x="446" y="709"/>
      <point x="488" y="667" type="curve" smooth="yes"/>
      <point x="526" y="629"/>
      <point x="542" y="585"/>
      <point x="552" y="547" type="curve" smooth="yes"/>
      <point x="552" y="545"/>
      <point x="552" y="541"/>
      <point x="554" y="539" type="curve" smooth="yes"/>
      <point x="562" y="501"/>
      <point x="564" y="453"/>
      <point x="564" y="391" type="curve" smooth="yes"/>
      <point x="564" y="315"/>
      <point x="560" y="217"/>
      <point x="548" y="95" type="curve" smooth="yes"/>
      <point x="544" y="47"/>
      <point x="506" y="11"/>
    </contour>
    <contour>
      <point x="212" y="455" type="curve" smooth="yes"/>
      <point x="226" y="451"/>
      <point x="242" y="447"/>
      <point x="266" y="447" type="curve" smooth="yes"/>
      <point x="294" y="447"/>
      <point x="330" y="453"/>
      <point x="382" y="465" type="curve"/>
      <point x="378" y="492"/>
      <point x="375" y="526"/>
      <point x="360" y="541" type="curve" smooth="yes"/>
      <point x="350" y="549"/>
      <point x="330" y="557"/>
      <point x="302" y="559" type="curve" smooth="yes"/>
      <point x="264" y="559"/>
      <point x="238" y="541"/>
      <point x="226" y="531" type="curve" smooth="yes"/>
      <point x="208" y="515"/>
      <point x="200" y="499"/>
      <point x="200" y="493" type="curve" smooth="yes"/>
      <point x="200" y="481"/>
      <point x="200" y="465"/>
      <point x="202" y="459" type="curve" smooth="yes"/>
      <point x="204" y="459"/>
      <point x="206" y="457"/>
    </contour>
  </outline>
</glyph>
<glyph name="colon" format="2">
  <advance width="310"/>
  <unicode hex="003A"/>
  <outline>
    <contour>
      <point x="144" y="512" type="curve" smooth="yes"/>
      <point x="189" y="512"/>
      <point x="234" y="478"/>
      <point x="234" y="424" type="curve" smooth="yes"/>
      <point x="234" y="384"/>
      <point x="210" y="350"/>
      <point x="172" y="336" type="curve"/>
      <point x="138" y="326" type="line" smooth="yes"/>
      <point x="128" y="324"/>
      <point x="120" y="322"/>
      <point x="110" y="322" type="curve" smooth="yes"/>
      <point x="65" y="322"/>
      <point x="20" y="356"/>
      <point x="20" y="410" type="curve" smooth="yes"/>
      <point x="20" y="450"/>
      <point x="44" y="484"/>
      <point x="82" y="498" type="curve"/>
      <point x="116" y="508" type="line"/>
      <point x="126" y="512"/>
      <point x="136" y="512"/>
    </contour>
    <contour>
      <point x="290" y="100" type="curve" smooth="yes"/>
      <point x="290" y="55"/>
      <point x="252" y="10"/>
      <point x="200" y="10" type="curve" smooth="yes"/>
      <point x="164" y="10"/>
      <point x="132" y="30"/>
      <point x="116" y="64" type="curve"/>
      <point x="102" y="96" type="line" smooth="yes"/>
      <point x="96" y="108"/>
      <point x="94" y="118"/>
      <point x="94" y="130" type="curve" smooth="yes"/>
      <point x="94" y="166"/>
      <point x="116" y="200"/>
      <point x="150" y="214" type="curve" smooth="yes"/>
      <point x="162" y="220"/>
      <point x="172" y="222"/>
      <point x="184" y="222" type="curve" smooth="yes"/>
      <point x="220" y="222"/>
      <point x="254" y="200"/>
      <point x="268" y="168" type="curve" smooth="yes"/>
      <point x="282" y="136" type="line" smooth="yes"/>
      <point x="288" y="124"/>
      <point x="290" y="112"/>
    </contour>
  </outline>
</glyph>
<glyph name="semicolon" format="2">
  <advance width="320"/>
  <unicode hex="003B"/>
  <unicode hex="037E"/>
  <outline>
    <contour>
      <point x="196" y="551" type="curve" smooth="yes"/>
      <point x="260" y="551"/>
      <point x="298" y="491"/>
      <point x="298" y="437" type="curve" smooth="yes"/>
      <point x="298" y="433"/>
      <point x="298" y="429"/>
      <point x="298" y="425" type="curve" smooth="yes"/>
      <point x="292" y="371"/>
      <point x="252" y="323"/>
      <point x="204" y="307" type="curve" smooth="yes"/>
      <point x="194" y="305"/>
      <point x="184" y="303"/>
      <point x="176" y="303" type="curve" smooth="yes"/>
      <point x="130" y="303"/>
      <point x="86" y="337"/>
      <point x="86" y="393" type="curve" smooth="yes"/>
      <point x="86" y="413"/>
      <point x="94" y="435"/>
      <point x="106" y="451" type="curve"/>
      <point x="106" y="454"/>
      <point x="106" y="457"/>
      <point x="106" y="460" type="curve" smooth="yes"/>
      <point x="106" y="512"/>
      <point x="153" y="551"/>
    </contour>
    <contour>
      <point x="152" y="383" type="line"/>
    </contour>
    <contour>
      <point x="110" y="-241" type="curve" smooth="yes"/>
      <point x="86" y="-241"/>
      <point x="62" y="-231"/>
      <point x="44" y="-213" type="curve" smooth="yes"/>
      <point x="28" y="-195"/>
      <point x="20" y="-173"/>
      <point x="20" y="-151" type="curve" smooth="yes"/>
      <point x="20" y="-127"/>
      <point x="30" y="-103"/>
      <point x="48" y="-85" type="curve" smooth="yes"/>
      <point x="60" y="-75"/>
      <point x="80" y="-47"/>
      <point x="96" y="-1" type="curve" smooth="yes"/>
      <point x="112" y="37"/>
      <point x="120" y="79"/>
      <point x="120" y="105" type="curve" smooth="yes"/>
      <point x="120" y="107"/>
      <point x="120" y="107"/>
      <point x="120" y="109" type="curve" smooth="yes"/>
      <point x="120" y="157"/>
      <point x="160" y="195"/>
      <point x="208" y="197" type="curve" smooth="yes"/>
      <point x="208" y="197"/>
      <point x="208" y="197"/>
      <point x="210" y="197" type="curve" smooth="yes"/>
      <point x="258" y="197"/>
      <point x="298" y="157"/>
      <point x="300" y="109" type="curve" smooth="yes"/>
      <point x="300" y="41"/>
      <point x="278" y="-29"/>
      <point x="264" y="-65" type="curve" smooth="yes"/>
      <point x="250" y="-103"/>
      <point x="220" y="-173"/>
      <point x="172" y="-217" type="curve" smooth="yes"/>
      <point x="154" y="-233"/>
      <point x="132" y="-241"/>
    </contour>
  </outline>
</glyph>
<glyph name="less" format="2">
  <advance width="586"/>
  <unicode hex="003C"/>
  <outline>
    <contour>
      <point x="566" y="104" type="curve" smooth="yes"/>
      <point x="566" y="49"/>
      <point x="523" y="14"/>
      <point x="478" y="14" type="curve" smooth="yes"/>
      <point x="468" y="14"/>
      <point x="458" y="16"/>
      <point x="448" y="20" type="curve" smooth="yes"/>
      <point x="354" y="52"/>
      <point x="226" y="152"/>
      <point x="46" y="336" type="curve" smooth="yes"/>
      <point x="28" y="354"/>
      <point x="20" y="376"/>
      <point x="20" y="398" type="curve" smooth="yes"/>
      <point x="20" y="420"/>
      <point x="28" y="442"/>
      <point x="44" y="460" type="curve" smooth="yes"/>
      <point x="142" y="568"/>
      <point x="230" y="646"/>
      <point x="340" y="720" type="curve" smooth="yes"/>
      <point x="356" y="730"/>
      <point x="374" y="736"/>
      <point x="390" y="736" type="curve" smooth="yes"/>
      <point x="418" y="736"/>
      <point x="446" y="722"/>
      <point x="464" y="698" type="curve" smooth="yes"/>
      <point x="474" y="682"/>
      <point x="480" y="664"/>
      <point x="480" y="646" type="curve" smooth="yes"/>
      <point x="480" y="618"/>
      <point x="466" y="590"/>
      <point x="442" y="572" type="curve" smooth="yes"/>
      <point x="364" y="520"/>
      <point x="302" y="468"/>
      <point x="236" y="400" type="curve"/>
      <point x="398" y="244"/>
      <point x="474" y="200"/>
      <point x="508" y="190" type="curve" smooth="yes"/>
      <point x="544" y="178"/>
      <point x="566" y="142"/>
    </contour>
  </outline>
</glyph>
<glyph name="equal" format="2">
  <advance width="552"/>
  <unicode hex="003D"/>
  <outline>
    <contour>
      <point x="442" y="620" type="curve" smooth="yes"/>
      <point x="486" y="620"/>
      <point x="532" y="584"/>
      <point x="532" y="530" type="curve" smooth="yes"/>
      <point x="532" y="490"/>
      <point x="508" y="456"/>
      <point x="468" y="444" type="curve" smooth="yes"/>
      <point x="440" y="436"/>
      <point x="394" y="436"/>
      <point x="282" y="434" type="curve" smooth="yes"/>
      <point x="228" y="434"/>
      <point x="146" y="434"/>
      <point x="126" y="430" type="curve" smooth="yes"/>
      <point x="120" y="428"/>
      <point x="116" y="428"/>
      <point x="110" y="428" type="curve" smooth="yes"/>
      <point x="63" y="428"/>
      <point x="20" y="465"/>
      <point x="20" y="520" type="curve" smooth="yes"/>
      <point x="20" y="562"/>
      <point x="50" y="598"/>
      <point x="94" y="606" type="curve" smooth="yes"/>
      <point x="128" y="614"/>
      <point x="186" y="614"/>
      <point x="280" y="614" type="curve" smooth="yes"/>
      <point x="328" y="614"/>
      <point x="402" y="616"/>
      <point x="420" y="618" type="curve" smooth="yes"/>
      <point x="428" y="620"/>
      <point x="434" y="620"/>
    </contour>
    <contour>
      <point x="416" y="618" type="line"/>
    </contour>
    <contour>
      <point x="422" y="618" type="line"/>
    </contour>
    <contour>
      <point x="424" y="366" type="curve" smooth="yes"/>
      <point x="469" y="366"/>
      <point x="512" y="331"/>
      <point x="512" y="276" type="curve" smooth="yes"/>
      <point x="512" y="238"/>
      <point x="490" y="204"/>
      <point x="452" y="190" type="curve" smooth="yes"/>
      <point x="382" y="166"/>
      <point x="186" y="156"/>
      <point x="126" y="154" type="curve"/>
      <point x="122" y="154" type="line" smooth="yes"/>
      <point x="74" y="154"/>
      <point x="36" y="192"/>
      <point x="34" y="240" type="curve"/>
      <point x="34" y="244" type="line" smooth="yes"/>
      <point x="34" y="292"/>
      <point x="72" y="332"/>
      <point x="120" y="334" type="curve" smooth="yes"/>
      <point x="228" y="338"/>
      <point x="364" y="350"/>
      <point x="394" y="360" type="curve" smooth="yes"/>
      <point x="404" y="364"/>
      <point x="414" y="366"/>
    </contour>
  </outline>
</glyph>
<glyph name="greater" format="2">
  <advance width="728"/>
  <unicode hex="003E"/>
  <outline>
    <contour>
      <point x="20" y="736" type="curve" smooth="yes"/>
      <point x="20" y="788"/>
      <point x="66" y="828"/>
      <point x="110" y="828" type="curve" smooth="yes"/>
      <point x="126" y="828"/>
      <point x="142" y="822"/>
      <point x="158" y="814" type="curve" smooth="yes"/>
      <point x="314" y="715"/>
      <point x="495" y="667"/>
      <point x="660" y="572" type="curve" smooth="yes"/>
      <point x="684" y="560"/>
      <point x="700" y="538"/>
      <point x="706" y="512" type="curve" smooth="yes"/>
      <point x="706" y="506"/>
      <point x="708" y="502"/>
      <point x="708" y="496" type="curve" smooth="yes"/>
      <point x="708" y="476"/>
      <point x="700" y="454"/>
      <point x="688" y="438" type="curve" smooth="yes"/>
      <point x="640" y="378"/>
      <point x="584" y="328"/>
      <point x="526" y="274" type="curve" smooth="yes"/>
      <point x="452" y="208"/>
      <point x="378" y="140"/>
      <point x="316" y="48" type="curve" smooth="yes"/>
      <point x="298" y="22"/>
      <point x="270" y="10"/>
      <point x="242" y="10" type="curve" smooth="yes"/>
      <point x="224" y="10"/>
      <point x="206" y="14"/>
      <point x="190" y="24" type="curve" smooth="yes"/>
      <point x="166" y="42"/>
      <point x="152" y="70"/>
      <point x="152" y="98" type="curve" smooth="yes"/>
      <point x="152" y="116"/>
      <point x="158" y="134"/>
      <point x="168" y="150" type="curve" smooth="yes"/>
      <point x="240" y="258"/>
      <point x="328" y="338"/>
      <point x="404" y="408" type="curve" smooth="yes"/>
      <point x="426" y="428"/>
      <point x="448" y="448"/>
      <point x="470" y="468" type="curve"/>
      <point x="327" y="529"/>
      <point x="197" y="577"/>
      <point x="62" y="660" type="curve" smooth="yes"/>
      <point x="34" y="676"/>
      <point x="20" y="706"/>
    </contour>
  </outline>
</glyph>
<glyph name="question" format="2">
  <advance width="654"/>
  <unicode hex="003F"/>
  <outline>
    <contour>
      <point x="532" y="340" type="curve"/>
      <point x="544" y="340" type="line" smooth="yes"/>
      <point x="590" y="340"/>
      <point x="630" y="304"/>
      <point x="634" y="258" type="curve"/>
      <point x="634" y="250" type="line" smooth="yes"/>
      <point x="634" y="204"/>
      <point x="600" y="164"/>
      <point x="552" y="160" type="curve"/>
      <point x="548" y="160" type="line"/>
      <point x="488" y="154"/>
      <point x="436" y="150"/>
      <point x="388" y="150" type="curve" smooth="yes"/>
      <point x="364" y="150"/>
      <point x="344" y="152"/>
      <point x="324" y="154" type="curve" smooth="yes"/>
      <point x="204" y="168"/>
      <point x="160" y="232"/>
      <point x="144" y="284" type="curve" smooth="yes"/>
      <point x="142" y="292"/>
      <point x="141" y="300"/>
      <point x="141" y="308" type="curve" smooth="yes"/>
      <point x="141" y="314"/>
      <point x="141" y="319"/>
      <point x="142" y="324" type="curve" smooth="yes"/>
      <point x="152" y="394"/>
      <point x="212" y="478"/>
      <point x="302" y="596" type="curve" smooth="yes"/>
      <point x="318" y="618"/>
      <point x="338" y="646"/>
      <point x="356" y="670" type="curve"/>
      <point x="342" y="674"/>
      <point x="324" y="678"/>
      <point x="302" y="680" type="curve" smooth="yes"/>
      <point x="250" y="688"/>
      <point x="184" y="692"/>
      <point x="110" y="694" type="curve" smooth="yes"/>
      <point x="60" y="694"/>
      <point x="20" y="734"/>
      <point x="20" y="784" type="curve" smooth="yes"/>
      <point x="20" y="834"/>
      <point x="62" y="874"/>
      <point x="110" y="874" type="curve" smooth="yes"/>
      <point x="210" y="872"/>
      <point x="294" y="866"/>
      <point x="360" y="854" type="curve" smooth="yes"/>
      <point x="432" y="842"/>
      <point x="530" y="814"/>
      <point x="560" y="736" type="curve" smooth="yes"/>
      <point x="565" y="724"/>
      <point x="568" y="712"/>
      <point x="568" y="701" type="curve" smooth="yes"/>
      <point x="568" y="695"/>
      <point x="567" y="689"/>
      <point x="566" y="684" type="curve" smooth="yes"/>
      <point x="556" y="636"/>
      <point x="518" y="584"/>
      <point x="446" y="488" type="curve" smooth="yes"/>
      <point x="414" y="448"/>
      <point x="384" y="406"/>
      <point x="358" y="368" type="curve" smooth="yes"/>
      <point x="350" y="354"/>
      <point x="342" y="342"/>
      <point x="336" y="334" type="curve"/>
      <point x="346" y="332"/>
      <point x="358" y="330"/>
      <point x="376" y="330" type="curve" smooth="yes"/>
      <point x="418" y="330"/>
      <point x="474" y="334"/>
    </contour>
    <contour>
      <point x="374" y="102" type="curve" smooth="yes"/>
      <point x="420" y="102"/>
      <point x="464" y="65"/>
      <point x="464" y="12" type="curve" smooth="yes"/>
      <point x="464" y="-20"/>
      <point x="446" y="-50"/>
      <point x="418" y="-66" type="curve" smooth="yes"/>
      <point x="362" y="-98" type="line" smooth="yes"/>
      <point x="348" y="-106"/>
      <point x="332" y="-108"/>
      <point x="318" y="-108" type="curve" smooth="yes"/>
      <point x="272" y="-108"/>
      <point x="228" y="-71"/>
      <point x="228" y="-18" type="curve" smooth="yes"/>
      <point x="228" y="14"/>
      <point x="246" y="44"/>
      <point x="274" y="60" type="curve" smooth="yes"/>
      <point x="330" y="90" type="line" smooth="yes"/>
      <point x="344" y="98"/>
      <point x="360" y="102"/>
    </contour>
  </outline>
</glyph>
<glyph name="at" format="2">
  <advance width="894"/>
  <unicode hex="0040"/>
  <outline>
    <contour>
      <point x="738" y="108" type="curve" smooth="yes"/>
      <point x="792" y="108"/>
      <point x="830" y="63"/>
      <point x="830" y="18" type="curve" smooth="yes"/>
      <point x="830" y="4"/>
      <point x="826" y="-10"/>
      <point x="820" y="-22" type="curve" smooth="yes"/>
      <point x="763" y="-129"/>
      <point x="637" y="-166"/>
      <point x="460" y="-166" type="curve" smooth="yes"/>
      <point x="452" y="-166"/>
      <point x="446" y="-166"/>
      <point x="438" y="-164" type="curve" smooth="yes"/>
      <point x="372" y="-164"/>
      <point x="310" y="-150"/>
      <point x="256" y="-120" type="curve" smooth="yes"/>
      <point x="204" y="-94"/>
      <point x="158" y="-56"/>
      <point x="122" y="-8" type="curve" smooth="yes"/>
      <point x="56" y="78"/>
      <point x="20" y="192"/>
      <point x="20" y="312" type="curve" smooth="yes"/>
      <point x="20" y="322" type="line"/>
      <point x="22" y="436"/>
      <point x="68" y="540"/>
      <point x="152" y="618" type="curve" smooth="yes"/>
      <point x="227" y="685"/>
      <point x="338" y="736"/>
      <point x="474" y="736" type="curve" smooth="yes"/>
      <point x="490" y="736" type="line" smooth="yes"/>
      <point x="584" y="736"/>
      <point x="664" y="720"/>
      <point x="726" y="688" type="curve" smooth="yes"/>
      <point x="824" y="640"/>
      <point x="858" y="570"/>
      <point x="866" y="520" type="curve" smooth="yes"/>
      <point x="868" y="520"/>
      <point x="868" y="518"/>
      <point x="868" y="518" type="curve"/>
      <point x="872" y="490"/>
      <point x="874" y="464"/>
      <point x="874" y="438" type="curve" smooth="yes"/>
      <point x="874" y="358"/>
      <point x="852" y="288"/>
      <point x="810" y="240" type="curve" smooth="yes"/>
      <point x="788" y="214"/>
      <point x="752" y="186"/>
      <point x="700" y="172" type="curve"/>
      <point x="679" y="130"/>
      <point x="646" y="99"/>
      <point x="602" y="80" type="curve" smooth="yes"/>
      <point x="552" y="56"/>
      <point x="500" y="50"/>
      <point x="464" y="50" type="curve" smooth="yes"/>
      <point x="450" y="50" type="line" smooth="yes"/>
      <point x="340" y="50"/>
      <point x="266" y="132"/>
      <point x="266" y="254" type="curve" smooth="yes"/>
      <point x="266" y="258" type="line"/>
      <point x="268" y="314"/>
      <point x="284" y="372"/>
      <point x="312" y="416" type="curve" smooth="yes"/>
      <point x="350" y="478"/>
      <point x="408" y="514"/>
      <point x="472" y="514" type="curve" smooth="yes"/>
      <point x="474" y="514" type="line" smooth="yes"/>
      <point x="520" y="514"/>
      <point x="560" y="500"/>
      <point x="588" y="472" type="curve" smooth="yes"/>
      <point x="606" y="454"/>
      <point x="626" y="422"/>
      <point x="626" y="370" type="curve" smooth="yes"/>
      <point x="626" y="360"/>
      <point x="624" y="352"/>
      <point x="620" y="342" type="curve"/>
      <point x="624" y="342"/>
      <point x="628" y="344"/>
      <point x="632" y="344" type="curve" smooth="yes"/>
      <point x="635" y="344"/>
      <point x="637" y="344"/>
      <point x="639" y="344" type="curve" smooth="yes"/>
      <point x="663" y="344"/>
      <point x="670" y="353"/>
      <point x="674" y="358" type="curve" smooth="yes"/>
      <point x="684" y="370"/>
      <point x="694" y="398"/>
      <point x="694" y="438" type="curve" smooth="yes"/>
      <point x="694" y="452"/>
      <point x="692" y="468"/>
      <point x="690" y="486" type="curve" smooth="yes"/>
      <point x="686" y="504"/>
      <point x="664" y="518"/>
      <point x="648" y="526" type="curve" smooth="yes"/>
      <point x="610" y="546"/>
      <point x="552" y="556"/>
      <point x="488" y="556" type="curve" smooth="yes"/>
      <point x="478" y="556" type="line" smooth="yes"/>
      <point x="330" y="556"/>
      <point x="200" y="464"/>
      <point x="200" y="320" type="curve" smooth="yes"/>
      <point x="200" y="310" type="line" smooth="yes"/>
      <point x="200" y="154"/>
      <point x="288" y="16"/>
      <point x="440" y="16" type="curve" smooth="yes"/>
      <point x="450" y="16"/>
      <point x="460" y="16"/>
      <point x="470" y="16" type="curve" smooth="yes"/>
      <point x="614" y="16"/>
      <point x="650" y="44"/>
      <point x="660" y="60" type="curve" smooth="yes"/>
      <point x="676" y="90"/>
      <point x="706" y="108"/>
    </contour>
    <contour>
      <point x="464" y="230" type="line" smooth="yes"/>
      <point x="488" y="230"/>
      <point x="540" y="238"/>
      <point x="540" y="256" type="curve" smooth="yes"/>
      <point x="540" y="266"/>
      <point x="542" y="274"/>
      <point x="544" y="282" type="curve"/>
      <point x="534" y="282" type="line" smooth="yes"/>
      <point x="504" y="282"/>
      <point x="478" y="298"/>
      <point x="462" y="318" type="curve"/>
      <point x="454" y="304"/>
      <point x="446" y="280"/>
      <point x="446" y="256" type="curve" smooth="yes"/>
      <point x="446" y="242"/>
      <point x="448" y="234"/>
      <point x="450" y="230" type="curve"/>
    </contour>
  </outline>
</glyph>
<glyph name="A" format="2">
  <advance width="788"/>
  <unicode hex="0041"/>
  <unicode hex="0410"/>
  <unicode hex="0391"/>
  <anchor x="400" y="44" name="bottom"/>
  <anchor x="362" y="753" name="top"/>
  <outline>
    <contour>
      <point x="284" y="667" type="line" smooth="yes"/>
      <point x="284" y="715"/>
      <point x="319" y="757"/>
      <point x="374" y="757" type="curve" smooth="yes"/>
      <point x="406" y="757"/>
      <point x="436" y="741"/>
      <point x="452" y="711" type="curve" smooth="yes"/>
      <point x="756" y="176" type="line" smooth="yes"/>
      <point x="764" y="162"/>
      <point x="768" y="148"/>
      <point x="768" y="132" type="curve" smooth="yes"/>
      <point x="768" y="87"/>
      <point x="729" y="42"/>
      <point x="676" y="42" type="curve" smooth="yes"/>
      <point x="644" y="42"/>
      <point x="614" y="60"/>
      <point x="598" y="88" type="curve" smooth="yes"/>
      <point x="530" y="212" type="line"/>
      <point x="274" y="184" type="line"/>
      <point x="264" y="166"/>
      <point x="254" y="150"/>
      <point x="246" y="134" type="curve" smooth="yes"/>
      <point x="196" y="46"/>
      <point x="176" y="30"/>
      <point x="158" y="18" type="curve" smooth="yes"/>
      <point x="144" y="8"/>
      <point x="126" y="4"/>
      <point x="110" y="4" type="curve" smooth="yes"/>
      <point x="65" y="4"/>
      <point x="20" y="41"/>
      <point x="20" y="94" type="curve" smooth="yes"/>
      <point x="20" y="120"/>
      <point x="32" y="144"/>
      <point x="52" y="162" type="curve" smooth="yes"/>
      <point x="64" y="174"/>
      <point x="92" y="226"/>
      <point x="128" y="294" type="curve" smooth="yes"/>
      <point x="132" y="302"/>
      <point x="138" y="312"/>
      <point x="142" y="322" type="curve" smooth="yes"/>
      <point x="152" y="350"/>
      <point x="168" y="376"/>
      <point x="182" y="408" type="curve" smooth="yes"/>
      <point x="250" y="562"/>
      <point x="284" y="618"/>
      <point x="284" y="655" type="curve" smooth="yes"/>
    </contour>
    <contour>
      <point x="374" y="376" type="curve"/>
      <point x="436" y="384" type="line"/>
      <point x="396" y="452" type="line"/>
      <point x="388" y="428"/>
      <point x="384" y="402"/>
    </contour>
  </outline>
</glyph>
<glyph name="B" format="2">
  <advance width="850"/>
  <unicode hex="0042"/>
  <unicode hex="0412"/>
  <unicode hex="0392"/>
  <outline>
    <contour>
      <point x="698" y="579" type="curve" smooth="yes"/>
      <point x="698" y="499"/>
      <point x="665" y="487"/>
      <point x="612" y="437" type="curve"/>
      <point x="636" y="431"/>
      <point x="658" y="421"/>
      <point x="676" y="411" type="curve" smooth="yes"/>
      <point x="766" y="363"/>
      <point x="820" y="291"/>
      <point x="828" y="205" type="curve"/>
      <point x="828" y="203" type="line"/>
      <point x="830" y="191"/>
      <point x="830" y="179"/>
      <point x="830" y="167" type="curve" smooth="yes"/>
      <point x="830" y="77"/>
      <point x="800" y="18"/>
      <point x="748" y="-21" type="curve" smooth="yes"/>
      <point x="712" y="-47"/>
      <point x="668" y="-59"/>
      <point x="616" y="-59" type="curve" smooth="yes"/>
      <point x="556" y="-59"/>
      <point x="486" y="-43"/>
      <point x="402" y="-9" type="curve" smooth="yes"/>
      <point x="390" y="-3"/>
      <point x="380" y="5"/>
      <point x="370" y="13" type="curve"/>
      <point x="355" y="-2"/>
      <point x="334" y="-13"/>
      <point x="306" y="-13" type="curve" smooth="yes"/>
      <point x="268" y="-13"/>
      <point x="232" y="11"/>
      <point x="220" y="49" type="curve" smooth="yes"/>
      <point x="218" y="53"/>
      <point x="72" y="481"/>
      <point x="24" y="619" type="curve" smooth="yes"/>
      <point x="22" y="627"/>
      <point x="20" y="637"/>
      <point x="20" y="647" type="curve" smooth="yes"/>
      <point x="20" y="694"/>
      <point x="55" y="731"/>
      <point x="96" y="737" type="curve" smooth="yes"/>
      <point x="100" y="739"/>
      <point x="208" y="755"/>
      <point x="322" y="765" type="curve" smooth="yes"/>
      <point x="372" y="769"/>
      <point x="418" y="771"/>
      <point x="456" y="771" type="curve" smooth="yes"/>
      <point x="492" y="771" type="line"/>
      <point x="550" y="769"/>
      <point x="612" y="761"/>
      <point x="646" y="713" type="curve"/>
      <point x="686" y="665"/>
      <point x="698" y="617"/>
    </contour>
    <contour>
      <point x="436" y="165" type="curve" smooth="yes"/>
      <point x="448" y="165"/>
      <point x="460" y="163"/>
      <point x="470" y="157" type="curve" smooth="yes"/>
      <point x="542" y="127"/>
      <point x="588" y="121"/>
      <point x="616" y="121" type="curve" smooth="yes"/>
      <point x="630" y="121"/>
      <point x="640" y="123"/>
      <point x="642" y="125" type="curve" smooth="yes"/>
      <point x="644" y="127"/>
      <point x="649" y="137"/>
      <point x="649" y="164" type="curve" smooth="yes"/>
      <point x="649" y="171"/>
      <point x="649" y="178"/>
      <point x="648" y="187" type="curve" smooth="yes"/>
      <point x="646" y="211"/>
      <point x="628" y="233"/>
      <point x="594" y="251" type="curve" smooth="yes"/>
      <point x="556" y="271"/>
      <point x="484" y="295"/>
      <point x="358" y="295" type="curve" smooth="yes"/>
      <point x="356" y="295" type="line" smooth="yes"/>
      <point x="346" y="295"/>
      <point x="338" y="295"/>
      <point x="330" y="299" type="curve"/>
      <point x="350" y="235"/>
      <point x="368" y="179"/>
      <point x="380" y="143" type="curve"/>
      <point x="396" y="157"/>
      <point x="416" y="165"/>
    </contour>
    <contour>
      <point x="230" y="573" type="curve"/>
      <point x="246" y="525"/>
      <point x="264" y="497"/>
      <point x="284" y="439" type="curve"/>
      <point x="292" y="451"/>
      <point x="304" y="461"/>
      <point x="318" y="467" type="curve" smooth="yes"/>
      <point x="466" y="531"/>
      <point x="512" y="555"/>
      <point x="518" y="577" type="curve" smooth="yes"/>
      <point x="518" y="581"/>
      <point x="518" y="585"/>
      <point x="514" y="589" type="curve"/>
      <point x="504" y="589"/>
      <point x="486" y="591"/>
      <point x="458" y="591" type="curve" smooth="yes"/>
      <point x="415" y="591"/>
      <point x="289" y="583"/>
    </contour>
  </outline>
</glyph>
<glyph name="C" format="2">
  <advance width="692"/>
  <unicode hex="0043"/>
  <unicode hex="0421"/>
  <outline>
    <contour>
      <point x="582" y="314" type="curve" smooth="yes"/>
      <point x="628" y="314"/>
      <point x="672" y="280"/>
      <point x="672" y="224" type="curve" smooth="yes"/>
      <point x="672" y="184"/>
      <point x="644" y="148"/>
      <point x="604" y="138" type="curve" smooth="yes"/>
      <point x="502" y="112"/>
      <point x="448" y="98"/>
      <point x="376" y="98" type="curve" smooth="yes"/>
      <point x="372" y="98"/>
      <point x="366" y="96"/>
      <point x="360" y="96" type="curve" smooth="yes"/>
      <point x="266" y="96"/>
      <point x="192" y="118"/>
      <point x="134" y="160" type="curve" smooth="yes"/>
      <point x="64" y="210"/>
      <point x="26" y="300"/>
      <point x="20" y="402" type="curve"/>
      <point x="20" y="418" type="line"/>
      <point x="30" y="502"/>
      <point x="68" y="588"/>
      <point x="132" y="642" type="curve" smooth="yes"/>
      <point x="194" y="694"/>
      <point x="280" y="726"/>
      <point x="378" y="734" type="curve"/>
      <point x="386" y="734" type="line" smooth="yes"/>
      <point x="432" y="734"/>
      <point x="472" y="698"/>
      <point x="476" y="652" type="curve"/>
      <point x="476" y="648" type="line" smooth="yes"/>
      <point x="476" y="600"/>
      <point x="440" y="558"/>
      <point x="392" y="554" type="curve" smooth="yes"/>
      <point x="326" y="550"/>
      <point x="216" y="516"/>
      <point x="200" y="406" type="curve"/>
      <point x="206" y="340"/>
      <point x="232" y="312"/>
      <point x="242" y="304" type="curve" smooth="yes"/>
      <point x="262" y="290"/>
      <point x="298" y="278"/>
      <point x="362" y="278" type="curve" smooth="yes"/>
      <point x="416" y="278"/>
      <point x="460" y="286"/>
      <point x="560" y="312" type="curve" smooth="yes"/>
      <point x="568" y="314"/>
      <point x="574" y="314"/>
    </contour>
  </outline>
</glyph>
<glyph name="D" format="2">
  <advance width="812"/>
  <unicode hex="0044"/>
  <outline>
    <contour>
      <point x="20" y="603" type="curve" smooth="yes"/>
      <point x="20" y="657"/>
      <point x="61" y="692"/>
      <point x="106" y="695" type="curve" smooth="yes"/>
      <point x="132" y="695"/>
      <point x="158" y="697"/>
      <point x="184" y="697" type="curve" smooth="yes"/>
      <point x="462" y="697"/>
      <point x="673" y="630"/>
      <point x="766" y="459" type="curve" smooth="yes"/>
      <point x="768" y="457"/>
      <point x="770" y="453"/>
      <point x="770" y="449" type="curve" smooth="yes"/>
      <point x="786" y="409"/>
      <point x="792" y="373"/>
      <point x="792" y="341" type="curve" smooth="yes"/>
      <point x="792" y="285"/>
      <point x="772" y="243"/>
      <point x="752" y="213" type="curve" smooth="yes"/>
      <point x="680" y="109"/>
      <point x="520" y="57"/>
      <point x="278" y="57" type="curve" smooth="yes"/>
      <point x="270" y="57" type="line" smooth="yes"/>
      <point x="226" y="57"/>
      <point x="190" y="89"/>
      <point x="182" y="131" type="curve" smooth="yes"/>
      <point x="146" y="329"/>
      <point x="82" y="481"/>
      <point x="34" y="557" type="curve" smooth="yes"/>
      <point x="24" y="571"/>
      <point x="20" y="587"/>
    </contour>
    <contour>
      <point x="256" y="515" type="curve"/>
      <point x="292" y="433"/>
      <point x="322" y="337"/>
      <point x="344" y="239" type="curve"/>
      <point x="500" y="247"/>
      <point x="580" y="283"/>
      <point x="604" y="315" type="curve" smooth="yes"/>
      <point x="606" y="319"/>
      <point x="612" y="327"/>
      <point x="612" y="341" type="curve" smooth="yes"/>
      <point x="612" y="351"/>
      <point x="610" y="363"/>
      <point x="604" y="379" type="curve"/>
      <point x="553" y="473"/>
      <point x="408" y="507"/>
    </contour>
  </outline>
</glyph>
<glyph name="E" format="2">
  <advance width="574"/>
  <unicode hex="0045"/>
  <unicode hex="0415"/>
  <unicode hex="0395"/>
  <outline>
    <contour>
      <point x="464" y="245" type="curve" smooth="yes"/>
      <point x="509" y="245"/>
      <point x="554" y="206"/>
      <point x="554" y="153" type="curve" smooth="yes"/>
      <point x="554" y="121"/>
      <point x="536" y="91"/>
      <point x="506" y="75" type="curve" smooth="yes"/>
      <point x="426" y="31"/>
      <point x="356" y="11"/>
      <point x="292" y="11" type="curve" smooth="yes"/>
      <point x="274" y="11"/>
      <point x="258" y="13"/>
      <point x="244" y="15" type="curve" smooth="yes"/>
      <point x="166" y="29"/>
      <point x="104" y="75"/>
      <point x="58" y="153" type="curve" smooth="yes"/>
      <point x="42" y="177"/>
      <point x="36" y="220"/>
      <point x="36" y="255" type="curve" smooth="yes"/>
      <point x="36" y="328"/>
      <point x="65" y="395"/>
      <point x="98" y="443" type="curve"/>
      <point x="48" y="491"/>
      <point x="20" y="555"/>
      <point x="20" y="629" type="curve" smooth="yes"/>
      <point x="20" y="659"/>
      <point x="24" y="694"/>
      <point x="36" y="715" type="curve" smooth="yes"/>
      <point x="80" y="785"/>
      <point x="154" y="829"/>
      <point x="234" y="837" type="curve" smooth="yes"/>
      <point x="242" y="837"/>
      <point x="248" y="839"/>
      <point x="256" y="839" type="curve" smooth="yes"/>
      <point x="292" y="839"/>
      <point x="330" y="829"/>
      <point x="364" y="815" type="curve" smooth="yes"/>
      <point x="408" y="795"/>
      <point x="448" y="765"/>
      <point x="486" y="723" type="curve" smooth="yes"/>
      <point x="502" y="707"/>
      <point x="508" y="685"/>
      <point x="508" y="663" type="curve" smooth="yes"/>
      <point x="508" y="639"/>
      <point x="500" y="613"/>
      <point x="480" y="597" type="curve" smooth="yes"/>
      <point x="462" y="581"/>
      <point x="440" y="573"/>
      <point x="418" y="573" type="curve" smooth="yes"/>
      <point x="394" y="573"/>
      <point x="370" y="583"/>
      <point x="352" y="603" type="curve" smooth="yes"/>
      <point x="330" y="627"/>
      <point x="294" y="657"/>
      <point x="256" y="657" type="curve" smooth="yes"/>
      <point x="254" y="657"/>
      <point x="252" y="657"/>
      <point x="250" y="657" type="curve" smooth="yes"/>
      <point x="228" y="655"/>
      <point x="212" y="645"/>
      <point x="200" y="633" type="curve"/>
      <point x="200" y="631"/>
      <point x="200" y="629"/>
      <point x="200" y="627" type="curve" smooth="yes"/>
      <point x="200" y="587"/>
      <point x="222" y="563"/>
      <point x="268" y="547" type="curve" smooth="yes"/>
      <point x="302" y="537"/>
      <point x="324" y="509"/>
      <point x="330" y="477" type="curve" smooth="yes"/>
      <point x="330" y="471"/>
      <point x="332" y="467"/>
      <point x="332" y="461" type="curve" smooth="yes"/>
      <point x="332" y="433"/>
      <point x="318" y="405"/>
      <point x="296" y="389" type="curve" smooth="yes"/>
      <point x="240" y="347"/>
      <point x="216" y="295"/>
      <point x="216" y="253" type="curve" smooth="yes"/>
      <point x="216" y="247"/>
      <point x="216" y="241"/>
      <point x="218" y="235" type="curve"/>
      <point x="240" y="203"/>
      <point x="260" y="195"/>
      <point x="274" y="193" type="curve" smooth="yes"/>
      <point x="280" y="191"/>
      <point x="286" y="191"/>
      <point x="294" y="191" type="curve" smooth="yes"/>
      <point x="320" y="191"/>
      <point x="360" y="201"/>
      <point x="420" y="233" type="curve" smooth="yes"/>
      <point x="434" y="241"/>
      <point x="448" y="245"/>
    </contour>
  </outline>
</glyph>
<glyph name="F" format="2">
  <advance width="718"/>
  <unicode hex="0046"/>
  <outline>
    <contour>
      <point x="636" y="626" type="curve" smooth="yes"/>
      <point x="636" y="572"/>
      <point x="594" y="536"/>
      <point x="548" y="536" type="curve" smooth="yes"/>
      <point x="540" y="536"/>
      <point x="534" y="536"/>
      <point x="526" y="538" type="curve" smooth="yes"/>
      <point x="460" y="554"/>
      <point x="356" y="566"/>
      <point x="260" y="568" type="curve"/>
      <point x="278" y="524"/>
      <point x="294" y="478"/>
      <point x="308" y="428" type="curve" smooth="yes"/>
      <point x="310" y="418"/>
      <point x="312" y="408"/>
      <point x="314" y="398" type="curve"/>
      <point x="596" y="438" type="line" smooth="yes"/>
      <point x="600" y="438"/>
      <point x="606" y="440"/>
      <point x="610" y="440" type="curve" smooth="yes"/>
      <point x="654" y="440"/>
      <point x="690" y="408"/>
      <point x="698" y="362" type="curve" smooth="yes"/>
      <point x="698" y="358"/>
      <point x="698" y="354"/>
      <point x="698" y="350" type="curve" smooth="yes"/>
      <point x="698" y="308"/>
      <point x="666" y="268"/>
      <point x="622" y="260" type="curve"/>
      <point x="344" y="220" type="line"/>
      <point x="346" y="186"/>
      <point x="348" y="152"/>
      <point x="348" y="120" type="curve" smooth="yes"/>
      <point x="348" y="108"/>
      <point x="348" y="96"/>
      <point x="348" y="84" type="curve" smooth="yes"/>
      <point x="348" y="34"/>
      <point x="308" y="-4"/>
      <point x="258" y="-4" type="curve" smooth="yes"/>
      <point x="256" y="-4" type="line" smooth="yes"/>
      <point x="206" y="-2"/>
      <point x="168" y="38"/>
      <point x="168" y="88" type="curve" smooth="yes"/>
      <point x="168" y="122" type="line" smooth="yes"/>
      <point x="168" y="322"/>
      <point x="104" y="508"/>
      <point x="38" y="594" type="curve" smooth="yes"/>
      <point x="26" y="610"/>
      <point x="20" y="630"/>
      <point x="20" y="650" type="curve" smooth="yes"/>
      <point x="20" y="700"/>
      <point x="56" y="731"/>
      <point x="96" y="738" type="curve" smooth="yes"/>
      <point x="138" y="744"/>
      <point x="190" y="748"/>
      <point x="242" y="748" type="curve" smooth="yes"/>
      <point x="360" y="748"/>
      <point x="488" y="734"/>
      <point x="570" y="714" type="curve" smooth="yes"/>
      <point x="610" y="702"/>
      <point x="636" y="666"/>
    </contour>
  </outline>
</glyph>
<glyph name="G" format="2">
  <advance width="816"/>
  <unicode hex="0047"/>
  <outline>
    <contour>
      <point x="552" y="586" type="curve" smooth="yes"/>
      <point x="552" y="540"/>
      <point x="516" y="498"/>
      <point x="462" y="498" type="curve" smooth="yes"/>
      <point x="422" y="498"/>
      <point x="384" y="526"/>
      <point x="374" y="566" type="curve"/>
      <point x="362" y="562"/>
      <point x="342" y="550"/>
      <point x="312" y="526" type="curve"/>
      <point x="238" y="442"/>
      <point x="196" y="378"/>
      <point x="196" y="322" type="curve"/>
      <point x="200" y="280"/>
      <point x="220" y="238"/>
      <point x="310" y="218" type="curve"/>
      <point x="318" y="218" type="line" smooth="yes"/>
      <point x="414" y="218"/>
      <point x="450" y="252"/>
      <point x="472" y="280" type="curve" smooth="yes"/>
      <point x="488" y="302"/>
      <point x="514" y="314"/>
      <point x="540" y="314" type="curve" smooth="yes"/>
      <point x="568" y="314"/>
      <point x="598" y="300"/>
      <point x="614" y="278" type="curve" smooth="yes"/>
      <point x="620" y="270"/>
      <point x="626" y="262"/>
      <point x="632" y="256" type="curve" smooth="yes"/>
      <point x="648" y="234"/>
      <point x="666" y="210"/>
      <point x="682" y="192" type="curve" smooth="yes"/>
      <point x="696" y="176"/>
      <point x="704" y="170"/>
      <point x="708" y="170" type="curve" smooth="yes"/>
      <point x="754" y="170"/>
      <point x="796" y="132"/>
      <point x="796" y="86" type="curve" smooth="yes"/>
      <point x="796" y="82" type="line"/>
      <point x="794" y="16"/>
      <point x="756" y="-8"/>
      <point x="710" y="-8" type="curve" smooth="yes"/>
      <point x="660" y="-8"/>
      <point x="598" y="22"/>
      <point x="566" y="54" type="curve" smooth="yes"/>
      <point x="552" y="68"/>
      <point x="542" y="80"/>
      <point x="530" y="92" type="curve"/>
      <point x="486" y="66"/>
      <point x="400" y="36"/>
      <point x="324" y="36" type="curve" smooth="yes"/>
      <point x="308" y="36"/>
      <point x="294" y="38"/>
      <point x="280" y="40" type="curve" smooth="yes"/>
      <point x="204" y="56"/>
      <point x="144" y="86"/>
      <point x="100" y="128" type="curve" smooth="yes"/>
      <point x="42" y="186"/>
      <point x="20" y="252"/>
      <point x="20" y="318" type="curve" smooth="yes"/>
      <point x="20" y="446"/>
      <point x="102" y="560"/>
      <point x="182" y="650" type="curve"/>
      <point x="190" y="658" type="line"/>
      <point x="230" y="692"/>
      <point x="268" y="718"/>
      <point x="304" y="732" type="curve" smooth="yes"/>
      <point x="332" y="744"/>
      <point x="358" y="750"/>
      <point x="384" y="750" type="curve" smooth="yes"/>
      <point x="402" y="750"/>
      <point x="418" y="746"/>
      <point x="434" y="742" type="curve" smooth="yes"/>
      <point x="468" y="732"/>
      <point x="526" y="700"/>
      <point x="550" y="608" type="curve" smooth="yes"/>
      <point x="552" y="600"/>
      <point x="552" y="594"/>
    </contour>
  </outline>
</glyph>
<glyph name="H" format="2">
  <advance width="806"/>
  <unicode hex="0048"/>
  <unicode hex="041D"/>
  <unicode hex="0397"/>
  <outline>
    <contour>
      <point x="786" y="104" type="curve" smooth="yes"/>
      <point x="786" y="58"/>
      <point x="752" y="14"/>
      <point x="696" y="14" type="curve" smooth="yes"/>
      <point x="658" y="14"/>
      <point x="624" y="38"/>
      <point x="612" y="76" type="curve" smooth="yes"/>
      <point x="592" y="134"/>
      <point x="574" y="196"/>
      <point x="558" y="254" type="curve" smooth="yes"/>
      <point x="556" y="256"/>
      <point x="556" y="258"/>
      <point x="556" y="258" type="curve"/>
      <point x="478" y="258"/>
      <point x="418" y="244"/>
      <point x="378" y="216" type="curve" smooth="yes"/>
      <point x="338" y="190"/>
      <point x="314" y="152"/>
      <point x="306" y="96" type="curve" smooth="yes"/>
      <point x="298" y="52"/>
      <point x="260" y="20"/>
      <point x="216" y="20" type="curve" smooth="yes"/>
      <point x="208" y="20" type="line"/>
      <point x="162" y="26"/>
      <point x="126" y="64"/>
      <point x="126" y="110" type="curve" smooth="yes"/>
      <point x="126" y="148" type="line" smooth="yes"/>
      <point x="126" y="296"/>
      <point x="92" y="462"/>
      <point x="28" y="606" type="curve" smooth="yes"/>
      <point x="22" y="618"/>
      <point x="20" y="630"/>
      <point x="20" y="642" type="curve" smooth="yes"/>
      <point x="20" y="687"/>
      <point x="56" y="732"/>
      <point x="110" y="732" type="curve" smooth="yes"/>
      <point x="144" y="732"/>
      <point x="178" y="712"/>
      <point x="192" y="678" type="curve" smooth="yes"/>
      <point x="236" y="580"/>
      <point x="268" y="476"/>
      <point x="286" y="372" type="curve"/>
      <point x="344" y="408"/>
      <point x="416" y="430"/>
      <point x="502" y="436" type="curve"/>
      <point x="480" y="502"/>
      <point x="458" y="564"/>
      <point x="432" y="614" type="curve" smooth="yes"/>
      <point x="426" y="626"/>
      <point x="422" y="640"/>
      <point x="422" y="654" type="curve" smooth="yes"/>
      <point x="422" y="699"/>
      <point x="460" y="744"/>
      <point x="514" y="744" type="curve" smooth="yes"/>
      <point x="546" y="744"/>
      <point x="578" y="726"/>
      <point x="594" y="694" type="curve" smooth="yes"/>
      <point x="672" y="538"/>
      <point x="723" y="317"/>
      <point x="782" y="132" type="curve" smooth="yes"/>
      <point x="786" y="122"/>
      <point x="786" y="112"/>
    </contour>
  </outline>
</glyph>
<glyph name="I" format="2">
  <advance width="396"/>
  <unicode hex="0049"/>
  <unicode hex="0406"/>
  <unicode hex="0399"/>
  <anchor x="110" y="732" name="top"/>
  <anchor x="302" y="110" name="bottom"/>
  <outline>
    <contour>
      <point x="376" y="206" type="curve" smooth="yes"/>
      <point x="376" y="158"/>
      <point x="341" y="116"/>
      <point x="286" y="116" type="curve" smooth="yes"/>
      <point x="250" y="116"/>
      <point x="216" y="138"/>
      <point x="202" y="174" type="curve" smooth="yes"/>
      <point x="190" y="208"/>
      <point x="176" y="244"/>
      <point x="164" y="278" type="curve" smooth="yes"/>
      <point x="120" y="398"/>
      <point x="74" y="522"/>
      <point x="30" y="606" type="curve" smooth="yes"/>
      <point x="24" y="620"/>
      <point x="20" y="634"/>
      <point x="20" y="648" type="curve" smooth="yes"/>
      <point x="20" y="693"/>
      <point x="57" y="738"/>
      <point x="110" y="738" type="curve" smooth="yes"/>
      <point x="142" y="738"/>
      <point x="174" y="720"/>
      <point x="190" y="688" type="curve" smooth="yes"/>
      <point x="238" y="594"/>
      <point x="286" y="466"/>
      <point x="332" y="340" type="curve" smooth="yes"/>
      <point x="344" y="306"/>
      <point x="358" y="272"/>
      <point x="370" y="238" type="curve" smooth="yes"/>
      <point x="374" y="228"/>
      <point x="376" y="216"/>
    </contour>
  </outline>
</glyph>
<glyph name="J" format="2">
  <advance width="530"/>
  <unicode hex="004A"/>
  <unicode hex="0408"/>
  <outline>
    <contour>
      <point x="46" y="660" type="curve" smooth="yes"/>
      <point x="46" y="708"/>
      <point x="85" y="752"/>
      <point x="136" y="752" type="curve" smooth="yes"/>
      <point x="162" y="752"/>
      <point x="188" y="740"/>
      <point x="206" y="716" type="curve" smooth="yes"/>
      <point x="248" y="664"/>
      <point x="390" y="472"/>
      <point x="478" y="254" type="curve" smooth="yes"/>
      <point x="498" y="206"/>
      <point x="510" y="162"/>
      <point x="510" y="122" type="curve" smooth="yes"/>
      <point x="510" y="112" type="line" smooth="yes"/>
      <point x="510" y="66"/>
      <point x="496" y="26"/>
      <point x="472" y="-8" type="curve" smooth="yes"/>
      <point x="448" y="-36"/>
      <point x="400" y="-78"/>
      <point x="306" y="-78" type="curve" smooth="yes"/>
      <point x="286" y="-78"/>
      <point x="266" y="-76"/>
      <point x="242" y="-72" type="curve" smooth="yes"/>
      <point x="98" y="-52" type="line" smooth="yes"/>
      <point x="52" y="-46"/>
      <point x="20" y="-6"/>
      <point x="20" y="36" type="curve" smooth="yes"/>
      <point x="20" y="40"/>
      <point x="20" y="44"/>
      <point x="20" y="48" type="curve" smooth="yes"/>
      <point x="28" y="94"/>
      <point x="66" y="126"/>
      <point x="110" y="126" type="curve" smooth="yes"/>
      <point x="114" y="126"/>
      <point x="118" y="126"/>
      <point x="122" y="126" type="curve" smooth="yes"/>
      <point x="268" y="106" type="line"/>
      <point x="272" y="106" type="line"/>
      <point x="286" y="103"/>
      <point x="298" y="101"/>
      <point x="307" y="101" type="curve" smooth="yes"/>
      <point x="319" y="101"/>
      <point x="327" y="104"/>
      <point x="330" y="106" type="curve"/>
      <point x="330" y="114" type="line" smooth="yes"/>
      <point x="330" y="126"/>
      <point x="328" y="150"/>
      <point x="312" y="184" type="curve"/>
      <point x="312" y="186" type="line"/>
      <point x="248" y="342"/>
      <point x="142" y="506"/>
      <point x="64" y="606" type="curve" smooth="yes"/>
      <point x="52" y="622"/>
      <point x="46" y="642"/>
    </contour>
  </outline>
</glyph>
<glyph name="K" format="2">
  <advance width="982"/>
  <unicode hex="004B"/>
  <unicode hex="041A"/>
  <unicode hex="039A"/>
  <outline>
    <contour>
      <point x="544" y="848" type="curve" smooth="yes"/>
      <point x="600" y="848"/>
      <point x="634" y="804"/>
      <point x="634" y="758" type="curve" smooth="yes"/>
      <point x="634" y="750"/>
      <point x="632" y="740"/>
      <point x="630" y="732" type="curve" smooth="yes"/>
      <point x="600" y="624"/>
      <point x="554" y="524"/>
      <point x="492" y="428" type="curve"/>
      <point x="690" y="364"/>
      <point x="826" y="300"/>
      <point x="926" y="228" type="curve" smooth="yes"/>
      <point x="950" y="212"/>
      <point x="962" y="184"/>
      <point x="962" y="156" type="curve" smooth="yes"/>
      <point x="962" y="136"/>
      <point x="958" y="118"/>
      <point x="946" y="102" type="curve" smooth="yes"/>
      <point x="928" y="78"/>
      <point x="900" y="66"/>
      <point x="872" y="66" type="curve" smooth="yes"/>
      <point x="854" y="66"/>
      <point x="836" y="70"/>
      <point x="820" y="82" type="curve" smooth="yes"/>
      <point x="726" y="150"/>
      <point x="586" y="212"/>
      <point x="370" y="280" type="curve"/>
      <point x="380" y="218"/>
      <point x="390" y="154"/>
      <point x="400" y="94" type="curve" smooth="yes"/>
      <point x="400" y="88"/>
      <point x="402" y="84"/>
      <point x="402" y="78" type="curve" smooth="yes"/>
      <point x="402" y="34"/>
      <point x="370" y="-2"/>
      <point x="326" y="-10" type="curve"/>
      <point x="312" y="-10" type="line" smooth="yes"/>
      <point x="268" y="-10"/>
      <point x="230" y="22"/>
      <point x="222" y="66" type="curve" smooth="yes"/>
      <point x="186" y="296"/>
      <point x="140" y="582"/>
      <point x="40" y="708" type="curve" smooth="yes"/>
      <point x="26" y="724"/>
      <point x="20" y="744"/>
      <point x="20" y="764" type="curve" smooth="yes"/>
      <point x="20" y="810"/>
      <point x="60" y="854"/>
      <point x="110" y="854" type="curve" smooth="yes"/>
      <point x="136" y="854"/>
      <point x="162" y="842"/>
      <point x="180" y="820" type="curve" smooth="yes"/>
      <point x="244" y="738"/>
      <point x="288" y="624"/>
      <point x="322" y="498" type="curve"/>
      <point x="384" y="586"/>
      <point x="428" y="682"/>
      <point x="458" y="784" type="curve" smooth="yes"/>
      <point x="470" y="822"/>
      <point x="506" y="848"/>
    </contour>
  </outline>
</glyph>
<glyph name="L" format="2">
  <advance width="648"/>
  <unicode hex="004C"/>
  <outline>
    <contour>
      <point x="538" y="295" type="curve" smooth="yes"/>
      <point x="592" y="295"/>
      <point x="628" y="251"/>
      <point x="628" y="207" type="curve" smooth="yes"/>
      <point x="628" y="195"/>
      <point x="626" y="183"/>
      <point x="620" y="171" type="curve" smooth="yes"/>
      <point x="580" y="71"/>
      <point x="504" y="15"/>
      <point x="370" y="15" type="curve" smooth="yes"/>
      <point x="302" y="15"/>
      <point x="220" y="31"/>
      <point x="124" y="61" type="curve" smooth="yes"/>
      <point x="92" y="71"/>
      <point x="68" y="99"/>
      <point x="64" y="131" type="curve" smooth="yes"/>
      <point x="34" y="297"/>
      <point x="20" y="417"/>
      <point x="20" y="567" type="curve" smooth="yes"/>
      <point x="20" y="601"/>
      <point x="22" y="633"/>
      <point x="24" y="663" type="curve" smooth="yes"/>
      <point x="28" y="709"/>
      <point x="68" y="745"/>
      <point x="114" y="745" type="curve" smooth="yes"/>
      <point x="122" y="745" type="line"/>
      <point x="168" y="741"/>
      <point x="204" y="701"/>
      <point x="204" y="655" type="curve" smooth="yes"/>
      <point x="204" y="647" type="line"/>
      <point x="202" y="621"/>
      <point x="200" y="593"/>
      <point x="200" y="565" type="curve" smooth="yes"/>
      <point x="200" y="445"/>
      <point x="210" y="357"/>
      <point x="232" y="217" type="curve"/>
      <point x="296" y="201"/>
      <point x="340" y="195"/>
      <point x="370" y="195" type="curve" smooth="yes"/>
      <point x="390" y="195"/>
      <point x="404" y="197"/>
      <point x="414" y="201" type="curve" smooth="yes"/>
      <point x="436" y="207"/>
      <point x="444" y="215"/>
      <point x="454" y="239" type="curve" smooth="yes"/>
      <point x="470" y="275"/>
      <point x="504" y="295"/>
    </contour>
  </outline>
</glyph>
<glyph name="M" format="2">
  <advance width="918"/>
  <unicode hex="004D"/>
  <unicode hex="041C"/>
  <unicode hex="039C"/>
  <outline>
    <contour>
      <point x="898" y="194" type="curve" smooth="yes"/>
      <point x="898" y="147"/>
      <point x="861" y="104"/>
      <point x="808" y="104" type="curve" smooth="yes"/>
      <point x="766" y="104"/>
      <point x="728" y="134"/>
      <point x="720" y="178" type="curve" smooth="yes"/>
      <point x="701" y="271"/>
      <point x="683" y="369"/>
      <point x="660" y="450" type="curve"/>
      <point x="638" y="400"/>
      <point x="600" y="330"/>
      <point x="550" y="276" type="curve" smooth="yes"/>
      <point x="532" y="256"/>
      <point x="506" y="246"/>
      <point x="480" y="246" type="curve" smooth="yes"/>
      <point x="454" y="248"/>
      <point x="430" y="260"/>
      <point x="414" y="282" type="curve" smooth="yes"/>
      <point x="376" y="328"/>
      <point x="334" y="374"/>
      <point x="290" y="412" type="curve"/>
      <point x="286" y="368"/>
      <point x="282" y="322"/>
      <point x="276" y="282" type="curve" smooth="yes"/>
      <point x="258" y="178"/>
      <point x="228" y="96"/>
      <point x="184" y="34" type="curve" smooth="yes"/>
      <point x="166" y="10"/>
      <point x="138" y="-4"/>
      <point x="110" y="-4" type="curve" smooth="yes"/>
      <point x="60" y="-4"/>
      <point x="20" y="43"/>
      <point x="20" y="88" type="curve" smooth="yes"/>
      <point x="20" y="106"/>
      <point x="26" y="124"/>
      <point x="36" y="140" type="curve" smooth="yes"/>
      <point x="102" y="232"/>
      <point x="112" y="402"/>
      <point x="118" y="582" type="curve" smooth="yes"/>
      <point x="118" y="629"/>
      <point x="156" y="670"/>
      <point x="208" y="670" type="curve" smooth="yes"/>
      <point x="222" y="670"/>
      <point x="236" y="666"/>
      <point x="250" y="660" type="curve" smooth="yes"/>
      <point x="324" y="620"/>
      <point x="404" y="558"/>
      <point x="476" y="484" type="curve"/>
      <point x="506" y="542"/>
      <point x="532" y="614"/>
      <point x="544" y="682" type="curve" smooth="yes"/>
      <point x="549" y="722"/>
      <point x="585" y="756"/>
      <point x="634" y="756" type="curve" smooth="yes"/>
      <point x="650" y="756"/>
      <point x="666" y="752"/>
      <point x="680" y="742" type="curve" smooth="yes"/>
      <point x="817" y="653"/>
      <point x="854" y="424"/>
      <point x="896" y="212" type="curve" smooth="yes"/>
      <point x="898" y="206"/>
      <point x="898" y="200"/>
    </contour>
  </outline>
</glyph>
<glyph name="N" format="2">
  <advance width="858"/>
  <unicode hex="004E"/>
  <unicode hex="039D"/>
  <outline>
    <contour>
      <point x="524" y="712" type="curve" smooth="yes"/>
      <point x="524" y="763"/>
      <point x="570" y="802"/>
      <point x="614" y="802" type="curve" smooth="yes"/>
      <point x="632" y="802"/>
      <point x="648" y="796"/>
      <point x="664" y="786" type="curve" smooth="yes"/>
      <point x="716" y="750"/>
      <point x="756" y="708"/>
      <point x="782" y="656" type="curve" smooth="yes"/>
      <point x="812" y="602"/>
      <point x="830" y="536"/>
      <point x="836" y="456" type="curve" smooth="yes"/>
      <point x="838" y="452"/>
      <point x="838" y="450"/>
      <point x="838" y="446" type="curve" smooth="yes"/>
      <point x="834" y="312"/>
      <point x="796" y="216"/>
      <point x="724" y="160" type="curve" smooth="yes"/>
      <point x="683" y="128"/>
      <point x="636" y="112"/>
      <point x="572" y="112" type="curve" smooth="yes"/>
      <point x="540" y="112"/>
      <point x="506" y="116"/>
      <point x="470" y="126" type="curve" smooth="yes"/>
      <point x="468" y="128"/>
      <point x="464" y="128"/>
      <point x="460" y="130" type="curve" smooth="yes"/>
      <point x="402" y="152"/>
      <point x="348" y="204"/>
      <point x="284" y="296" type="curve" smooth="yes"/>
      <point x="278" y="306"/>
      <point x="270" y="318"/>
      <point x="262" y="330" type="curve"/>
      <point x="248" y="234"/>
      <point x="228" y="140"/>
      <point x="190" y="64" type="curve" smooth="yes"/>
      <point x="176" y="32"/>
      <point x="144" y="14"/>
      <point x="110" y="14" type="curve" smooth="yes"/>
      <point x="55" y="14"/>
      <point x="20" y="58"/>
      <point x="20" y="102" type="curve" smooth="yes"/>
      <point x="20" y="116"/>
      <point x="24" y="130"/>
      <point x="30" y="142" type="curve" smooth="yes"/>
      <point x="84" y="256"/>
      <point x="96" y="484"/>
      <point x="104" y="642" type="curve"/>
      <point x="104" y="656" type="line"/>
      <point x="106" y="700"/>
      <point x="141" y="742"/>
      <point x="194" y="742" type="curve" smooth="yes"/>
      <point x="224" y="742"/>
      <point x="256" y="726"/>
      <point x="272" y="696" type="curve" smooth="yes"/>
      <point x="278" y="688"/>
      <point x="282" y="678"/>
      <point x="288" y="668" type="curve" smooth="yes"/>
      <point x="340" y="578"/>
      <point x="388" y="462"/>
      <point x="432" y="398" type="curve" smooth="yes"/>
      <point x="482" y="326"/>
      <point x="510" y="306"/>
      <point x="522" y="298" type="curve"/>
      <point x="538" y="296"/>
      <point x="556" y="292"/>
      <point x="572" y="292" type="curve" smooth="yes"/>
      <point x="588" y="292"/>
      <point x="604" y="296"/>
      <point x="616" y="304" type="curve" smooth="yes"/>
      <point x="640" y="322"/>
      <point x="656" y="374"/>
      <point x="658" y="446" type="curve"/>
      <point x="646" y="558"/>
      <point x="614" y="602"/>
      <point x="562" y="638" type="curve" smooth="yes"/>
      <point x="538" y="656"/>
      <point x="524" y="684"/>
    </contour>
  </outline>
</glyph>
<glyph name="O" format="2">
  <advance width="762"/>
  <unicode hex="004F"/>
  <unicode hex="041E"/>
  <unicode hex="039F"/>
  <anchor x="382" y="736" name="top"/>
  <anchor x="408" y="86" name="bottom"/>
  <outline>
    <contour>
      <point x="414" y="692" type="line" smooth="yes"/>
      <point x="591" y="692"/>
      <point x="714" y="595"/>
      <point x="742" y="450" type="curve"/>
      <point x="742" y="335"/>
      <point x="715" y="252"/>
      <point x="648" y="192" type="curve" smooth="yes"/>
      <point x="592" y="142"/>
      <point x="518" y="118"/>
      <point x="424" y="94" type="curve" smooth="yes"/>
      <point x="418" y="94"/>
      <point x="410" y="92"/>
      <point x="404" y="92" type="curve" smooth="yes"/>
      <point x="400" y="92" type="line"/>
      <point x="294" y="96"/>
      <point x="212" y="114"/>
      <point x="150" y="152" type="curve" smooth="yes"/>
      <point x="68" y="202"/>
      <point x="22" y="282"/>
      <point x="20" y="384" type="curve" smooth="yes"/>
      <point x="20" y="390"/>
      <point x="20" y="396"/>
      <point x="22" y="404" type="curve" smooth="yes"/>
      <point x="54" y="557"/>
      <point x="134" y="682"/>
      <point x="262" y="732" type="curve" smooth="yes"/>
      <point x="272" y="736"/>
      <point x="284" y="738"/>
      <point x="294" y="738" type="curve" smooth="yes"/>
      <point x="326" y="738"/>
      <point x="358" y="720"/>
      <point x="374" y="692" type="curve"/>
    </contour>
    <contour>
      <point x="562" y="426" type="curve"/>
      <point x="549" y="488"/>
      <point x="484" y="512"/>
      <point x="408" y="512" type="curve" smooth="yes"/>
      <point x="364" y="512"/>
      <point x="316" y="504"/>
      <point x="268" y="488" type="curve" smooth="yes"/>
      <point x="260" y="486"/>
      <point x="250" y="484"/>
      <point x="242" y="484" type="curve"/>
      <point x="226" y="458"/>
      <point x="210" y="424"/>
      <point x="200" y="378" type="curve"/>
      <point x="204" y="336"/>
      <point x="222" y="318"/>
      <point x="242" y="306" type="curve" smooth="yes"/>
      <point x="274" y="286"/>
      <point x="326" y="276"/>
      <point x="394" y="272" type="curve"/>
      <point x="530" y="306"/>
      <point x="558" y="332"/>
    </contour>
  </outline>
</glyph>
<glyph name="P" format="2">
  <advance width="630"/>
  <unicode hex="0050"/>
  <unicode hex="0420"/>
  <unicode hex="03A1"/>
  <outline>
    <contour>
      <point x="350" y="82" type="curve" smooth="yes"/>
      <point x="350" y="37"/>
      <point x="313" y="-8"/>
      <point x="260" y="-8" type="curve" smooth="yes"/>
      <point x="226" y="-8"/>
      <point x="198" y="10"/>
      <point x="182" y="40" type="curve" smooth="yes"/>
      <point x="102" y="190"/>
      <point x="56" y="278"/>
      <point x="28" y="392" type="curve" smooth="yes"/>
      <point x="28" y="398"/>
      <point x="26" y="402"/>
      <point x="26" y="408" type="curve" smooth="yes"/>
      <point x="26" y="414"/>
      <point x="24" y="422"/>
      <point x="24" y="432" type="curve" smooth="yes"/>
      <point x="22" y="452"/>
      <point x="20" y="472"/>
      <point x="20" y="492" type="curve" smooth="yes"/>
      <point x="20" y="524"/>
      <point x="24" y="554"/>
      <point x="38" y="584" type="curve" smooth="yes"/>
      <point x="64" y="648"/>
      <point x="122" y="694"/>
      <point x="210" y="722" type="curve" smooth="yes"/>
      <point x="250" y="734"/>
      <point x="288" y="742"/>
      <point x="326" y="742" type="curve" smooth="yes"/>
      <point x="386" y="742"/>
      <point x="444" y="724"/>
      <point x="494" y="692" type="curve" smooth="yes"/>
      <point x="562" y="646"/>
      <point x="604" y="574"/>
      <point x="610" y="498" type="curve"/>
      <point x="610" y="484" type="line"/>
      <point x="600" y="370"/>
      <point x="554" y="292"/>
      <point x="472" y="256" type="curve" smooth="yes"/>
      <point x="426" y="236"/>
      <point x="376" y="230"/>
      <point x="330" y="230" type="curve" smooth="yes"/>
      <point x="312" y="230"/>
      <point x="296" y="232"/>
      <point x="280" y="232" type="curve"/>
      <point x="302" y="190"/>
      <point x="314" y="174"/>
      <point x="340" y="124" type="curve" smooth="yes"/>
      <point x="348" y="110"/>
      <point x="350" y="96"/>
    </contour>
    <contour>
      <point x="200" y="486" type="curve" smooth="yes"/>
      <point x="200" y="468"/>
      <point x="202" y="444"/>
      <point x="206" y="428" type="curve" smooth="yes"/>
      <point x="206" y="416"/>
      <point x="228" y="414"/>
      <point x="248" y="414" type="curve" smooth="yes"/>
      <point x="280" y="414" type="line"/>
      <point x="300" y="412"/>
      <point x="320" y="410"/>
      <point x="338" y="410" type="curve" smooth="yes"/>
      <point x="362" y="410"/>
      <point x="384" y="414"/>
      <point x="398" y="420" type="curve" smooth="yes"/>
      <point x="404" y="422"/>
      <point x="424" y="430"/>
      <point x="430" y="490" type="curve"/>
      <point x="426" y="506"/>
      <point x="414" y="528"/>
      <point x="392" y="542" type="curve" smooth="yes"/>
      <point x="374" y="554"/>
      <point x="352" y="562"/>
      <point x="326" y="562" type="curve" smooth="yes"/>
      <point x="286" y="562"/>
      <point x="211" y="536"/>
      <point x="204" y="514" type="curve" smooth="yes"/>
      <point x="200" y="506"/>
      <point x="200" y="498"/>
    </contour>
  </outline>
</glyph>
<glyph name="Q" format="2">
  <advance width="822"/>
  <unicode hex="0051"/>
  <outline>
    <contour>
      <point x="714" y="70" type="curve" smooth="yes"/>
      <point x="765" y="70"/>
      <point x="802" y="27"/>
      <point x="802" y="-20" type="curve" smooth="yes"/>
      <point x="802" y="-38"/>
      <point x="796" y="-58"/>
      <point x="784" y="-74" type="curve" smooth="yes"/>
      <point x="742" y="-128"/>
      <point x="684" y="-160"/>
      <point x="622" y="-162" type="curve" smooth="yes"/>
      <point x="564" y="-162"/>
      <point x="508" y="-134"/>
      <point x="464" y="-84" type="curve" smooth="yes"/>
      <point x="459" y="-81"/>
      <point x="456" y="-79"/>
      <point x="453" y="-79" type="curve" smooth="yes"/>
      <point x="448" y="-79"/>
      <point x="442" y="-85"/>
      <point x="424" y="-98" type="curve" smooth="yes"/>
      <point x="396" y="-120"/>
      <point x="362" y="-156"/>
      <point x="332" y="-190" type="curve" smooth="yes"/>
      <point x="316" y="-210"/>
      <point x="290" y="-220"/>
      <point x="266" y="-220" type="curve" smooth="yes"/>
      <point x="217" y="-220"/>
      <point x="176" y="-176"/>
      <point x="176" y="-130" type="curve" smooth="yes"/>
      <point x="176" y="-108"/>
      <point x="184" y="-86"/>
      <point x="198" y="-70" type="curve" smooth="yes"/>
      <point x="244" y="-20"/>
      <point x="282" y="20"/>
      <point x="320" y="48" type="curve"/>
      <point x="228" y="58"/>
      <point x="138" y="80"/>
      <point x="78" y="148" type="curve" smooth="yes"/>
      <point x="40" y="192"/>
      <point x="20" y="246"/>
      <point x="20" y="310" type="curve" smooth="yes"/>
      <point x="20" y="322"/>
      <point x="20" y="332"/>
      <point x="22" y="344" type="curve" smooth="yes"/>
      <point x="36" y="486"/>
      <point x="122" y="606"/>
      <point x="260" y="674" type="curve" smooth="yes"/>
      <point x="272" y="680"/>
      <point x="286" y="684"/>
      <point x="300" y="684" type="curve" smooth="yes"/>
      <point x="330" y="684"/>
      <point x="360" y="668"/>
      <point x="376" y="640" type="curve"/>
      <point x="420" y="656"/>
      <point x="475" y="666"/>
      <point x="528" y="666" type="curve" smooth="yes"/>
      <point x="564" y="666"/>
      <point x="598" y="660"/>
      <point x="632" y="646" type="curve" smooth="yes"/>
      <point x="702" y="616"/>
      <point x="754" y="560"/>
      <point x="784" y="476" type="curve" smooth="yes"/>
      <point x="788" y="470"/>
      <point x="790" y="462"/>
      <point x="790" y="454" type="curve" smooth="yes"/>
      <point x="792" y="442"/>
      <point x="792" y="430"/>
      <point x="792" y="418" type="curve" smooth="yes"/>
      <point x="792" y="328"/>
      <point x="754" y="236"/>
      <point x="696" y="174" type="curve" smooth="yes"/>
      <point x="656" y="132"/>
      <point x="604" y="100"/>
      <point x="544" y="76" type="curve"/>
      <point x="556" y="70"/>
      <point x="566" y="64"/>
      <point x="578" y="56" type="curve" smooth="yes"/>
      <point x="584" y="50"/>
      <point x="590" y="44"/>
      <point x="596" y="38" type="curve" smooth="yes"/>
      <point x="606" y="26"/>
      <point x="612" y="20"/>
      <point x="619" y="20" type="curve" smooth="yes"/>
      <point x="625" y="20"/>
      <point x="632" y="25"/>
      <point x="642" y="34" type="curve" smooth="yes"/>
      <point x="664" y="54"/>
      <point x="686" y="70"/>
    </contour>
    <contour>
      <point x="212" y="268" type="curve" smooth="yes"/>
      <point x="234" y="242"/>
      <point x="294" y="228"/>
      <point x="390" y="224" type="curve"/>
      <point x="530" y="240"/>
      <point x="612" y="312"/>
      <point x="612" y="418" type="curve" smooth="yes"/>
      <point x="612" y="426" type="line"/>
      <point x="596" y="462"/>
      <point x="576" y="476"/>
      <point x="564" y="480" type="curve" smooth="yes"/>
      <point x="550" y="486"/>
      <point x="534" y="488"/>
      <point x="518" y="488" type="curve" smooth="yes"/>
      <point x="464" y="488"/>
      <point x="400" y="462"/>
      <point x="324" y="426" type="curve" smooth="yes"/>
      <point x="312" y="420"/>
      <point x="300" y="418"/>
      <point x="286" y="418" type="curve" smooth="yes"/>
      <point x="270" y="418"/>
      <point x="254" y="422"/>
      <point x="240" y="430" type="curve"/>
      <point x="218" y="400"/>
      <point x="204" y="364"/>
      <point x="200" y="326" type="curve" smooth="yes"/>
      <point x="199" y="320"/>
      <point x="199" y="316"/>
      <point x="199" y="311" type="curve" smooth="yes"/>
      <point x="199" y="283"/>
      <point x="209" y="271"/>
    </contour>
  </outline>
</glyph>
<glyph name="R" format="2">
  <advance width="868"/>
  <unicode hex="0052"/>
  <outline>
    <contour>
      <point x="848" y="58" type="curve" smooth="yes"/>
      <point x="848" y="11"/>
      <point x="805" y="-32"/>
      <point x="758" y="-32" type="curve" smooth="yes"/>
      <point x="734" y="-32"/>
      <point x="710" y="-24"/>
      <point x="694" y="-6" type="curve" smooth="yes"/>
      <point x="606" y="84"/>
      <point x="490" y="138"/>
      <point x="376" y="146" type="curve" smooth="yes"/>
      <point x="366" y="146"/>
      <point x="358" y="148"/>
      <point x="350" y="152" type="curve"/>
      <point x="350" y="140"/>
      <point x="352" y="128"/>
      <point x="354" y="116" type="curve" smooth="yes"/>
      <point x="354" y="112"/>
      <point x="354" y="108"/>
      <point x="354" y="104" type="curve" smooth="yes"/>
      <point x="354" y="62"/>
      <point x="322" y="22"/>
      <point x="276" y="16" type="curve" smooth="yes"/>
      <point x="272" y="16"/>
      <point x="268" y="16"/>
      <point x="264" y="16" type="curve" smooth="yes"/>
      <point x="220" y="16"/>
      <point x="182" y="48"/>
      <point x="176" y="94" type="curve" smooth="yes"/>
      <point x="154" y="260"/>
      <point x="100" y="404"/>
      <point x="38" y="562" type="curve" smooth="yes"/>
      <point x="29" y="579"/>
      <point x="20" y="597"/>
      <point x="20" y="622" type="curve" smooth="yes"/>
      <point x="20" y="671"/>
      <point x="60" y="712"/>
      <point x="106" y="712" type="curve" smooth="yes"/>
      <point x="210" y="712" type="line" smooth="yes"/>
      <point x="288" y="712"/>
      <point x="364" y="710"/>
      <point x="428" y="696" type="curve" smooth="yes"/>
      <point x="516" y="676"/>
      <point x="576" y="632"/>
      <point x="614" y="562" type="curve" smooth="yes"/>
      <point x="618" y="556"/>
      <point x="622" y="550"/>
      <point x="624" y="542" type="curve" smooth="yes"/>
      <point x="634" y="502"/>
      <point x="640" y="464"/>
      <point x="640" y="428" type="curve" smooth="yes"/>
      <point x="640" y="376"/>
      <point x="628" y="322"/>
      <point x="604" y="282" type="curve" smooth="yes"/>
      <point x="602" y="280"/>
      <point x="602" y="276"/>
      <point x="600" y="274" type="curve"/>
      <point x="610" y="270"/>
      <point x="620" y="264"/>
      <point x="628" y="260" type="curve" smooth="yes"/>
      <point x="700" y="226"/>
      <point x="766" y="178"/>
      <point x="822" y="120" type="curve" smooth="yes"/>
      <point x="838" y="104"/>
      <point x="848" y="80"/>
    </contour>
    <contour>
      <point x="244" y="532" type="curve"/>
      <point x="272" y="458"/>
      <point x="298" y="376"/>
      <point x="318" y="300" type="curve"/>
      <point x="328" y="310"/>
      <point x="342" y="318"/>
      <point x="358" y="322" type="curve" smooth="yes"/>
      <point x="406" y="336"/>
      <point x="438" y="354"/>
      <point x="450" y="374" type="curve" smooth="yes"/>
      <point x="456" y="386"/>
      <point x="460" y="412"/>
      <point x="460" y="428" type="curve" smooth="yes"/>
      <point x="460" y="446"/>
      <point x="456" y="466"/>
      <point x="452" y="484" type="curve"/>
      <point x="424" y="524"/>
      <point x="366" y="530"/>
    </contour>
  </outline>
</glyph>
<glyph name="S" format="2">
  <advance width="814"/>
  <unicode hex="0053"/>
  <unicode hex="0405"/>
  <outline>
    <contour>
      <point x="450" y="501" type="curve" smooth="yes"/>
      <point x="643" y="501"/>
      <point x="769" y="341"/>
      <point x="794" y="173" type="curve"/>
      <point x="794" y="153" type="line" smooth="yes"/>
      <point x="794" y="99"/>
      <point x="772" y="53"/>
      <point x="732" y="17" type="curve" smooth="yes"/>
      <point x="684" y="-23"/>
      <point x="614" y="-43"/>
      <point x="520" y="-45" type="curve" smooth="yes"/>
      <point x="516" y="-45"/>
      <point x="512" y="-45"/>
      <point x="508" y="-45" type="curve" smooth="yes"/>
      <point x="434" y="-45"/>
      <point x="346" y="-33"/>
      <point x="252" y="-11" type="curve" smooth="yes"/>
      <point x="210" y="-1"/>
      <point x="182" y="35"/>
      <point x="182" y="75" type="curve" smooth="yes"/>
      <point x="182" y="132"/>
      <point x="226" y="167"/>
      <point x="274" y="167" type="curve" smooth="yes"/>
      <point x="280" y="167"/>
      <point x="286" y="167"/>
      <point x="292" y="165" type="curve" smooth="yes"/>
      <point x="374" y="145"/>
      <point x="448" y="135"/>
      <point x="510" y="135" type="curve" smooth="yes"/>
      <point x="526" y="135" type="line"/>
      <point x="586" y="137"/>
      <point x="608" y="149"/>
      <point x="614" y="155" type="curve"/>
      <point x="604" y="213"/>
      <point x="576" y="263"/>
      <point x="536" y="291" type="curve" smooth="yes"/>
      <point x="510" y="311"/>
      <point x="482" y="321"/>
      <point x="450" y="321" type="curve" smooth="yes"/>
      <point x="442" y="321"/>
      <point x="434" y="321"/>
      <point x="426" y="319" type="curve" smooth="yes"/>
      <point x="422" y="319"/>
      <point x="418" y="317"/>
      <point x="414" y="317" type="curve" smooth="yes"/>
      <point x="342" y="317"/>
      <point x="266" y="331"/>
      <point x="202" y="361" type="curve" smooth="yes"/>
      <point x="122" y="397"/>
      <point x="64" y="453"/>
      <point x="30" y="521" type="curve" smooth="yes"/>
      <point x="24" y="533"/>
      <point x="20" y="549"/>
      <point x="20" y="563" type="curve" smooth="yes"/>
      <point x="20" y="612"/>
      <point x="59" y="645"/>
      <point x="98" y="651" type="curve" smooth="yes"/>
      <point x="184" y="661"/>
      <point x="240" y="689"/>
      <point x="254" y="703" type="curve"/>
      <point x="270" y="731"/>
      <point x="300" y="747"/>
      <point x="330" y="747" type="curve" smooth="yes"/>
      <point x="384" y="747"/>
      <point x="422" y="705"/>
      <point x="422" y="659" type="curve" smooth="yes"/>
      <point x="422" y="643"/>
      <point x="418" y="629"/>
      <point x="410" y="615" type="curve" smooth="yes"/>
      <point x="388" y="571"/>
      <point x="342" y="539"/>
      <point x="292" y="519" type="curve"/>
      <point x="328" y="505"/>
      <point x="368" y="497"/>
      <point x="404" y="497" type="curve" smooth="yes"/>
      <point x="420" y="499"/>
      <point x="434" y="501"/>
    </contour>
    <contour>
      <point x="252" y="699" type="line"/>
    </contour>
  </outline>
</glyph>
<glyph name="T" format="2">
  <advance width="710"/>
  <unicode hex="0054"/>
  <unicode hex="0422"/>
  <unicode hex="03A4"/>
  <outline>
    <contour>
      <point x="612" y="598" type="curve" smooth="yes"/>
      <point x="580" y="594"/>
      <point x="548" y="592"/>
      <point x="518" y="588" type="curve"/>
      <point x="532" y="478"/>
      <point x="540" y="374"/>
      <point x="540" y="276" type="curve" smooth="yes"/>
      <point x="540" y="206"/>
      <point x="536" y="138"/>
      <point x="528" y="72" type="curve" smooth="yes"/>
      <point x="524" y="26"/>
      <point x="484" y="-8"/>
      <point x="440" y="-8" type="curve" smooth="yes"/>
      <point x="430" y="-8" type="line"/>
      <point x="384" y="-2"/>
      <point x="350" y="36"/>
      <point x="350" y="80" type="curve" smooth="yes"/>
      <point x="350" y="90" type="line"/>
      <point x="356" y="150"/>
      <point x="360" y="210"/>
      <point x="360" y="274" type="curve" smooth="yes"/>
      <point x="360" y="370"/>
      <point x="352" y="470"/>
      <point x="338" y="578" type="curve"/>
      <point x="310" y="576"/>
      <point x="280" y="576"/>
      <point x="254" y="576" type="curve" smooth="yes"/>
      <point x="202" y="576"/>
      <point x="152" y="578"/>
      <point x="104" y="580" type="curve" smooth="yes"/>
      <point x="56" y="584"/>
      <point x="20" y="624"/>
      <point x="20" y="672" type="curve" smooth="yes"/>
      <point x="20" y="676" type="line"/>
      <point x="24" y="724"/>
      <point x="62" y="760"/>
      <point x="108" y="760" type="curve" smooth="yes"/>
      <point x="116" y="760" type="line"/>
      <point x="158" y="758"/>
      <point x="200" y="756"/>
      <point x="244" y="756" type="curve" smooth="yes"/>
      <point x="350" y="756"/>
      <point x="466" y="764"/>
      <point x="592" y="776" type="curve" smooth="yes"/>
      <point x="596" y="776"/>
      <point x="600" y="776"/>
      <point x="604" y="776" type="curve" smooth="yes"/>
      <point x="646" y="776"/>
      <point x="686" y="744"/>
      <point x="690" y="698" type="curve"/>
      <point x="690" y="688" type="line" smooth="yes"/>
      <point x="690" y="642"/>
      <point x="656" y="604"/>
    </contour>
  </outline>
</glyph>
<glyph name="U" format="2">
  <advance width="740"/>
  <unicode hex="0055"/>
  <anchor x="292" y="759" name="top"/>
  <anchor x="458" y="9" name="bottom"/>
  <outline>
    <contour>
      <point x="390" y="711" type="curve" smooth="yes"/>
      <point x="390" y="759"/>
      <point x="434" y="801"/>
      <point x="480" y="801" type="curve" smooth="yes"/>
      <point x="500" y="801"/>
      <point x="520" y="793"/>
      <point x="538" y="779" type="curve" smooth="yes"/>
      <point x="644" y="689"/>
      <point x="676" y="589"/>
      <point x="690" y="539" type="curve" smooth="yes"/>
      <point x="692" y="535"/>
      <point x="694" y="529"/>
      <point x="696" y="527" type="curve" smooth="yes"/>
      <point x="698" y="519"/>
      <point x="700" y="511"/>
      <point x="702" y="503" type="curve" smooth="yes"/>
      <point x="714" y="433"/>
      <point x="720" y="373"/>
      <point x="720" y="321" type="curve" smooth="yes"/>
      <point x="720" y="231"/>
      <point x="702" y="167"/>
      <point x="666" y="117" type="curve" smooth="yes"/>
      <point x="614" y="45"/>
      <point x="532" y="23"/>
      <point x="468" y="13" type="curve"/>
      <point x="450" y="13" type="line"/>
      <point x="298" y="17"/>
      <point x="198" y="99"/>
      <point x="134" y="205" type="curve" smooth="yes"/>
      <point x="72" y="309"/>
      <point x="36" y="455"/>
      <point x="20" y="653" type="curve" smooth="yes"/>
      <point x="20" y="655"/>
      <point x="20" y="657"/>
      <point x="20" y="659" type="curve" smooth="yes"/>
      <point x="20" y="705"/>
      <point x="56" y="745"/>
      <point x="104" y="749" type="curve" smooth="yes"/>
      <point x="106" y="749"/>
      <point x="108" y="749"/>
      <point x="110" y="749" type="curve" smooth="yes"/>
      <point x="156" y="749"/>
      <point x="196" y="713"/>
      <point x="200" y="665" type="curve" smooth="yes"/>
      <point x="212" y="499"/>
      <point x="242" y="375"/>
      <point x="288" y="297" type="curve" smooth="yes"/>
      <point x="328" y="229"/>
      <point x="378" y="197"/>
      <point x="448" y="193" type="curve"/>
      <point x="498" y="201"/>
      <point x="514" y="213"/>
      <point x="520" y="223" type="curve" smooth="yes"/>
      <point x="530" y="237"/>
      <point x="538" y="265"/>
      <point x="538" y="321" type="curve" smooth="yes"/>
      <point x="538" y="356"/>
      <point x="537" y="434"/>
      <point x="520" y="485" type="curve" smooth="yes"/>
      <point x="508" y="523"/>
      <point x="488" y="585"/>
      <point x="422" y="641" type="curve" smooth="yes"/>
      <point x="402" y="659"/>
      <point x="390" y="685"/>
    </contour>
    <contour>
      <point x="694" y="527" type="line"/>
    </contour>
  </outline>
</glyph>
<glyph name="V" format="2">
  <advance width="738"/>
  <unicode hex="0056"/>
  <outline>
    <contour>
      <point x="414" y="28" type="curve" smooth="yes"/>
      <point x="226" y="296"/>
      <point x="104" y="430"/>
      <point x="58" y="462" type="curve" smooth="yes"/>
      <point x="34" y="480"/>
      <point x="20" y="508"/>
      <point x="20" y="538" type="curve" smooth="yes"/>
      <point x="20" y="554"/>
      <point x="26" y="572"/>
      <point x="36" y="588" type="curve" smooth="yes"/>
      <point x="54" y="612"/>
      <point x="82" y="626"/>
      <point x="110" y="626" type="curve" smooth="yes"/>
      <point x="128" y="626"/>
      <point x="146" y="620"/>
      <point x="162" y="608" type="curve" smooth="yes"/>
      <point x="242" y="552"/>
      <point x="368" y="394"/>
      <point x="464" y="266" type="curve"/>
      <point x="514" y="412"/>
      <point x="538" y="530"/>
      <point x="538" y="658" type="curve" smooth="yes"/>
      <point x="538" y="708"/>
      <point x="578" y="748"/>
      <point x="628" y="748" type="curve" smooth="yes"/>
      <point x="676" y="748"/>
      <point x="718" y="708"/>
      <point x="718" y="658" type="curve" smooth="yes"/>
      <point x="718" y="462"/>
      <point x="668" y="268"/>
      <point x="570" y="44" type="curve" smooth="yes"/>
      <point x="556" y="8"/>
      <point x="522" y="-10"/>
      <point x="488" y="-10" type="curve" smooth="yes"/>
      <point x="462" y="-10"/>
      <point x="432" y="2"/>
    </contour>
  </outline>
</glyph>
<glyph name="W" format="2">
  <advance width="1006"/>
  <unicode hex="0057"/>
  <outline>
    <contour>
      <point x="250" y="82" type="curve" smooth="yes"/>
      <point x="222" y="82"/>
      <point x="196" y="94"/>
      <point x="178" y="118" type="curve" smooth="yes"/>
      <point x="122" y="196"/>
      <point x="62" y="302"/>
      <point x="22" y="558" type="curve" smooth="yes"/>
      <point x="22" y="564"/>
      <point x="20" y="568"/>
      <point x="20" y="574" type="curve" smooth="yes"/>
      <point x="20" y="618"/>
      <point x="52" y="654"/>
      <point x="96" y="662" type="curve" smooth="yes"/>
      <point x="100" y="662"/>
      <point x="106" y="664"/>
      <point x="110" y="664" type="curve" smooth="yes"/>
      <point x="152" y="664"/>
      <point x="190" y="632"/>
      <point x="198" y="588" type="curve" smooth="yes"/>
      <point x="224" y="426"/>
      <point x="256" y="336"/>
      <point x="290" y="278" type="curve"/>
      <point x="348" y="302"/>
      <point x="398" y="350"/>
      <point x="446" y="418" type="curve" smooth="yes"/>
      <point x="462" y="444"/>
      <point x="492" y="458"/>
      <point x="524" y="458" type="curve" smooth="yes"/>
      <point x="554" y="456"/>
      <point x="582" y="440"/>
      <point x="598" y="412" type="curve" smooth="yes"/>
      <point x="630" y="356"/>
      <point x="684" y="324"/>
      <point x="726" y="306" type="curve"/>
      <point x="778" y="336"/>
      <point x="800" y="382"/>
      <point x="806" y="468" type="curve"/>
      <point x="794" y="544"/>
      <point x="762" y="556"/>
      <point x="722" y="556" type="curve" smooth="yes"/>
      <point x="718" y="556"/>
      <point x="714" y="556"/>
      <point x="710" y="556" type="curve" smooth="yes"/>
      <point x="662" y="556"/>
      <point x="620" y="594"/>
      <point x="618" y="644" type="curve" smooth="yes"/>
      <point x="618" y="694"/>
      <point x="656" y="736"/>
      <point x="706" y="736" type="curve" smooth="yes"/>
      <point x="716" y="736" type="line" smooth="yes"/>
      <point x="788" y="736"/>
      <point x="846" y="716"/>
      <point x="892" y="676" type="curve" smooth="yes"/>
      <point x="944" y="634"/>
      <point x="974" y="568"/>
      <point x="984" y="484" type="curve" smooth="yes"/>
      <point x="986" y="478"/>
      <point x="986" y="472"/>
      <point x="986" y="468" type="curve" smooth="yes"/>
      <point x="980" y="356"/>
      <point x="950" y="200"/>
      <point x="764" y="124" type="curve" smooth="yes"/>
      <point x="753" y="120"/>
      <point x="742" y="118"/>
      <point x="731" y="118" type="curve" smooth="yes"/>
      <point x="721" y="118"/>
      <point x="711" y="119"/>
      <point x="702" y="122" type="curve" smooth="yes"/>
      <point x="632" y="146"/>
      <point x="570" y="180"/>
      <point x="520" y="226" type="curve"/>
      <point x="448" y="150"/>
      <point x="364" y="102"/>
      <point x="268" y="82" type="curve" smooth="yes"/>
      <point x="262" y="82"/>
      <point x="256" y="82"/>
    </contour>
  </outline>
</glyph>
<glyph name="X" format="2">
  <advance width="717"/>
  <unicode hex="0058"/>
  <unicode hex="0425"/>
  <unicode hex="03A7"/>
  <outline>
    <contour>
      <point x="697" y="39" type="curve" smooth="yes"/>
      <point x="697" y="-11"/>
      <point x="659" y="-53"/>
      <point x="608" y="-53" type="curve" smooth="yes"/>
      <point x="572" y="-53"/>
      <point x="545" y="-35"/>
      <point x="529" y="-9" type="curve" smooth="yes"/>
      <point x="488" y="59"/>
      <point x="430" y="154"/>
      <point x="358" y="254" type="curve"/>
      <point x="298" y="170"/>
      <point x="243" y="81"/>
      <point x="189" y="-11" type="curve" smooth="yes"/>
      <point x="172" y="-40"/>
      <point x="143" y="-55"/>
      <point x="112" y="-55" type="curve" smooth="yes"/>
      <point x="55" y="-55"/>
      <point x="20" y="-11"/>
      <point x="20" y="35" type="curve" smooth="yes"/>
      <point x="20" y="53"/>
      <point x="26" y="69"/>
      <point x="32" y="80" type="curve" smooth="yes"/>
      <point x="99" y="193"/>
      <point x="167" y="300"/>
      <point x="242" y="401" type="curve"/>
      <point x="186" y="466"/>
      <point x="123" y="528"/>
      <point x="57" y="579" type="curve" smooth="yes"/>
      <point x="34" y="596"/>
      <point x="22" y="623"/>
      <point x="22" y="649" type="curve" smooth="yes"/>
      <point x="22" y="703"/>
      <point x="67" y="741"/>
      <point x="114" y="741" type="curve" smooth="yes"/>
      <point x="137" y="741"/>
      <point x="153" y="734"/>
      <point x="167" y="722" type="curve" smooth="yes"/>
      <point x="231" y="671"/>
      <point x="291" y="615"/>
      <point x="353" y="548" type="curve"/>
      <point x="401" y="608"/>
      <point x="453" y="666"/>
      <point x="504" y="723" type="curve" smooth="yes"/>
      <point x="522" y="743"/>
      <point x="546" y="754"/>
      <point x="571" y="754" type="curve" smooth="yes"/>
      <point x="622" y="754"/>
      <point x="661" y="708"/>
      <point x="661" y="662" type="curve" smooth="yes"/>
      <point x="661" y="635"/>
      <point x="650" y="617"/>
      <point x="636" y="601" type="curve" smooth="yes"/>
      <point x="579" y="537"/>
      <point x="524" y="473"/>
      <point x="470" y="406" type="curve"/>
      <point x="552" y="297"/>
      <point x="621" y="186"/>
      <point x="684" y="84" type="curve" smooth="yes"/>
      <point x="693" y="69"/>
      <point x="697" y="54"/>
    </contour>
  </outline>
</glyph>
<glyph name="Y" format="2">
  <advance width="702"/>
  <unicode hex="0059"/>
  <unicode hex="03A5"/>
  <outline>
    <contour>
      <point x="480" y="658" type="curve" smooth="yes"/>
      <point x="480" y="704"/>
      <point x="515" y="748"/>
      <point x="570" y="748" type="curve" smooth="yes"/>
      <point x="608" y="748"/>
      <point x="642" y="724"/>
      <point x="654" y="686" type="curve" smooth="yes"/>
      <point x="672" y="630"/>
      <point x="682" y="580"/>
      <point x="682" y="536" type="curve" smooth="yes"/>
      <point x="682" y="486"/>
      <point x="670" y="442"/>
      <point x="648" y="406" type="curve" smooth="yes"/>
      <point x="610" y="344"/>
      <point x="548" y="310"/>
      <point x="488" y="292" type="curve"/>
      <point x="496" y="230"/>
      <point x="499" y="202"/>
      <point x="499" y="132" type="curve" smooth="yes"/>
      <point x="499" y="84"/>
      <point x="499" y="46"/>
      <point x="495" y="-6" type="curve" smooth="yes"/>
      <point x="493" y="-54"/>
      <point x="453" y="-90"/>
      <point x="405" y="-90" type="curve" smooth="yes"/>
      <point x="403" y="-90"/>
      <point x="401" y="-90"/>
      <point x="399" y="-90" type="curve" smooth="yes"/>
      <point x="353" y="-88"/>
      <point x="315" y="-46"/>
      <point x="315" y="2" type="curve" smooth="yes"/>
      <point x="315" y="6" type="line"/>
      <point x="319" y="54"/>
      <point x="319" y="88"/>
      <point x="319" y="132" type="curve" smooth="yes"/>
      <point x="319" y="196"/>
      <point x="316" y="216"/>
      <point x="308" y="272" type="curve"/>
      <point x="242" y="278"/>
      <point x="170" y="296"/>
      <point x="112" y="354" type="curve" smooth="yes"/>
      <point x="48" y="418"/>
      <point x="20" y="513"/>
      <point x="20" y="642" type="curve" smooth="yes"/>
      <point x="20" y="668" type="line"/>
      <point x="22" y="714"/>
      <point x="62" y="754"/>
      <point x="110" y="754" type="curve" smooth="yes"/>
      <point x="114" y="754" type="line"/>
      <point x="160" y="752"/>
      <point x="200" y="714"/>
      <point x="200" y="666" type="curve" smooth="yes"/>
      <point x="200" y="642" type="line" smooth="yes"/>
      <point x="200" y="562"/>
      <point x="212" y="508"/>
      <point x="240" y="482" type="curve" smooth="yes"/>
      <point x="262" y="460"/>
      <point x="300" y="450"/>
      <point x="360" y="450" type="curve" smooth="yes"/>
      <point x="376" y="450" type="line"/>
      <point x="456" y="464"/>
      <point x="484" y="484"/>
      <point x="494" y="500" type="curve" smooth="yes"/>
      <point x="500" y="508"/>
      <point x="502" y="522"/>
      <point x="502" y="538" type="curve" smooth="yes"/>
      <point x="502" y="562"/>
      <point x="496" y="592"/>
      <point x="484" y="630" type="curve" smooth="yes"/>
      <point x="480" y="640"/>
      <point x="480" y="650"/>
    </contour>
  </outline>
</glyph>
<glyph name="Z" format="2">
  <advance width="760"/>
  <unicode hex="005A"/>
  <outline>
    <contour>
      <point x="627" y="530" type="curve" smooth="yes"/>
      <point x="674" y="530"/>
      <point x="718" y="499"/>
      <point x="718" y="443" type="curve" smooth="yes"/>
      <point x="718" y="401"/>
      <point x="694" y="367"/>
      <point x="656" y="355" type="curve" smooth="yes"/>
      <point x="538" y="315"/>
      <point x="442" y="286"/>
      <point x="365" y="266" type="curve"/>
      <point x="353" y="235"/>
      <point x="348" y="209"/>
      <point x="345" y="189" type="curve" smooth="yes"/>
      <point x="344" y="179"/>
      <point x="342" y="171"/>
      <point x="342" y="163" type="curve" smooth="yes"/>
      <point x="342" y="161"/>
      <point x="342" y="159"/>
      <point x="342" y="157" type="curve" smooth="yes"/>
      <point x="342" y="135"/>
      <point x="347" y="119"/>
      <point x="353" y="110" type="curve"/>
      <point x="359" y="112"/>
      <point x="371" y="113"/>
      <point x="389" y="120" type="curve" smooth="yes"/>
      <point x="417" y="129"/>
      <point x="453" y="145"/>
      <point x="494" y="163" type="curve" smooth="yes"/>
      <point x="531" y="177"/>
      <point x="574" y="194"/>
      <point x="619" y="212" type="curve" smooth="yes"/>
      <point x="629" y="216"/>
      <point x="639" y="218"/>
      <point x="649" y="218" type="curve" smooth="yes"/>
      <point x="687" y="216"/>
      <point x="721" y="198"/>
      <point x="734" y="160" type="curve" smooth="yes"/>
      <point x="738" y="150"/>
      <point x="740" y="140"/>
      <point x="740" y="130" type="curve" smooth="yes"/>
      <point x="740" y="90"/>
      <point x="718" y="57"/>
      <point x="682" y="45" type="curve" smooth="yes"/>
      <point x="641" y="29"/>
      <point x="602" y="13"/>
      <point x="565" y="-3" type="curve" smooth="yes"/>
      <point x="479" y="-40"/>
      <point x="406" y="-71"/>
      <point x="342" y="-71" type="curve" smooth="yes"/>
      <point x="313" y="-71"/>
      <point x="290" y="-64"/>
      <point x="266" y="-52" type="curve" smooth="yes"/>
      <point x="260" y="-50"/>
      <point x="255" y="-45"/>
      <point x="249" y="-41" type="curve" smooth="yes"/>
      <point x="191" y="10"/>
      <point x="162" y="75"/>
      <point x="162" y="158" type="curve" smooth="yes"/>
      <point x="162" y="179"/>
      <point x="162" y="196"/>
      <point x="166" y="216" type="curve" smooth="yes"/>
      <point x="168" y="220"/>
      <point x="169" y="226"/>
      <point x="169" y="230" type="curve"/>
      <point x="165" y="230"/>
      <point x="161" y="231"/>
      <point x="157" y="231" type="curve" smooth="yes"/>
      <point x="133" y="232"/>
      <point x="114" y="237"/>
      <point x="94" y="246" type="curve" smooth="yes"/>
      <point x="55" y="266"/>
      <point x="40" y="299"/>
      <point x="35" y="313" type="curve" smooth="yes"/>
      <point x="25" y="329"/>
      <point x="20" y="346"/>
      <point x="20" y="363" type="curve" smooth="yes"/>
      <point x="20" y="390"/>
      <point x="31" y="414"/>
      <point x="51" y="432" type="curve" smooth="yes"/>
      <point x="69" y="446"/>
      <point x="89" y="453"/>
      <point x="110" y="453" type="curve" smooth="yes"/>
      <point x="137" y="453"/>
      <point x="161" y="442"/>
      <point x="177" y="422" type="curve" smooth="yes"/>
      <point x="182" y="417"/>
      <point x="181" y="411"/>
      <point x="189" y="411" type="curve" smooth="yes"/>
      <point x="199" y="411"/>
      <point x="215" y="415"/>
      <point x="235" y="419" type="curve"/>
      <point x="255" y="460"/>
      <point x="280" y="502"/>
      <point x="306" y="547" type="curve"/>
      <point x="225" y="547"/>
      <point x="153" y="549"/>
      <point x="90" y="568" type="curve" smooth="yes"/>
      <point x="50" y="580"/>
      <point x="25" y="617"/>
      <point x="25" y="657" type="curve" smooth="yes"/>
      <point x="25" y="659"/>
      <point x="25" y="660"/>
      <point x="25" y="662" type="curve" smooth="yes"/>
      <point x="25" y="668"/>
      <point x="26" y="674"/>
      <point x="28" y="680" type="curve" smooth="yes"/>
      <point x="40" y="720"/>
      <point x="78" y="745"/>
      <point x="118" y="745" type="curve" smooth="yes"/>
      <point x="120" y="745"/>
      <point x="120" y="745"/>
      <point x="122" y="745" type="curve" smooth="yes"/>
      <point x="128" y="745"/>
      <point x="134" y="744"/>
      <point x="140" y="742" type="curve" smooth="yes"/>
      <point x="176" y="733"/>
      <point x="215" y="726"/>
      <point x="261" y="726" type="curve" smooth="yes"/>
      <point x="321" y="726"/>
      <point x="391" y="735"/>
      <point x="471" y="753" type="curve" smooth="yes"/>
      <point x="477" y="754"/>
      <point x="482" y="755"/>
      <point x="489" y="755" type="curve" smooth="yes"/>
      <point x="522" y="755"/>
      <point x="551" y="743"/>
      <point x="567" y="716" type="curve" smooth="yes"/>
      <point x="577" y="700"/>
      <point x="582" y="683"/>
      <point x="582" y="666" type="curve" smooth="yes"/>
      <point x="582" y="647"/>
      <point x="577" y="628"/>
      <point x="565" y="614" type="curve" smooth="yes"/>
      <point x="531" y="568"/>
      <point x="505" y="525"/>
      <point x="481" y="486" type="curve"/>
      <point x="518" y="498"/>
      <point x="556" y="512"/>
      <point x="599" y="526" type="curve" smooth="yes"/>
      <point x="607" y="528"/>
      <point x="617" y="530"/>
    </contour>
  </outline>
</glyph>
<glyph name="bracketleft" format="2">
  <advance width="560"/>
  <unicode hex="005B"/>
  <outline>
    <contour>
      <point x="452" y="68" type="curve" smooth="yes"/>
      <point x="496" y="68"/>
      <point x="540" y="35"/>
      <point x="540" y="-20" type="curve" smooth="yes"/>
      <point x="540" y="-60"/>
      <point x="514" y="-98"/>
      <point x="474" y="-110" type="curve" smooth="yes"/>
      <point x="386" y="-134"/>
      <point x="288" y="-148"/>
      <point x="172" y="-152" type="curve"/>
      <point x="168" y="-152" type="line" smooth="yes"/>
      <point x="117" y="-152"/>
      <point x="78" y="-110"/>
      <point x="78" y="-62" type="curve" smooth="yes"/>
      <point x="76" y="166"/>
      <point x="70" y="424"/>
      <point x="22" y="602" type="curve" smooth="yes"/>
      <point x="20" y="610"/>
      <point x="20" y="616"/>
      <point x="20" y="622" type="curve" smooth="yes"/>
      <point x="20" y="672"/>
      <point x="59" y="714"/>
      <point x="106" y="714" type="curve" smooth="yes"/>
      <point x="148" y="714" type="line" smooth="yes"/>
      <point x="234" y="714"/>
      <point x="294" y="720"/>
      <point x="346" y="738" type="curve" smooth="yes"/>
      <point x="356" y="742"/>
      <point x="364" y="742"/>
      <point x="374" y="742" type="curve" smooth="yes"/>
      <point x="420" y="742"/>
      <point x="464" y="707"/>
      <point x="464" y="652" type="curve" smooth="yes"/>
      <point x="464" y="614"/>
      <point x="440" y="578"/>
      <point x="402" y="566" type="curve" smooth="yes"/>
      <point x="342" y="546"/>
      <point x="280" y="538"/>
      <point x="222" y="536" type="curve"/>
      <point x="246" y="382"/>
      <point x="254" y="204"/>
      <point x="256" y="34" type="curve"/>
      <point x="320" y="40"/>
      <point x="376" y="50"/>
      <point x="428" y="64" type="curve" smooth="yes"/>
      <point x="436" y="66"/>
      <point x="444" y="68"/>
    </contour>
  </outline>
</glyph>
<glyph name="backslash" format="2">
  <advance width="720"/>
  <unicode hex="005C"/>
  <outline>
    <contour>
      <point x="610" y="11" type="curve" smooth="yes"/>
      <point x="584" y="11"/>
      <point x="558" y="21"/>
      <point x="540" y="43" type="curve" smooth="yes"/>
      <point x="508" y="83" type="line" smooth="yes"/>
      <point x="320" y="319"/>
      <point x="138" y="525"/>
      <point x="58" y="583" type="curve" smooth="yes"/>
      <point x="32" y="601"/>
      <point x="20" y="629"/>
      <point x="20" y="655" type="curve" smooth="yes"/>
      <point x="20" y="675"/>
      <point x="26" y="693"/>
      <point x="38" y="709" type="curve" smooth="yes"/>
      <point x="54" y="733"/>
      <point x="82" y="747"/>
      <point x="110" y="747" type="curve" smooth="yes"/>
      <point x="128" y="747"/>
      <point x="146" y="741"/>
      <point x="162" y="729" type="curve" smooth="yes"/>
      <point x="258" y="661"/>
      <point x="390" y="519"/>
      <point x="650" y="197" type="curve" smooth="yes"/>
      <point x="680" y="157" type="line" smooth="yes"/>
      <point x="694" y="139"/>
      <point x="700" y="119"/>
      <point x="700" y="99" type="curve" smooth="yes"/>
      <point x="700" y="73"/>
      <point x="688" y="47"/>
      <point x="666" y="29" type="curve" smooth="yes"/>
      <point x="650" y="17"/>
      <point x="630" y="11"/>
    </contour>
  </outline>
</glyph>
<glyph name="bracketright" format="2">
  <advance width="578"/>
  <unicode hex="005D"/>
  <outline>
    <contour>
      <point x="404" y="776" type="curve" smooth="yes"/>
      <point x="457" y="776"/>
      <point x="494" y="732"/>
      <point x="494" y="684" type="curve" smooth="yes"/>
      <point x="494" y="650"/>
      <point x="492" y="618"/>
      <point x="492" y="586" type="curve" smooth="yes"/>
      <point x="492" y="342"/>
      <point x="514" y="154"/>
      <point x="554" y="24" type="curve" smooth="yes"/>
      <point x="558" y="14"/>
      <point x="558" y="4"/>
      <point x="558" y="-4" type="curve" smooth="yes"/>
      <point x="558" y="-49"/>
      <point x="530" y="-78"/>
      <point x="494" y="-90" type="curve" smooth="yes"/>
      <point x="402" y="-116"/>
      <point x="308" y="-132"/>
      <point x="214" y="-136" type="curve"/>
      <point x="210" y="-136" type="line" smooth="yes"/>
      <point x="162" y="-136"/>
      <point x="122" y="-100"/>
      <point x="120" y="-50" type="curve"/>
      <point x="120" y="-46" type="line" smooth="yes"/>
      <point x="120" y="0"/>
      <point x="158" y="40"/>
      <point x="206" y="42" type="curve" smooth="yes"/>
      <point x="258" y="46"/>
      <point x="308" y="52"/>
      <point x="358" y="62" type="curve"/>
      <point x="328" y="196"/>
      <point x="314" y="366"/>
      <point x="312" y="576" type="curve"/>
      <point x="282" y="572"/>
      <point x="248" y="572"/>
      <point x="208" y="572" type="curve" smooth="yes"/>
      <point x="178" y="572"/>
      <point x="142" y="572"/>
      <point x="106" y="574" type="curve" smooth="yes"/>
      <point x="58" y="576"/>
      <point x="20" y="616"/>
      <point x="20" y="662" type="curve" smooth="yes"/>
      <point x="20" y="666" type="line"/>
      <point x="22" y="714"/>
      <point x="62" y="752"/>
      <point x="110" y="752" type="curve" smooth="yes"/>
      <point x="114" y="752" type="line" smooth="yes"/>
      <point x="142" y="752"/>
      <point x="168" y="750"/>
      <point x="190" y="750" type="curve" smooth="yes"/>
      <point x="304" y="750"/>
      <point x="350" y="762"/>
      <point x="370" y="770" type="curve" smooth="yes"/>
      <point x="380" y="774"/>
      <point x="392" y="776"/>
    </contour>
  </outline>
</glyph>
<glyph name="asciicircum" format="2">
  <advance width="686"/>
  <unicode hex="005E"/>
  <unicode hex="0302"/>
  <anchor x="346" y="342" name="_top"/>
  <outline>
    <contour>
      <point x="666" y="434" type="curve" smooth="yes"/>
      <point x="666" y="389"/>
      <point x="627" y="344"/>
      <point x="576" y="344" type="curve" smooth="yes"/>
      <point x="546" y="344"/>
      <point x="518" y="358"/>
      <point x="500" y="384" type="curve" smooth="yes"/>
      <point x="488" y="404"/>
      <point x="450" y="446"/>
      <point x="342" y="536" type="curve"/>
      <point x="290" y="474"/>
      <point x="238" y="402"/>
      <point x="186" y="322" type="curve" smooth="yes"/>
      <point x="170" y="294"/>
      <point x="140" y="280"/>
      <point x="110" y="280" type="curve" smooth="yes"/>
      <point x="57" y="280"/>
      <point x="20" y="324"/>
      <point x="20" y="370" type="curve" smooth="yes"/>
      <point x="20" y="386"/>
      <point x="24" y="404"/>
      <point x="34" y="418" type="curve" smooth="yes"/>
      <point x="110" y="536"/>
      <point x="188" y="638"/>
      <point x="266" y="720" type="curve" smooth="yes"/>
      <point x="284" y="738"/>
      <point x="308" y="746"/>
      <point x="330" y="746" type="curve" smooth="yes"/>
      <point x="350" y="746"/>
      <point x="370" y="740"/>
      <point x="386" y="728" type="curve" smooth="yes"/>
      <point x="574" y="584"/>
      <point x="626" y="520"/>
      <point x="650" y="484" type="curve" smooth="yes"/>
      <point x="660" y="468"/>
      <point x="666" y="452"/>
    </contour>
  </outline>
</glyph>
<glyph name="underscore" format="2">
  <advance width="536"/>
  <unicode hex="005F"/>
  <outline>
    <contour>
      <point x="426" y="62" type="curve" smooth="yes"/>
      <point x="472" y="62"/>
      <point x="516" y="27"/>
      <point x="516" y="-28" type="curve" smooth="yes"/>
      <point x="516" y="-68"/>
      <point x="488" y="-104"/>
      <point x="448" y="-114" type="curve" smooth="yes"/>
      <point x="428" y="-120"/>
      <point x="404" y="-122"/>
      <point x="378" y="-122" type="curve" smooth="yes"/>
      <point x="282" y="-122"/>
      <point x="158" y="-96"/>
      <point x="86" y="-76" type="curve" smooth="yes"/>
      <point x="46" y="-64"/>
      <point x="20" y="-30"/>
      <point x="20" y="10" type="curve" smooth="yes"/>
      <point x="20" y="64"/>
      <point x="65" y="100"/>
      <point x="112" y="100" type="curve" smooth="yes"/>
      <point x="118" y="100"/>
      <point x="126" y="100"/>
      <point x="134" y="98" type="curve" smooth="yes"/>
      <point x="242" y="70"/>
      <point x="336" y="58"/>
      <point x="380" y="58" type="curve" smooth="yes"/>
      <point x="403" y="58"/>
      <point x="407" y="62"/>
    </contour>
  </outline>
</glyph>
<glyph name="grave" format="2">
  <advance width="434"/>
  <unicode hex="0060"/>
  <outline>
    <contour>
      <point x="20" y="666" type="curve" smooth="yes"/>
      <point x="20" y="720"/>
      <point x="63" y="754"/>
      <point x="110" y="754" type="curve" smooth="yes"/>
      <point x="118" y="754"/>
      <point x="124" y="754"/>
      <point x="130" y="752" type="curve" smooth="yes"/>
      <point x="190" y="740"/>
      <point x="264" y="690"/>
      <point x="382" y="590" type="curve" smooth="yes"/>
      <point x="402" y="572"/>
      <point x="414" y="548"/>
      <point x="414" y="522" type="curve" smooth="yes"/>
      <point x="414" y="502"/>
      <point x="406" y="480"/>
      <point x="390" y="462" type="curve" smooth="yes"/>
      <point x="374" y="442"/>
      <point x="348" y="432"/>
      <point x="322" y="432" type="curve" smooth="yes"/>
      <point x="302" y="432"/>
      <point x="280" y="438"/>
      <point x="264" y="454" type="curve" smooth="yes"/>
      <point x="136" y="564"/>
      <point x="96" y="576"/>
      <point x="90" y="576" type="curve" smooth="yes"/>
      <point x="48" y="586"/>
      <point x="20" y="624"/>
    </contour>
  </outline>
</glyph>
<glyph name="a" format="2">
  <advance width="872"/>
  <unicode hex="0061"/>
  <unicode hex="0430"/>
  <anchor x="330" y="522" name="top"/>
  <anchor x="296" y="-20" name="bottom"/>
  <outline>
    <contour>
      <point x="544" y="412" type="curve" smooth="yes"/>
      <point x="544" y="387"/>
      <point x="532" y="366"/>
      <point x="520" y="350" type="curve"/>
      <point x="524" y="350"/>
      <point x="528" y="352"/>
      <point x="532" y="352" type="curve" smooth="yes"/>
      <point x="564" y="352"/>
      <point x="596" y="334"/>
      <point x="612" y="306" type="curve" smooth="yes"/>
      <point x="642" y="254"/>
      <point x="704" y="196"/>
      <point x="776" y="184" type="curve" smooth="yes"/>
      <point x="820" y="176"/>
      <point x="852" y="138"/>
      <point x="852" y="94" type="curve" smooth="yes"/>
      <point x="852" y="90"/>
      <point x="850" y="84"/>
      <point x="850" y="80" type="curve" smooth="yes"/>
      <point x="842" y="36"/>
      <point x="806" y="4"/>
      <point x="762" y="4" type="curve" smooth="yes"/>
      <point x="756" y="4"/>
      <point x="752" y="6"/>
      <point x="746" y="6" type="curve" smooth="yes"/>
      <point x="666" y="18"/>
      <point x="598" y="58"/>
      <point x="546" y="106" type="curve"/>
      <point x="536" y="94"/>
      <point x="526" y="82"/>
      <point x="514" y="70" type="curve" smooth="yes"/>
      <point x="466" y="28"/>
      <point x="404" y="2"/>
      <point x="322" y="-12" type="curve" smooth="yes"/>
      <point x="320" y="-12"/>
      <point x="318" y="-12"/>
      <point x="316" y="-12" type="curve" smooth="yes"/>
      <point x="300" y="-14"/>
      <point x="286" y="-16"/>
      <point x="270" y="-16" type="curve" smooth="yes"/>
      <point x="188" y="-16"/>
      <point x="118" y="10"/>
      <point x="74" y="60" type="curve" smooth="yes"/>
      <point x="48" y="88"/>
      <point x="20" y="134"/>
      <point x="20" y="204" type="curve" smooth="yes"/>
      <point x="20" y="222"/>
      <point x="22" y="240"/>
      <point x="26" y="262" type="curve" smooth="yes"/>
      <point x="46" y="360"/>
      <point x="108" y="444"/>
      <point x="192" y="490" type="curve" smooth="yes"/>
      <point x="234" y="512"/>
      <point x="280" y="524"/>
      <point x="330" y="526" type="curve" smooth="yes"/>
      <point x="382" y="526"/>
      <point x="434" y="516"/>
      <point x="488" y="494" type="curve" smooth="yes"/>
      <point x="522" y="480"/>
      <point x="544" y="446"/>
    </contour>
    <contour>
      <point x="338" y="346" type="curve" smooth="yes"/>
      <point x="264" y="346"/>
      <point x="216" y="289"/>
      <point x="202" y="226" type="curve" smooth="yes"/>
      <point x="201" y="221"/>
      <point x="200" y="212"/>
      <point x="200" y="204" type="curve" smooth="yes"/>
      <point x="200" y="196"/>
      <point x="201" y="187"/>
      <point x="206" y="182" type="curve" smooth="yes"/>
      <point x="214" y="172"/>
      <point x="238" y="164"/>
      <point x="270" y="164" type="curve" smooth="yes"/>
      <point x="278" y="164"/>
      <point x="286" y="166"/>
      <point x="294" y="166" type="curve" smooth="yes"/>
      <point x="392" y="182"/>
      <point x="406" y="210"/>
      <point x="440" y="278" type="curve" smooth="yes"/>
      <point x="446" y="286"/>
      <point x="450" y="294"/>
      <point x="454" y="304" type="curve" smooth="yes"/>
      <point x="458" y="310"/>
      <point x="462" y="316"/>
      <point x="466" y="322" type="curve"/>
      <point x="461" y="321"/>
      <point x="455" y="320"/>
      <point x="450" y="320" type="curve" smooth="yes"/>
      <point x="418" y="328" type="line" smooth="yes"/>
      <point x="390" y="340"/>
      <point x="362" y="346"/>
    </contour>
  </outline>
</glyph>
<glyph name="b" format="2">
  <advance width="916"/>
  <unicode hex="0062"/>
  <outline>
    <contour>
      <point x="20" y="869" type="curve" smooth="yes"/>
      <point x="20" y="915"/>
      <point x="57" y="959"/>
      <point x="110" y="959" type="curve" smooth="yes"/>
      <point x="142" y="959"/>
      <point x="172" y="943"/>
      <point x="188" y="913" type="curve" smooth="yes"/>
      <point x="254" y="797"/>
      <point x="320" y="665"/>
      <point x="380" y="525" type="curve"/>
      <point x="420" y="555"/>
      <point x="466" y="571"/>
      <point x="512" y="573" type="curve"/>
      <point x="514" y="573" type="line" smooth="yes"/>
      <point x="590" y="573"/>
      <point x="666" y="553"/>
      <point x="732" y="519" type="curve" smooth="yes"/>
      <point x="804" y="479"/>
      <point x="856" y="423"/>
      <point x="878" y="359" type="curve" smooth="yes"/>
      <point x="890" y="323"/>
      <point x="896" y="289"/>
      <point x="896" y="257" type="curve" smooth="yes"/>
      <point x="896" y="223"/>
      <point x="888" y="193"/>
      <point x="874" y="163" type="curve" smooth="yes"/>
      <point x="844" y="101"/>
      <point x="786" y="55"/>
      <point x="698" y="25" type="curve" smooth="yes"/>
      <point x="692" y="25"/>
      <point x="688" y="23"/>
      <point x="682" y="23" type="curve" smooth="yes"/>
      <point x="652" y="17"/>
      <point x="624" y="15"/>
      <point x="594" y="15" type="curve" smooth="yes"/>
      <point x="570" y="15"/>
      <point x="544" y="17"/>
      <point x="520" y="19" type="curve"/>
      <point x="504" y="3"/>
      <point x="484" y="-7"/>
      <point x="454" y="-7" type="curve" smooth="yes"/>
      <point x="418" y="-7"/>
      <point x="382" y="15"/>
      <point x="370" y="53" type="curve"/>
      <point x="360" y="55"/>
      <point x="348" y="59"/>
      <point x="338" y="63" type="curve" smooth="yes"/>
      <point x="302" y="75"/>
      <point x="278" y="111"/>
      <point x="278" y="147" type="curve" smooth="yes"/>
      <point x="278" y="157"/>
      <point x="280" y="167"/>
      <point x="284" y="177" type="curve" smooth="yes"/>
      <point x="288" y="193"/>
      <point x="298" y="207"/>
      <point x="312" y="217" type="curve"/>
      <point x="228" y="439"/>
      <point x="132" y="649"/>
      <point x="32" y="825" type="curve" smooth="yes"/>
      <point x="24" y="839"/>
      <point x="20" y="855"/>
    </contour>
    <contour>
      <point x="712" y="241" type="curve" smooth="yes"/>
      <point x="715" y="246"/>
      <point x="716" y="252"/>
      <point x="716" y="259" type="curve" smooth="yes"/>
      <point x="716" y="273"/>
      <point x="711" y="290"/>
      <point x="706" y="303" type="curve" smooth="yes"/>
      <point x="689" y="355"/>
      <point x="584" y="393"/>
      <point x="516" y="393" type="curve" smooth="yes"/>
      <point x="494" y="391"/>
      <point x="472" y="373"/>
      <point x="456" y="345" type="curve"/>
      <point x="474" y="297"/>
      <point x="492" y="251"/>
      <point x="508" y="203" type="curve"/>
      <point x="538" y="199"/>
      <point x="566" y="195"/>
      <point x="594" y="195" type="curve" smooth="yes"/>
      <point x="612" y="195"/>
      <point x="630" y="197"/>
      <point x="648" y="199" type="curve"/>
      <point x="682" y="211"/>
      <point x="706" y="227"/>
    </contour>
  </outline>
</glyph>
<glyph name="c" format="2">
  <advance width="660"/>
  <unicode hex="0063"/>
  <unicode hex="0441"/>
  <outline>
    <contour>
      <point x="350" y="-11" type="curve"/>
      <point x="342" y="-11" type="line" smooth="yes"/>
      <point x="203" y="-11"/>
      <point x="20" y="107"/>
      <point x="20" y="259" type="curve" smooth="yes"/>
      <point x="20" y="261"/>
      <point x="20" y="263"/>
      <point x="20" y="265" type="curve" smooth="yes"/>
      <point x="20" y="331"/>
      <point x="60" y="403"/>
      <point x="130" y="459" type="curve" smooth="yes"/>
      <point x="170" y="489"/>
      <point x="214" y="513"/>
      <point x="258" y="529" type="curve" smooth="yes"/>
      <point x="292" y="539"/>
      <point x="326" y="545"/>
      <point x="360" y="545" type="curve" smooth="yes"/>
      <point x="378" y="545"/>
      <point x="396" y="543"/>
      <point x="414" y="539" type="curve" smooth="yes"/>
      <point x="456" y="529"/>
      <point x="484" y="493"/>
      <point x="484" y="451" type="curve" smooth="yes"/>
      <point x="484" y="396"/>
      <point x="442" y="361"/>
      <point x="394" y="361" type="curve" smooth="yes"/>
      <point x="379" y="361"/>
      <point x="369" y="365"/>
      <point x="356" y="365" type="curve" smooth="yes"/>
      <point x="326" y="365"/>
      <point x="284" y="349"/>
      <point x="250" y="323" type="curve" smooth="yes"/>
      <point x="214" y="297"/>
      <point x="200" y="269"/>
      <point x="200" y="263" type="curve" smooth="yes"/>
      <point x="200" y="261" type="line" smooth="yes"/>
      <point x="200" y="255"/>
      <point x="206" y="241"/>
      <point x="222" y="225" type="curve" smooth="yes"/>
      <point x="254" y="193"/>
      <point x="304" y="169"/>
      <point x="342" y="169" type="curve" smooth="yes"/>
      <point x="388" y="171"/>
      <point x="448" y="183"/>
      <point x="480" y="221" type="curve" smooth="yes"/>
      <point x="498" y="243"/>
      <point x="524" y="255"/>
      <point x="550" y="255" type="curve" smooth="yes"/>
      <point x="600" y="255"/>
      <point x="640" y="211"/>
      <point x="640" y="165" type="curve" smooth="yes"/>
      <point x="640" y="145"/>
      <point x="632" y="125"/>
      <point x="620" y="109" type="curve" smooth="yes"/>
      <point x="561" y="38"/>
      <point x="472" y="-3"/>
    </contour>
  </outline>
</glyph>
<glyph name="d" format="2">
  <advance width="694"/>
  <unicode hex="0064"/>
  <outline>
    <contour>
      <point x="674" y="330" type="line" smooth="yes"/>
      <point x="674" y="141"/>
      <point x="523" y="22"/>
      <point x="330" y="18" type="curve"/>
      <point x="328" y="18" type="line" smooth="yes"/>
      <point x="246" y="18"/>
      <point x="174" y="40"/>
      <point x="120" y="80" type="curve" smooth="yes"/>
      <point x="56" y="128"/>
      <point x="20" y="200"/>
      <point x="20" y="282" type="curve" smooth="yes"/>
      <point x="20" y="433"/>
      <point x="145" y="536"/>
      <point x="284" y="564" type="curve" smooth="yes"/>
      <point x="286" y="564"/>
      <point x="288" y="566"/>
      <point x="290" y="566" type="curve" smooth="yes"/>
      <point x="314" y="568"/>
      <point x="336" y="570"/>
      <point x="360" y="570" type="curve" smooth="yes"/>
      <point x="374" y="570"/>
      <point x="388" y="570"/>
      <point x="402" y="568" type="curve"/>
      <point x="394" y="586"/>
      <point x="384" y="604"/>
      <point x="376" y="622" type="curve" smooth="yes"/>
      <point x="308" y="762"/>
      <point x="284" y="816"/>
      <point x="282" y="856" type="curve"/>
      <point x="282" y="860" type="line" smooth="yes"/>
      <point x="282" y="908"/>
      <point x="320" y="948"/>
      <point x="368" y="952" type="curve"/>
      <point x="372" y="952" type="line" smooth="yes"/>
      <point x="418" y="952"/>
      <point x="458" y="916"/>
      <point x="462" y="870" type="curve" smooth="yes"/>
      <point x="468" y="846"/>
      <point x="508" y="762"/>
      <point x="538" y="700" type="curve" smooth="yes"/>
      <point x="620" y="530"/>
      <point x="674" y="412"/>
      <point x="674" y="338" type="curve" smooth="yes"/>
    </contour>
    <contour>
      <point x="318" y="388" type="curve" smooth="yes"/>
      <point x="262" y="376"/>
      <point x="200" y="340"/>
      <point x="200" y="282" type="curve" smooth="yes"/>
      <point x="200" y="256"/>
      <point x="208" y="238"/>
      <point x="226" y="224" type="curve" smooth="yes"/>
      <point x="246" y="210"/>
      <point x="278" y="198"/>
      <point x="316" y="198" type="curve" smooth="yes"/>
      <point x="326" y="198" type="line"/>
      <point x="372" y="200"/>
      <point x="496" y="224"/>
      <point x="496" y="318" type="curve" smooth="yes"/>
      <point x="496" y="328"/>
      <point x="494" y="338"/>
      <point x="492" y="348" type="curve"/>
      <point x="476" y="352"/>
      <point x="460" y="360"/>
      <point x="448" y="372" type="curve" smooth="yes"/>
      <point x="440" y="378"/>
      <point x="406" y="390"/>
      <point x="356" y="390" type="curve" smooth="yes"/>
      <point x="344" y="390"/>
      <point x="332" y="390"/>
    </contour>
  </outline>
</glyph>
<glyph name="e" format="2">
  <advance width="736"/>
  <unicode hex="0065"/>
  <unicode hex="0435"/>
  <anchor x="392" y="598" name="top"/>
  <anchor x="376" y="-64" name="bottom"/>
  <outline>
    <contour>
      <point x="626" y="172" type="curve" smooth="yes"/>
      <point x="673" y="172"/>
      <point x="716" y="133"/>
      <point x="716" y="80" type="curve" smooth="yes"/>
      <point x="716" y="50"/>
      <point x="700" y="20"/>
      <point x="670" y="2" type="curve" smooth="yes"/>
      <point x="594" y="-40"/>
      <point x="492" y="-62"/>
      <point x="362" y="-62" type="curve" smooth="yes"/>
      <point x="272" y="-62"/>
      <point x="186" y="-30"/>
      <point x="122" y="28" type="curve" smooth="yes"/>
      <point x="58" y="86"/>
      <point x="20" y="166"/>
      <point x="20" y="250" type="curve" smooth="yes"/>
      <point x="20" y="324"/>
      <point x="50" y="402"/>
      <point x="102" y="464" type="curve" smooth="yes"/>
      <point x="164" y="536"/>
      <point x="252" y="582"/>
      <point x="356" y="600" type="curve" smooth="yes"/>
      <point x="360" y="600"/>
      <point x="362" y="602"/>
      <point x="366" y="602" type="curve" smooth="yes"/>
      <point x="388" y="602" type="line" smooth="yes"/>
      <point x="442" y="602"/>
      <point x="484" y="596"/>
      <point x="518" y="580" type="curve" smooth="yes"/>
      <point x="570" y="558"/>
      <point x="606" y="518"/>
      <point x="618" y="468" type="curve" smooth="yes"/>
      <point x="618" y="460"/>
      <point x="620" y="452"/>
      <point x="620" y="444" type="curve" smooth="yes"/>
      <point x="618" y="410"/>
      <point x="614" y="358"/>
      <point x="584" y="314" type="curve" smooth="yes"/>
      <point x="560" y="278"/>
      <point x="512" y="236"/>
      <point x="422" y="236" type="curve" smooth="yes"/>
      <point x="420" y="236"/>
      <point x="418" y="236"/>
      <point x="416" y="236" type="curve" smooth="yes"/>
      <point x="216" y="238" type="line"/>
      <point x="200" y="238" type="line"/>
      <point x="208" y="172"/>
      <point x="278" y="118"/>
      <point x="362" y="118" type="curve" smooth="yes"/>
      <point x="460" y="118"/>
      <point x="534" y="132"/>
      <point x="582" y="160" type="curve" smooth="yes"/>
      <point x="596" y="168"/>
      <point x="610" y="172"/>
    </contour>
    <contour>
      <point x="354" y="416" type="curve"/>
      <point x="418" y="416" type="line" smooth="yes"/>
      <point x="428" y="416"/>
      <point x="432" y="416"/>
      <point x="436" y="418" type="curve"/>
      <point x="424" y="420"/>
      <point x="408" y="422"/>
      <point x="380" y="422" type="curve" smooth="yes"/>
      <point x="372" y="420"/>
      <point x="362" y="418"/>
    </contour>
  </outline>
</glyph>
<glyph name="f" format="2">
  <advance width="686"/>
  <unicode hex="0066"/>
  <outline>
    <contour>
      <point x="666" y="292" type="curve" smooth="yes"/>
      <point x="666" y="236"/>
      <point x="624" y="202"/>
      <point x="576" y="202" type="curve" smooth="yes"/>
      <point x="550" y="202"/>
      <point x="532" y="211"/>
      <point x="506" y="214" type="curve"/>
      <point x="522" y="184"/>
      <point x="538" y="152"/>
      <point x="550" y="118" type="curve" smooth="yes"/>
      <point x="556" y="106"/>
      <point x="558" y="94"/>
      <point x="558" y="82" type="curve" smooth="yes"/>
      <point x="558" y="48"/>
      <point x="536" y="16"/>
      <point x="502" y="2" type="curve" smooth="yes"/>
      <point x="490" y="-4"/>
      <point x="480" y="-6"/>
      <point x="468" y="-6" type="curve" smooth="yes"/>
      <point x="432" y="-6"/>
      <point x="398" y="16"/>
      <point x="384" y="50" type="curve" smooth="yes"/>
      <point x="358" y="112"/>
      <point x="328" y="170"/>
      <point x="294" y="226" type="curve"/>
      <point x="272" y="224"/>
      <point x="250" y="222"/>
      <point x="228" y="220" type="curve" smooth="yes"/>
      <point x="224" y="220"/>
      <point x="220" y="220"/>
      <point x="216" y="220" type="curve" smooth="yes"/>
      <point x="172" y="220"/>
      <point x="132" y="252"/>
      <point x="126" y="298" type="curve"/>
      <point x="126" y="308" type="line" smooth="yes"/>
      <point x="126" y="346"/>
      <point x="148" y="380"/>
      <point x="182" y="392" type="curve"/>
      <point x="162" y="420"/>
      <point x="144" y="444"/>
      <point x="126" y="466" type="curve" smooth="yes"/>
      <point x="118" y="480"/>
      <point x="108" y="490"/>
      <point x="100" y="502" type="curve" smooth="yes"/>
      <point x="100" y="502"/>
      <point x="100" y="504"/>
      <point x="98" y="504" type="curve" smooth="yes"/>
      <point x="78" y="534"/>
      <point x="50" y="582"/>
      <point x="34" y="640" type="curve" smooth="yes"/>
      <point x="24" y="672"/>
      <point x="20" y="702"/>
      <point x="20" y="730" type="curve" smooth="yes"/>
      <point x="20" y="758"/>
      <point x="24" y="784"/>
      <point x="32" y="808" type="curve" smooth="yes"/>
      <point x="50" y="854"/>
      <point x="90" y="918"/>
      <point x="186" y="948" type="curve"/>
      <point x="188" y="948" type="line"/>
      <point x="216" y="956"/>
      <point x="242" y="960"/>
      <point x="266" y="960" type="curve" smooth="yes"/>
      <point x="354" y="960"/>
      <point x="422" y="910"/>
      <point x="460" y="820" type="curve" smooth="yes"/>
      <point x="460" y="816"/>
      <point x="462" y="812"/>
      <point x="462" y="808" type="curve" smooth="yes"/>
      <point x="466" y="790"/>
      <point x="468" y="774"/>
      <point x="468" y="758" type="curve" smooth="yes"/>
      <point x="468" y="718"/>
      <point x="454" y="688"/>
      <point x="440" y="668" type="curve" smooth="yes"/>
      <point x="418" y="636"/>
      <point x="372" y="594"/>
      <point x="278" y="582" type="curve" smooth="yes"/>
      <point x="274" y="582"/>
      <point x="270" y="582"/>
      <point x="266" y="582" type="curve"/>
      <point x="266" y="580"/>
      <point x="268" y="578"/>
      <point x="270" y="576" type="curve" smooth="yes"/>
      <point x="304" y="532"/>
      <point x="348" y="474"/>
      <point x="392" y="406" type="curve"/>
      <point x="468" y="404"/>
      <point x="538" y="394"/>
      <point x="600" y="378" type="curve" smooth="yes"/>
      <point x="640" y="368"/>
      <point x="666" y="332"/>
    </contour>
    <contour>
      <point x="202" y="748" type="curve" smooth="yes"/>
      <point x="202" y="744"/>
      <point x="200" y="738"/>
      <point x="200" y="732" type="curve"/>
      <point x="214" y="748"/>
      <point x="234" y="758"/>
      <point x="256" y="762" type="curve" smooth="yes"/>
      <point x="270" y="764"/>
      <point x="278" y="766"/>
      <point x="284" y="768" type="curve"/>
      <point x="280" y="774"/>
      <point x="278" y="778"/>
      <point x="276" y="778" type="curve" smooth="yes"/>
      <point x="274" y="779"/>
      <point x="270" y="780"/>
      <point x="264" y="780" type="curve" smooth="yes"/>
      <point x="258" y="780"/>
      <point x="250" y="779"/>
      <point x="240" y="776" type="curve" smooth="yes"/>
      <point x="208" y="766"/>
      <point x="204" y="754"/>
    </contour>
  </outline>
</glyph>
